<svg id="svg" version="1.1" xmlns="http://www.w3.org/2000/svg" xmlns:xlink="http://www.w3.org/1999/xlink" width="400" height="400" viewBox="0, 0, 400,400"><g id="svgg"><path id="path0" d="M192.277 47.313 C 163.971 57.241,163.983 57.223,173.851 75.083 C 177.192 81.129,179.567 86.346,179.129 86.677 C 178.691 87.008,166.446 91.216,151.917 96.029 L 125.501 104.780 121.636 100.266 C 113.285 90.509,100.000 88.011,100.000 96.197 C 100.000 99.091,101.630 100.532,106.111 101.597 C 108.229 102.101,112.483 105.572,117.778 111.117 C 134.913 129.062,145.413 129.273,164.173 112.048 C 180.208 97.326,182.984 97.285,197.780 111.548 C 216.594 129.684,229.802 129.522,251.299 110.889 C 261.973 101.638,264.763 100.000,269.850 100.000 C 275.140 100.000,277.718 94.289,273.869 91.095 C 268.870 86.946,257.548 91.700,245.000 103.216 C 227.823 118.980,215.500 118.703,206.149 102.343 C 203.492 97.693,199.586 91.139,197.469 87.778 C 192.198 79.409,185.013 65.714,185.617 65.186 C 185.889 64.948,193.611 62.133,202.778 58.930 C 222.779 51.941,227.575 47.516,221.301 41.839 C 218.072 38.916,214.067 39.672,192.277 47.313 M215.578 70.835 C 203.342 76.982,203.564 95.037,215.948 101.032 C 227.617 106.681,240.006 98.927,239.996 85.980 C 239.986 72.862,227.257 64.967,215.578 70.835 M263.326 123.260 C 257.877 124.918,253.775 127.650,245.095 135.401 C 227.286 151.304,218.366 151.133,202.187 134.577 C 187.705 119.758,177.324 119.361,162.091 133.045 C 141.324 151.700,137.188 151.799,122.755 133.988 C 114.138 123.354,100.000 119.895,100.000 128.420 C 100.000 131.292,101.626 132.751,105.991 133.796 C 107.972 134.271,112.660 138.147,118.213 143.903 C 135.212 161.521,144.816 161.688,164.085 144.701 C 181.263 129.558,182.869 129.441,195.893 142.384 C 215.544 161.914,230.602 162.140,251.581 143.221 C 260.464 135.210,265.548 132.222,270.298 132.222 C 275.215 132.222,277.259 127.418,273.810 123.968 C 271.965 122.124,267.953 121.853,263.326 123.260 M262.600 156.039 C 256.984 157.795,252.675 160.767,243.743 169.047 C 228.111 183.538,217.639 183.073,202.246 167.206 C 186.634 151.114,177.313 151.416,158.581 168.618 C 142.724 183.181,135.786 183.036,123.888 167.892 C 114.748 156.257,100.000 151.668,100.000 160.459 C 100.000 163.575,101.413 164.826,106.939 166.606 C 109.637 167.475,112.560 169.773,115.250 173.140 C 132.389 194.594,144.350 195.048,166.506 175.087 C 180.617 162.375,183.327 162.407,196.487 175.444 C 215.771 194.548,230.870 194.472,252.046 175.165 C 260.616 167.352,265.758 164.470,271.167 164.451 C 275.289 164.436,276.929 159.310,273.810 156.190 C 271.737 154.118,268.864 154.080,262.600 156.039 M276.880 200.027 C 269.672 204.422,267.213 214.175,271.424 221.667 C 281.419 239.446,308.427 226.014,300.178 207.366 C 296.174 198.315,285.304 194.891,276.880 200.027 M122.059 204.461 C 113.809 208.820,111.288 220.225,116.850 228.035 C 123.442 237.293,138.850 236.387,144.014 226.438 C 151.465 212.085,136.322 196.926,122.059 204.461 M80.245 219.654 C 77.902 221.625,67.778 248.265,67.778 252.458 C 67.778 255.120,71.685 258.889,74.444 258.889 C 78.078 258.889,80.430 255.497,84.299 244.681 C 86.313 239.051,88.190 234.444,88.469 234.444 C 88.749 234.444,90.977 235.465,93.421 236.712 L 97.865 238.979 95.570 242.202 C 90.199 249.744,69.953 273.960,46.389 301.024 C 20.738 330.485,19.739 331.991,22.885 336.482 C 27.082 342.475,29.838 340.417,52.957 314.025 C 64.669 300.656,74.986 288.982,75.885 288.083 C 77.422 286.546,96.667 298.626,96.667 301.129 C 96.667 301.523,89.366 305.280,80.443 309.478 C 62.383 317.976,60.220 320.112,64.223 325.495 C 67.558 329.979,69.319 329.564,92.170 318.913 C 124.383 303.898,124.440 303.756,104.182 289.038 L 94.550 282.040 100.001 275.187 C 112.339 259.676,111.027 260.151,112.775 270.556 C 114.545 281.095,116.645 281.068,140.538 270.200 C 161.382 260.718,163.492 258.799,159.603 252.864 C 156.854 248.669,153.469 249.195,138.453 256.153 C 131.186 259.521,125.154 262.139,125.049 261.972 C 124.944 261.804,124.005 256.194,122.961 249.506 C 120.615 234.467,120.829 234.712,102.389 225.936 C 84.402 217.374,83.319 217.067,80.245 219.654 M232.987 229.879 C 204.690 245.702,203.401 246.869,204.977 255.266 C 205.632 258.762,211.290 265.556,213.546 265.556 C 214.001 265.556,220.265 268.320,227.465 271.699 L 240.556 277.843 240.200 294.359 C 239.816 312.137,240.588 314.444,246.914 314.444 C 252.047 314.444,253.005 311.340,253.861 291.928 C 254.894 268.503,255.380 269.717,242.546 263.638 L 231.987 258.636 244.934 251.540 C 260.609 242.949,259.190 242.961,262.254 251.389 C 265.636 260.694,266.638 261.567,274.673 262.222 L 281.490 262.778 284.277 270.400 C 286.931 277.661,286.968 278.076,285.046 279.152 C 253.338 296.897,270.020 348.698,305.913 343.948 C 348.260 338.345,346.655 277.988,304.073 274.768 L 296.013 274.158 293.664 268.190 L 291.315 262.222 295.708 262.222 C 303.462 262.222,307.630 256.142,303.432 250.956 C 301.442 248.500,300.517 248.324,288.830 248.191 C 274.558 248.029,276.114 249.174,271.010 235.069 C 263.698 214.861,260.601 214.439,232.987 229.879 M187.773 275.876 C 172.027 280.342,160.886 296.736,162.562 312.974 C 165.544 341.860,201.141 354.467,221.693 333.915 C 246.562 309.047,221.573 266.290,187.773 275.876 M207.392 286.589 C 232.437 297.960,223.322 335.903,195.951 334.219 C 176.529 333.023,165.938 312.556,176.173 296.000 C 182.486 285.791,196.398 281.596,207.392 286.589 M312.778 286.532 C 337.643 297.938,329.033 334.444,301.478 334.444 C 279.425 334.444,268.948 303.699,286.340 290.018 C 290.531 286.722,290.619 286.810,295.214 299.008 C 299.575 310.585,301.781 313.064,305.833 310.941 C 308.047 309.781,308.338 306.040,306.571 301.461 C 305.907 299.741,304.179 295.208,302.731 291.389 L 300.100 284.444 304.216 284.469 C 306.481 284.482,310.333 285.411,312.778 286.532 " stroke="none" fill="#000000" fill-rule="evenodd"></path></g></svg>