<svg id="svg" version="1.1" xmlns="http://www.w3.org/2000/svg" xmlns:xlink="http://www.w3.org/1999/xlink" width="400" height="442.3097679438748" viewBox="0, 0, 400,442.3097679438748"><g id="svgg"><path id="path0" d="M194.340 0.465 C 192.307 0.877,190.480 1.489,188.775 2.331 C 187.837 2.795,19.121 97.226,12.520 100.983 C 5.582 104.931,1.661 109.980,0.334 116.676 C -0.224 119.488,-0.060 322.070,0.502 324.447 C 0.906 326.158,2.250 329.209,2.937 329.976 L 3.346 330.432 36.913 311.256 C 55.375 300.709,70.608 292.125,70.764 292.180 C 70.938 292.241,70.886 292.052,70.628 291.688 C 67.386 287.108,60.445 269.907,57.670 259.576 C 34.277 172.477,93.366 85.305,183.055 74.599 C 239.346 67.880,296.054 95.384,325.499 143.689 L 326.833 145.877 360.556 126.649 C 379.104 116.073,394.344 107.325,394.422 107.209 C 394.624 106.910,392.602 104.671,390.910 103.320 C 389.372 102.092,388.561 101.605,381.328 97.567 C 378.716 96.109,374.976 94.020,373.017 92.925 C 353.864 82.220,350.192 80.169,341.716 75.441 C 334.945 71.665,329.029 68.364,321.209 64.000 C 318.063 62.244,313.424 59.657,310.901 58.250 C 303.300 54.014,297.446 50.748,291.419 47.383 C 288.273 45.626,283.659 43.050,281.166 41.660 C 278.672 40.269,274.058 37.695,270.912 35.939 C 267.766 34.184,263.103 31.583,260.550 30.159 C 257.998 28.735,253.821 26.404,251.268 24.978 C 248.716 23.553,245.024 21.492,243.065 20.398 C 241.106 19.304,237.852 17.488,235.834 16.360 C 233.815 15.233,230.367 13.308,228.171 12.083 C 225.974 10.857,222.720 9.030,220.939 8.024 C 219.158 7.017,217.580 6.192,217.431 6.191 C 217.283 6.189,217.161 6.128,217.161 6.055 C 217.161 5.853,215.867 5.130,215.863 5.330 C 215.861 5.426,215.787 5.391,215.699 5.252 C 215.611 5.113,215.397 4.967,215.225 4.928 C 215.053 4.889,214.723 4.690,214.493 4.487 C 214.262 4.283,213.991 4.167,213.891 4.230 C 213.790 4.292,213.708 4.234,213.708 4.101 C 213.708 3.969,213.610 3.920,213.492 3.994 C 213.373 4.067,213.276 4.008,213.276 3.862 C 213.276 3.717,213.219 3.654,213.150 3.724 C 213.081 3.793,212.834 3.660,212.602 3.428 C 212.370 3.196,212.087 3.064,211.973 3.135 C 211.858 3.206,211.765 3.155,211.765 3.022 C 211.765 2.889,211.668 2.841,211.549 2.914 C 211.430 2.988,211.333 2.939,211.333 2.806 C 211.333 2.674,211.236 2.625,211.117 2.698 C 210.998 2.772,210.901 2.723,210.901 2.590 C 210.901 2.458,210.804 2.409,210.685 2.482 C 210.567 2.556,210.470 2.507,210.470 2.375 C 210.470 2.242,210.372 2.193,210.254 2.267 C 210.135 2.340,210.038 2.291,210.038 2.159 C 210.038 2.026,209.941 1.977,209.822 2.051 C 209.703 2.124,209.606 2.092,209.606 1.980 C 209.606 1.867,209.485 1.779,209.336 1.785 C 208.643 1.811,208.297 1.708,208.417 1.514 C 208.493 1.391,208.406 1.355,208.214 1.429 C 208.030 1.499,207.879 1.459,207.879 1.339 C 207.879 1.218,207.670 1.175,207.414 1.241 C 207.067 1.332,206.993 1.291,207.123 1.080 C 207.228 0.910,207.213 0.849,207.085 0.928 C 206.968 1.001,205.922 0.866,204.760 0.628 C 201.813 0.026,196.888 -0.051,194.340 0.465 M194.064 147.676 C 148.795 151.264,117.618 194.904,128.671 239.208 C 130.037 244.686,134.218 255.286,134.984 255.219 C 135.454 255.178,262.493 182.539,262.493 182.312 C 262.493 182.168,261.768 180.992,260.882 179.698 C 245.848 157.754,220.454 145.585,194.064 147.676 " stroke="none" fill="#649cd3" fill-rule="evenodd"></path><path id="path1" d="M191.473 73.954 C 191.058 73.999,189.358 74.141,187.696 74.268 C 141.416 77.827,98.271 104.570,74.006 144.738 C 36.333 207.103,49.653 287.196,105.474 333.960 C 167.406 385.844,259.586 378.082,312.082 316.563 C 318.466 309.081,328.529 294.485,327.767 293.811 C 327.413 293.499,263.851 258.608,263.657 258.620 C 263.551 258.626,262.564 260.010,261.463 261.696 C 238.704 296.540,190.555 305.359,156.906 280.847 C 115.786 250.892,116.206 189.802,157.732 160.685 C 191.680 136.882,238.657 145.850,261.545 180.503 L 262.925 182.592 294.819 164.361 C 312.361 154.333,326.688 146.032,326.658 145.914 C 326.243 144.312,318.158 132.803,313.489 127.168 C 288.434 96.927,253.371 78.365,213.708 74.346 C 210.385 74.009,193.687 73.715,191.473 73.954 " stroke="none" fill="#fbfbfb" fill-rule="evenodd"></path><path id="path2" d="M361.036 126.497 C 342.515 137.068,327.167 145.882,326.929 146.083 C 326.285 146.627,263.558 182.441,262.928 182.624 C 262.540 182.737,135.367 255.132,134.974 255.464 C 134.662 255.727,139.745 263.485,142.528 266.995 C 173.688 306.277,235.919 302.867,262.166 260.439 C 262.863 259.313,263.513 258.392,263.612 258.392 C 263.827 258.392,327.709 293.522,327.980 293.789 C 328.494 294.296,320.728 306.044,315.632 312.466 C 279.120 358.483,219.798 378.370,162.763 363.714 C 125.098 354.036,91.911 328.723,72.291 294.706 L 70.763 292.057 70.082 292.469 C 67.685 293.917,3.402 330.491,3.252 330.491 C 2.971 330.491,1.790 328.558,1.195 327.123 C 0.516 325.488,0.488 325.956,1.158 327.737 C 2.380 330.981,4.086 333.683,6.372 335.992 C 8.673 338.316,9.010 338.532,19.266 344.281 C 25.759 347.921,34.879 353.039,42.202 357.152 C 44.576 358.486,49.336 361.157,52.779 363.086 C 56.222 365.016,61.784 368.137,65.138 370.022 C 75.628 375.916,83.206 380.171,89.692 383.809 C 93.135 385.739,97.895 388.410,100.270 389.744 C 102.644 391.078,107.356 393.723,110.739 395.623 C 114.123 397.522,119.660 400.630,123.044 402.531 C 126.427 404.431,132.013 407.566,135.456 409.497 C 138.899 411.427,143.659 414.099,146.033 415.432 C 148.408 416.766,153.119 419.412,156.503 421.311 C 164.376 425.729,173.073 430.615,182.140 435.710 C 192.420 441.489,194.143 442.104,200.028 442.107 C 205.737 442.110,207.726 441.418,216.945 436.226 C 219.379 434.855,224.164 432.166,227.577 430.251 C 230.990 428.335,236.527 425.226,239.881 423.342 C 243.235 421.459,248.797 418.337,252.240 416.406 C 255.683 414.474,260.443 411.803,262.817 410.470 C 265.192 409.137,269.927 406.478,273.341 404.563 C 276.754 402.647,282.339 399.511,285.753 397.595 C 289.166 395.678,293.902 393.020,296.276 391.688 C 298.651 390.355,303.362 387.711,306.746 385.812 C 310.130 383.912,316.492 380.341,320.885 377.876 C 336.082 369.348,356.302 357.997,364.868 353.186 C 368.222 351.302,374.997 347.500,379.924 344.738 C 394.500 336.567,397.061 334.109,399.386 326.066 L 399.885 324.339 399.953 222.018 C 400.005 145.272,399.960 119.293,399.772 118.079 C 399.205 114.408,397.477 110.381,395.533 108.199 L 394.711 107.277 361.036 126.497 " stroke="none" fill="#044e8e" fill-rule="evenodd"></path><path id="path3" d="M195.092 73.763 C 195.360 73.815,195.749 73.813,195.955 73.759 C 196.161 73.705,195.942 73.662,195.467 73.665 C 194.992 73.667,194.823 73.711,195.092 73.763 M204.158 73.763 C 204.426 73.815,204.815 73.813,205.021 73.759 C 205.228 73.705,205.008 73.662,204.533 73.665 C 204.058 73.667,203.889 73.711,204.158 73.763 M304.047 116.784 C 304.992 117.733,305.813 118.511,305.872 118.511 C 305.932 118.511,305.208 117.733,304.263 116.784 C 303.319 115.834,302.498 115.057,302.439 115.057 C 302.379 115.057,303.103 115.834,304.047 116.784 M95.622 116.945 L 94.226 118.403 95.683 117.006 C 96.484 116.237,97.140 115.582,97.140 115.549 C 97.140 115.390,96.920 115.592,95.622 116.945 M126.351 219.536 C 126.351 220.308,126.390 220.623,126.438 220.237 C 126.486 219.852,126.486 219.220,126.438 218.834 C 126.390 218.448,126.351 218.764,126.351 219.536 M126.351 222.558 C 126.351 223.330,126.390 223.645,126.438 223.260 C 126.486 222.874,126.486 222.242,126.438 221.856 C 126.390 221.471,126.351 221.786,126.351 222.558 M196.924 368.422 C 197.250 368.472,197.785 368.472,198.111 368.422 C 198.438 368.373,198.171 368.332,197.518 368.332 C 196.865 368.332,196.597 368.373,196.924 368.422 M201.889 368.422 C 202.215 368.472,202.750 368.472,203.076 368.422 C 203.403 368.373,203.135 368.332,202.482 368.332 C 201.829 368.332,201.562 368.373,201.889 368.422 " stroke="none" fill="#9bbddf" fill-rule="evenodd"></path><path id="path4" d="" stroke="none" fill="#4580b3" fill-rule="evenodd"></path><path id="path5" d="" stroke="none" fill="#3872a9" fill-rule="evenodd"></path><path id="path6" d="M97.572 327.145 C 97.974 327.561,98.352 327.901,98.412 327.901 C 98.471 327.901,98.190 327.561,97.787 327.145 C 97.385 326.730,97.007 326.390,96.947 326.390 C 96.888 326.390,97.169 326.730,97.572 327.145 " stroke="none" fill="#246aa7" fill-rule="evenodd"></path><path id="path7" d="M197.359 0.155 C 197.687 0.205,198.172 0.203,198.438 0.152 C 198.703 0.101,198.435 0.060,197.841 0.062 C 197.248 0.063,197.030 0.105,197.359 0.155 M0.050 119.590 C 0.050 120.005,0.095 120.175,0.149 119.968 C 0.203 119.760,0.203 119.420,0.149 119.212 C 0.095 119.004,0.050 119.174,0.050 119.590 M251.904 273.233 L 251.160 274.042 251.970 273.298 C 252.415 272.889,252.779 272.525,252.779 272.489 C 252.779 272.324,252.597 272.479,251.904 273.233 " stroke="none" fill="#4e8cc4" fill-rule="evenodd"></path><path id="path8" d="M197.992 73.771 C 199.025 73.810,200.774 73.811,201.878 73.771 C 202.982 73.732,202.137 73.700,200.000 73.700 C 197.863 73.699,196.959 73.731,197.992 73.771 M148.830 167.998 L 147.976 168.915 148.894 168.062 C 149.398 167.593,149.811 167.180,149.811 167.145 C 149.811 166.981,149.623 167.145,148.830 167.998 M250.836 167.836 C 251.239 168.251,251.617 168.591,251.677 168.591 C 251.736 168.591,251.455 168.251,251.052 167.836 C 250.650 167.420,250.271 167.080,250.212 167.080 C 250.153 167.080,250.434 167.420,250.836 167.836 M146.671 170.157 L 145.818 171.074 146.735 170.221 C 147.588 169.427,147.752 169.239,147.588 169.239 C 147.553 169.239,147.140 169.652,146.671 170.157 M252.995 169.995 C 253.398 170.410,253.776 170.750,253.835 170.750 C 253.895 170.750,253.614 170.410,253.211 169.995 C 252.808 169.579,252.430 169.239,252.371 169.239 C 252.311 169.239,252.592 169.579,252.995 169.995 M52.730 215.003 C 52.730 215.537,52.772 215.756,52.824 215.488 C 52.875 215.221,52.875 214.784,52.824 214.517 C 52.772 214.250,52.730 214.468,52.730 215.003 M126.332 217.593 C 126.332 218.009,126.376 218.179,126.431 217.971 C 126.485 217.763,126.485 217.423,126.431 217.215 C 126.376 217.008,126.332 217.178,126.332 217.593 M126.332 224.501 C 126.332 224.916,126.376 225.086,126.431 224.879 C 126.485 224.671,126.485 224.331,126.431 224.123 C 126.376 223.915,126.332 224.085,126.332 224.501 M52.726 227.199 C 52.728 227.674,52.772 227.843,52.824 227.574 C 52.876 227.306,52.874 226.917,52.820 226.711 C 52.766 226.505,52.723 226.724,52.726 227.199 M198.003 294.812 C 198.330 294.861,198.864 294.861,199.191 294.812 C 199.517 294.762,199.250 294.722,198.597 294.722 C 197.944 294.722,197.677 294.762,198.003 294.812 M200.809 294.812 C 201.136 294.861,201.670 294.861,201.997 294.812 C 202.323 294.762,202.056 294.722,201.403 294.722 C 200.750 294.722,200.483 294.762,200.809 294.812 M199.186 368.423 C 199.569 368.471,200.249 368.472,200.697 368.425 C 201.145 368.378,200.831 368.339,200.000 368.339 C 199.169 368.338,198.802 368.376,199.186 368.423 " stroke="none" fill="#b4c4dc" fill-rule="evenodd"></path></g></svg>