<svg id="svg" version="1.1" xmlns="http://www.w3.org/2000/svg" xmlns:xlink="http://www.w3.org/1999/xlink" width="400" height="337.7887788778878" viewBox="0, 0, 400,337.7887788778878"><g id="svgg"><path id="path0" d="M207.333 25.757 C 197.629 27.523,187.282 37.121,177.694 53.250 C 176.768 54.808,175.912 56.223,175.793 56.393 C 175.582 56.693,175.496 56.689,172.913 56.277 C 160.816 54.345,151.198 54.216,141.500 55.854 C 110.863 61.030,89.662 86.916,85.341 124.423 C 85.162 125.978,84.902 128.082,84.765 129.100 C 81.986 149.651,89.912 175.853,104.826 195.417 C 108.578 200.339,109.500 204.335,107.372 206.442 C 103.308 210.466,102.445 224.084,105.998 228.121 C 108.750 231.247,108.599 235.390,105.603 239.023 C 104.837 239.951,104.598 240.127,103.737 240.397 C 99.165 241.828,97.568 247.491,100.575 251.608 C 103.644 255.811,103.449 258.908,100.051 259.937 C 98.784 260.321,98.766 260.338,97.032 262.892 C 91.070 271.670,87.737 281.266,86.820 292.292 C 86.311 298.419,87.057 308.244,88.371 312.715 C 88.589 313.456,88.594 313.455,90.108 312.376 C 105.658 301.282,126.130 290.755,140.417 286.505 C 141.700 286.123,143.162 285.660,143.667 285.476 C 149.510 283.341,152.632 282.798,159.083 282.794 C 165.227 282.790,176.778 284.145,178.460 285.067 C 178.711 285.204,179.667 285.477,180.583 285.673 C 183.150 286.221,187.912 287.426,191.462 288.428 C 193.228 288.926,194.770 289.333,194.887 289.333 C 196.123 289.333,200.841 291.272,203.935 293.051 C 213.387 298.485,221.855 302.898,230.417 306.851 C 237.402 310.076,237.984 310.333,238.290 310.333 C 238.460 310.333,239.832 310.865,241.341 311.515 C 255.947 317.807,264.081 320.453,266.417 319.675 C 270.555 318.296,271.953 310.321,269.932 299.630 C 269.813 299.003,269.761 298.463,269.816 298.430 C 269.872 298.398,272.054 299.640,274.667 301.190 C 277.279 302.740,281.479 305.218,284.000 306.697 C 286.521 308.175,290.490 310.504,292.821 311.872 C 300.577 316.424,304.861 317.480,307.156 315.406 C 310.273 312.590,308.675 305.298,301.990 291.833 C 299.034 285.878,287.181 263.418,284.304 258.318 C 281.235 252.880,276.062 247.768,271.167 245.338 C 270.571 245.042,269.971 244.659,269.833 244.486 C 269.696 244.313,268.967 243.956,268.213 243.692 L 266.842 243.213 267.830 241.981 C 270.484 238.675,271.280 234.534,270.110 230.130 C 269.479 227.760,269.002 226.910,266.860 224.338 C 266.213 223.562,265.714 222.897,265.751 222.860 C 265.788 222.823,266.178 222.728,266.617 222.647 C 267.536 222.479,269.833 221.402,269.833 221.138 C 269.833 221.041,270.243 220.519,270.743 219.978 C 272.888 217.661,274.484 213.625,275.056 209.070 L 275.260 207.451 284.672 207.417 C 299.161 207.363,302.871 206.813,302.490 204.778 C 302.419 204.396,302.234 203.258,302.081 202.250 C 300.585 192.443,292.744 174.623,281.216 154.833 C 277.711 148.817,276.894 147.736,272.397 143.167 C 271.089 141.837,269.817 140.503,269.572 140.201 L 269.125 139.652 269.481 136.701 C 270.257 130.284,270.290 130.608,268.664 128.750 C 268.103 128.108,267.405 127.259,267.114 126.863 C 266.822 126.467,265.604 124.889,264.408 123.358 C 263.211 121.827,262.182 120.493,262.121 120.394 C 262.060 120.295,261.637 118.985,261.181 117.482 C 257.093 104.016,250.496 91.434,242.851 82.524 C 238.135 77.027,229.315 69.602,226.147 68.462 C 226.077 68.437,226.129 67.704,226.262 66.833 C 227.492 58.794,225.917 51.566,221.694 45.870 C 220.163 43.805,216.332 40.371,214.990 39.861 L 214.583 39.707 214.562 41.228 C 214.520 44.248,210.966 61.483,210.428 61.277 C 210.330 61.240,209.482 61.070,208.543 60.900 C 207.187 60.654,206.849 60.538,206.904 60.337 C 206.941 60.197,207.014 59.746,207.066 59.333 C 207.200 58.262,210.400 35.045,211.089 30.140 C 211.407 27.879,211.667 25.910,211.667 25.765 C 211.667 25.423,209.194 25.419,207.333 25.757 M207.500 29.567 C 207.500 29.604,207.173 30.485,206.773 31.525 C 202.277 43.230,200.734 53.623,202.522 60.167 C 204.050 65.759,205.817 67.474,208.973 66.426 C 213.585 64.894,216.855 59.021,217.747 50.667 L 217.951 48.750 218.796 50.507 C 221.357 55.830,222.830 62.546,222.835 68.917 L 222.836 71.083 223.875 71.750 C 236.239 79.683,247.226 94.750,253.050 111.756 C 254.471 115.908,261.024 128.174,263.923 132.112 C 264.174 132.453,264.123 132.681,263.035 136.057 L 261.881 139.640 268.250 146.004 L 274.619 152.369 276.841 157.226 C 278.062 159.898,281.043 166.358,283.465 171.583 C 285.887 176.808,289.673 184.983,291.880 189.750 L 295.893 198.417 295.958 199.750 C 296.039 201.432,295.755 202.026,294.503 202.785 C 293.192 203.580,292.958 203.587,281.443 203.183 C 275.590 202.977,270.777 202.834,270.746 202.865 C 270.715 202.896,270.804 203.670,270.944 204.585 C 271.992 211.449,268.828 215.679,262.216 216.256 L 260.877 216.373 259.765 217.925 L 258.654 219.478 259.723 220.864 C 265.010 227.718,267.018 233.201,264.683 234.408 C 264.420 234.544,264.008 234.991,263.768 235.401 C 262.781 237.085,261.125 238.378,259.070 239.070 L 257.984 239.436 260.700 241.694 C 272.737 251.699,279.906 259.430,281.478 264.099 C 281.666 264.658,283.948 269.083,286.550 273.933 C 301.636 302.053,302.000 302.792,302.000 305.308 C 302.000 308.630,299.012 308.426,292.417 304.655 C 290.427 303.517,276.635 296.681,267.417 292.263 C 252.492 285.110,240.882 280.167,236.011 278.892 C 235.134 278.662,233.704 278.249,232.833 277.973 C 227.140 276.168,225.103 276.539,227.871 278.876 C 230.240 280.877,231.267 281.478,235.449 283.317 C 237.723 284.317,242.621 286.481,246.333 288.126 C 250.046 289.770,255.543 292.188,258.549 293.499 C 261.555 294.809,264.078 296.002,264.156 296.149 C 264.767 297.302,265.571 303.751,265.446 306.500 C 265.145 313.118,262.225 314.602,256.418 311.088 C 252.544 308.745,232.269 299.287,217.977 293.157 C 200.697 285.746,186.768 281.020,179.917 280.246 C 179.367 280.184,178.279 279.924,177.500 279.668 C 159.377 273.711,129.824 280.988,99.032 298.989 C 97.263 300.024,95.793 300.843,95.765 300.810 C 95.355 300.311,94.833 295.630,94.833 292.445 C 94.833 279.117,100.871 267.152,112.542 257.355 C 113.344 256.682,114.000 256.105,114.000 256.073 C 114.000 256.041,113.768 255.621,113.485 255.141 C 107.243 244.555,109.327 240.047,118.865 243.500 C 120.522 244.100,120.502 244.081,120.902 245.417 C 122.492 250.721,127.952 255.433,135.365 257.899 C 138.487 258.938,144.327 260.158,145.277 259.970 C 145.441 259.937,144.003 258.660,141.564 256.672 C 126.995 244.798,116.447 234.542,113.080 228.976 C 111.688 226.676,111.524 226.088,111.361 222.815 C 110.680 209.160,115.395 205.392,124.357 212.430 C 125.215 213.104,129.442 216.147,133.750 219.192 C 154.105 233.581,153.685 233.306,153.801 232.304 C 153.996 230.623,150.672 226.930,146.327 223.998 C 133.182 215.132,123.676 207.102,119.002 200.917 C 118.378 200.092,117.242 198.880,116.476 198.223 C 111.565 194.015,105.796 187.014,101.801 180.417 C 90.272 161.376,87.381 139.596,93.341 116.683 C 93.708 115.272,94.124 113.284,94.265 112.267 C 97.688 87.536,114.829 68.156,138.500 62.252 C 146.628 60.225,159.625 59.188,165.000 60.137 C 174.012 61.729,175.992 65.538,170.512 70.743 C 168.822 72.348,168.512 78.017,169.953 81.000 C 171.491 84.185,177.803 87.051,180.778 85.915 C 183.091 85.031,183.857 83.436,184.666 77.814 C 187.942 55.038,194.734 38.215,203.245 31.793 C 204.738 30.667,207.500 29.221,207.500 29.567 M134.333 87.693 C 126.019 92.435,120.048 115.168,121.732 135.667 C 123.343 155.283,127.625 171.310,134.581 183.766 C 142.565 198.061,153.293 209.497,164.031 215.158 L 165.979 216.185 166.478 214.626 C 169.374 205.586,170.128 194.456,168.407 186.167 C 168.033 184.366,167.004 180.774,166.894 180.884 C 166.867 180.911,166.727 182.955,166.584 185.425 C 165.809 198.831,164.403 206.991,162.816 207.297 C 162.121 207.431,156.481 202.837,152.744 199.094 C 128.258 174.562,121.143 139.497,132.842 101.007 L 133.220 99.765 133.559 100.507 C 137.128 108.318,141.379 114.242,145.223 116.762 C 147.038 117.952,152.627 124.476,155.415 128.660 C 157.427 131.678,157.980 132.783,159.005 135.833 C 163.025 147.793,164.793 147.287,163.665 134.500 L 163.481 132.417 160.546 128.017 C 154.510 118.969,149.833 113.293,147.348 112.002 C 145.980 111.291,141.920 106.725,139.787 103.500 C 136.198 98.071,134.468 91.834,135.455 87.875 C 135.672 87.003,135.571 86.986,134.333 87.693 M204.763 88.843 C 199.045 89.800,195.351 95.096,194.746 103.203 C 194.686 104.002,194.686 104.876,194.745 105.146 L 194.853 105.636 196.721 103.776 C 199.387 101.122,203.677 97.793,206.226 96.400 L 207.417 95.750 209.750 95.776 C 213.175 95.815,221.377 96.838,226.249 97.834 C 227.074 98.002,227.769 98.119,227.795 98.094 C 227.866 98.022,222.768 94.662,221.108 93.686 C 214.740 89.944,208.764 88.173,204.763 88.843 M214.450 108.098 C 210.251 108.857,210.553 110.750,215.307 113.477 C 216.209 113.994,224.792 123.581,225.707 125.093 C 225.767 125.192,225.162 125.730,224.328 126.318 C 221.363 128.412,219.661 130.552,219.531 132.353 L 219.460 133.332 220.272 133.239 C 223.555 132.859,226.023 132.298,228.387 131.396 C 229.213 131.081,229.940 130.881,230.002 130.953 C 232.309 133.625,234.352 136.960,235.187 139.417 C 235.611 140.665,235.646 141.495,235.423 145.000 C 235.158 149.153,237.682 150.072,242.636 147.628 C 244.345 146.785,244.489 146.601,245.546 143.896 C 251.614 128.365,244.526 116.208,225.734 109.915 C 220.169 108.051,217.283 107.586,214.450 108.098 M134.256 115.814 C 134.061 116.429,134.777 118.890,136.201 122.500 C 136.653 123.646,139.315 129.083,142.116 134.583 C 144.917 140.083,148.199 146.533,149.410 148.917 L 151.612 153.250 151.231 155.000 C 149.635 162.333,150.153 168.216,152.630 170.875 C 153.077 171.356,153.716 172.205,154.048 172.760 C 156.774 177.317,158.318 176.437,158.750 170.082 L 158.852 168.580 157.920 167.775 C 153.933 164.333,153.589 159.590,156.999 155.084 L 157.844 153.968 155.398 149.359 C 147.957 135.336,141.033 122.648,140.210 121.525 C 136.840 116.931,134.588 114.770,134.256 115.814 M256.364 147.159 C 253.638 147.835,254.166 152.055,257.463 155.935 C 258.721 157.416,259.017 157.378,253.902 156.389 L 249.880 155.610 248.482 156.615 C 231.681 168.681,212.340 168.799,197.576 156.924 C 191.600 152.117,188.620 152.090,188.643 156.842 C 188.655 159.282,189.619 163.830,190.339 164.841 C 194.389 170.529,193.527 178.712,188.181 185.333 C 184.950 189.334,181.042 197.741,179.190 204.674 C 174.494 222.250,177.895 238.753,189.229 253.393 L 190.708 255.303 192.896 256.343 C 226.496 272.318,256.451 283.831,264.417 283.833 C 271.209 283.834,266.485 280.183,253.417 275.332 C 251.858 274.753,250.531 274.236,250.467 274.182 C 250.403 274.128,251.491 274.081,252.884 274.079 C 259.722 274.067,260.148 271.381,253.995 267.070 C 252.299 265.881,252.343 265.858,254.762 266.671 C 267.502 270.952,268.771 267.784,258.451 257.459 C 254.987 253.993,254.980 253.662,258.423 256.252 C 263.589 260.136,269.820 263.425,271.091 262.937 C 272.321 262.465,269.627 258.639,264.028 252.912 C 260.328 249.126,258.228 247.560,250.532 242.842 C 245.442 239.722,244.953 239.279,244.864 237.706 C 244.677 234.393,246.186 233.332,249.976 234.114 C 258.607 235.895,261.676 233.384,257.358 228.072 C 254.417 224.453,237.542 216.663,225.667 213.442 C 220.651 212.081,220.571 212.080,219.342 213.308 C 217.919 214.731,217.751 215.421,217.746 219.833 C 217.738 228.077,215.752 226.389,213.677 216.375 C 210.818 202.573,213.073 191.861,219.505 188.690 C 221.677 187.619,222.500 187.506,228.167 187.503 C 239.607 187.496,247.404 185.684,253.867 181.532 C 257.950 178.909,263.403 176.048,264.636 175.883 C 266.165 175.678,265.384 176.806,260.922 181.250 C 252.638 189.500,252.461 192.159,260.417 188.821 L 262.083 188.122 264.833 188.310 C 274.078 188.944,279.254 191.769,280.044 196.611 C 280.147 197.237,280.249 197.777,280.272 197.809 C 280.395 197.986,286.717 198.629,287.140 198.508 C 289.240 197.905,289.367 196.430,287.613 193.006 C 281.127 180.347,278.741 175.670,273.839 166.000 L 268.135 154.750 266.526 153.113 C 262.156 148.666,258.626 146.598,256.364 147.159 M206.007 184.708 C 207.523 185.730,208.145 189.491,207.251 192.231 C 206.264 195.255,206.302 203.717,207.350 214.133 C 207.601 216.623,207.481 216.670,205.489 214.867 C 200.967 210.775,198.247 198.943,199.422 188.474 C 199.682 186.159,204.268 183.537,206.007 184.708 M247.417 191.914 C 245.316 192.472,238.137 196.500,239.243 196.500 C 239.718 196.500,248.963 199.634,251.750 200.740 C 258.173 203.288,262.644 205.932,263.203 207.512 C 263.364 207.967,263.454 207.559,264.163 203.126 L 264.875 198.668 265.479 198.521 C 265.812 198.441,267.041 198.143,268.211 197.860 C 276.073 195.959,274.690 194.406,264.833 194.067 C 262.208 193.976,261.835 194.007,256.595 194.734 C 253.576 195.153,251.089 195.478,251.067 195.456 C 251.045 195.434,251.279 195.004,251.588 194.500 C 253.251 191.780,251.652 190.789,247.417 191.914 M225.545 198.915 C 221.444 199.659,220.766 202.161,223.547 206.294 L 224.250 207.339 228.333 209.071 C 230.579 210.023,234.704 211.754,237.500 212.918 C 240.296 214.081,244.899 216.005,247.730 217.195 C 250.560 218.384,252.934 219.296,253.005 219.220 C 253.221 218.991,258.333 209.374,258.333 209.196 C 258.333 209.106,258.015 208.919,257.625 208.782 C 257.235 208.645,251.779 206.681,245.500 204.417 C 227.952 198.090,229.693 198.664,228.115 198.682 C 227.364 198.690,226.208 198.795,225.545 198.915 " stroke="none" fill="#fbfbfb" fill-rule="evenodd"></path><path id="path1" d="M0.000 0.173 C 0.000 0.437,0.620 1.603,1.548 3.083 C 2.008 3.817,2.685 4.904,3.052 5.500 C 3.420 6.096,3.887 6.846,4.090 7.167 C 5.036 8.657,14.819 24.375,15.501 25.500 C 15.751 25.912,16.269 26.775,16.651 27.417 C 17.034 28.058,17.419 28.696,17.507 28.833 C 17.595 28.971,17.744 29.233,17.837 29.417 C 17.930 29.600,18.211 30.069,18.462 30.459 C 19.072 31.409,23.103 37.904,25.832 42.333 C 27.046 44.304,28.320 46.332,28.663 46.839 C 29.006 47.347,30.098 49.072,31.090 50.673 C 32.647 53.188,33.398 54.440,34.832 56.917 C 34.992 57.192,35.518 58.054,36.002 58.833 C 36.487 59.612,37.275 60.887,37.754 61.667 C 38.233 62.446,38.924 63.533,39.290 64.083 C 39.656 64.633,40.669 66.246,41.540 67.667 C 42.412 69.087,44.297 72.147,45.729 74.465 L 48.333 78.679 48.333 168.814 L 48.333 258.948 46.231 262.349 C 45.074 264.220,43.111 267.400,41.868 269.417 C 40.626 271.433,38.964 274.096,38.175 275.333 C 37.386 276.571,35.960 278.896,35.005 280.500 C 32.543 284.637,30.343 288.226,28.670 290.833 C 27.239 293.065,26.083 294.926,21.839 301.833 C 20.628 303.804,19.494 305.620,19.319 305.868 C 19.143 306.117,19.000 306.372,19.000 306.436 C 19.000 306.500,18.826 306.784,18.614 307.068 C 18.401 307.351,17.975 308.033,17.666 308.583 C 17.168 309.472,10.028 321.042,8.480 323.470 C 7.582 324.879,5.376 328.431,4.632 329.667 C 4.273 330.262,3.741 331.131,3.448 331.597 C 1.958 333.972,-0.000 337.310,-0.000 337.477 C -0.000 337.618,26.843 337.667,105.417 337.667 C 163.396 337.667,210.833 337.617,210.833 337.557 C 210.833 337.441,210.087 336.206,206.616 330.583 C 203.433 325.427,202.391 323.762,201.240 321.988 C 200.670 321.111,200.036 320.061,199.831 319.655 C 199.429 318.857,197.707 316.039,193.779 309.750 C 189.080 302.227,183.631 293.417,183.005 292.333 C 180.172 287.428,178.639 285.172,178.028 285.011 C 174.530 284.092,166.291 283.155,160.750 283.047 C 153.381 282.904,149.544 283.431,144.750 285.242 C 143.925 285.554,142.162 286.124,140.833 286.508 C 127.276 290.431,108.213 300.053,92.557 310.876 C 88.176 313.904,88.486 313.743,88.299 313.083 C 83.712 296.940,87.498 275.932,97.512 261.957 C 98.643 260.378,98.825 260.230,100.234 259.738 C 103.336 258.655,103.407 255.525,100.418 251.583 C 99.566 250.459,99.402 250.005,99.139 248.034 C 98.623 244.176,100.265 241.363,103.633 240.336 C 104.790 239.983,105.805 238.851,106.852 236.746 C 108.373 233.689,108.065 230.897,105.917 228.259 C 102.280 223.794,103.064 210.826,107.240 206.361 C 109.168 204.300,108.337 200.191,105.160 196.083 C 89.549 175.894,81.833 150.002,84.823 127.833 C 85.002 126.504,85.270 124.329,85.419 123.000 C 87.522 104.183,95.921 85.221,107.408 73.362 C 123.033 57.230,146.943 51.090,174.000 56.261 C 174.688 56.392,175.329 56.500,175.425 56.500 C 175.522 56.500,175.927 55.919,176.327 55.208 C 177.575 52.991,179.799 49.554,182.340 45.917 C 183.685 43.992,186.228 40.092,187.991 37.250 C 189.753 34.408,191.972 30.846,192.921 29.333 C 193.870 27.821,194.905 26.171,195.221 25.667 C 196.789 23.163,199.833 18.114,199.833 18.016 C 199.833 17.955,200.377 17.071,201.042 16.052 C 201.706 15.032,202.448 13.872,202.689 13.474 C 202.930 13.076,203.874 11.550,204.786 10.083 C 209.116 3.121,210.833 0.301,210.833 0.157 C 210.833 0.059,171.307 0.000,105.417 0.000 C 32.558 0.000,0.000 0.054,0.000 0.173 M221.667 0.099 C 221.667 0.243,227.730 10.088,231.870 16.667 C 232.649 17.904,233.533 19.367,233.835 19.917 C 234.138 20.467,234.477 21.067,234.590 21.250 C 234.703 21.433,235.828 23.271,237.090 25.333 C 238.353 27.396,239.674 29.520,240.026 30.053 C 240.378 30.587,240.667 31.067,240.667 31.121 C 240.667 31.175,240.840 31.451,241.051 31.734 C 241.370 32.161,246.420 40.356,251.333 48.417 C 254.711 53.959,259.419 61.589,260.178 62.750 C 261.156 64.247,266.833 73.460,266.833 73.551 C 266.833 73.583,267.358 74.466,267.999 75.513 C 268.640 76.560,269.296 77.642,269.457 77.917 C 269.732 78.386,269.757 80.036,269.863 104.500 C 269.925 118.846,269.986 130.883,269.998 131.250 C 270.011 131.617,269.970 133.811,269.907 136.127 L 269.793 140.338 272.782 143.387 C 277.601 148.303,277.733 148.489,283.580 158.757 C 293.880 176.844,300.421 192.074,302.151 202.000 C 302.669 204.972,302.671 205.639,302.167 206.019 C 300.688 207.131,291.679 207.788,280.963 207.564 C 276.364 207.468,275.498 207.487,275.441 207.684 C 275.404 207.812,275.285 208.592,275.177 209.417 C 274.593 213.891,273.034 217.704,270.823 220.068 L 269.833 221.126 269.833 225.048 C 269.833 228.499,269.873 229.097,270.165 230.027 C 270.985 232.636,270.988 235.131,270.177 237.647 C 269.884 238.553,269.833 239.138,269.833 241.603 L 269.833 244.496 271.142 245.154 C 275.659 247.425,280.275 251.752,283.412 256.657 C 286.488 261.465,302.971 293.006,305.627 299.167 C 311.255 312.219,309.224 318.771,300.452 315.856 C 297.885 315.003,297.167 314.626,289.917 310.327 C 276.012 302.082,269.815 298.514,269.897 298.799 C 269.942 298.955,270.092 299.796,270.231 300.667 C 272.254 313.326,270.078 320.360,264.266 319.948 C 261.794 319.773,251.828 316.200,241.917 311.935 C 237.976 310.240,238.328 310.286,237.651 311.375 C 235.824 314.312,233.893 317.521,233.564 318.167 C 233.353 318.579,232.770 319.554,232.268 320.333 C 230.045 323.782,221.880 337.019,221.722 337.430 C 221.628 337.675,334.042 337.711,335.167 337.467 C 335.396 337.417,336.108 337.323,336.750 337.258 C 350.143 335.900,362.961 330.404,375.250 320.751 C 376.943 319.421,381.596 314.890,382.675 313.521 C 382.991 313.120,383.693 312.257,384.235 311.604 C 392.555 301.578,398.247 288.504,399.592 276.333 C 399.648 275.829,399.742 275.229,399.802 275.000 C 399.985 274.301,400.012 67.131,399.830 65.167 C 398.530 51.143,393.368 38.444,384.350 27.083 C 383.695 26.258,382.831 25.171,382.430 24.667 C 377.842 18.900,367.606 11.034,359.781 7.262 C 351.578 3.309,343.972 1.108,335.583 0.261 C 333.028 0.003,221.667 -0.156,221.667 0.099 M205.806 30.305 C 196.259 35.101,188.257 53.210,184.753 77.946 C 183.645 85.773,181.328 87.759,175.833 85.594 C 170.759 83.594,168.929 81.226,168.934 76.667 C 168.937 73.395,169.465 71.741,171.102 69.869 C 176.740 63.420,171.643 59.788,157.333 60.057 C 141.874 60.347,130.144 63.648,119.697 70.647 C 106.232 79.667,96.898 95.094,94.423 112.417 C 94.279 113.425,93.903 115.225,93.587 116.417 C 87.215 140.473,90.842 164.110,103.870 183.417 C 107.589 188.927,112.490 194.622,116.434 198.015 C 117.403 198.848,118.454 199.970,119.205 200.971 C 123.561 206.777,133.520 215.163,146.680 224.106 C 151.311 227.252,154.929 231.671,153.800 232.800 C 153.435 233.165,153.140 233.015,150.351 231.048 C 148.829 229.975,142.821 225.753,137.000 221.666 C 131.179 217.580,125.661 213.634,124.737 212.898 C 115.893 205.849,111.483 208.383,111.508 220.500 C 111.517 225.095,111.636 225.904,112.566 227.741 C 115.496 233.526,127.169 244.964,143.700 258.250 C 144.955 259.258,145.909 260.109,145.820 260.140 C 145.137 260.381,138.518 259.051,135.604 258.087 C 127.701 255.473,121.907 250.427,120.630 245.046 L 120.423 244.176 118.753 243.588 C 111.704 241.108,108.989 242.591,110.493 248.103 C 110.801 249.234,112.305 252.924,112.659 253.417 C 112.724 253.508,113.088 254.156,113.467 254.857 L 114.155 256.130 112.203 257.796 C 102.052 266.459,96.431 276.515,95.160 288.287 C 94.797 291.642,95.211 299.360,95.811 300.452 C 95.888 300.590,96.679 300.204,98.336 299.219 C 116.340 288.520,134.632 281.247,149.774 278.766 C 160.475 277.013,171.440 277.332,177.827 279.583 C 178.426 279.795,179.367 280.017,179.917 280.078 C 188.722 281.049,209.797 288.899,235.417 300.750 C 244.190 304.809,254.787 309.941,256.417 310.921 C 260.555 313.408,263.243 313.333,264.576 310.694 C 265.632 308.602,265.577 302.818,264.452 297.756 L 264.083 296.096 257.750 293.286 C 254.267 291.740,246.889 288.495,241.355 286.073 C 230.744 281.431,230.216 281.154,227.762 278.968 C 224.763 276.295,226.703 275.965,233.500 277.994 C 234.371 278.254,235.796 278.668,236.667 278.915 C 240.458 279.987,246.713 282.532,255.833 286.712 C 268.106 292.336,289.469 302.751,292.667 304.669 C 298.386 308.100,301.600 308.452,301.801 305.670 C 301.975 303.257,301.489 302.127,295.383 290.750 C 292.628 285.617,289.344 279.467,288.086 277.083 C 286.828 274.700,284.896 271.071,283.793 269.019 C 282.690 266.967,281.609 264.798,281.392 264.199 C 279.695 259.520,272.502 251.714,261.128 242.208 C 257.665 239.314,257.632 239.272,258.623 239.088 C 260.288 238.779,262.840 236.842,263.688 235.245 C 263.922 234.802,264.280 234.428,264.626 234.263 C 266.956 233.152,265.120 228.213,259.755 221.163 C 258.980 220.144,258.532 219.413,258.607 219.288 C 258.674 219.176,259.202 218.436,259.780 217.645 L 260.831 216.206 262.124 216.091 C 268.945 215.483,272.242 210.743,270.688 203.778 C 270.568 203.244,270.511 202.767,270.560 202.717 C 270.610 202.668,275.247 202.795,280.867 203.000 C 286.486 203.204,291.608 203.337,292.250 203.296 C 295.708 203.070,296.869 200.529,295.107 197.044 C 294.588 196.020,290.178 186.490,286.910 179.333 C 285.508 176.262,282.151 168.987,279.451 163.167 L 274.541 152.583 268.187 146.149 C 264.693 142.610,261.833 139.622,261.833 139.509 C 261.833 139.396,262.336 137.775,262.950 135.907 L 264.067 132.510 263.539 131.797 C 261.515 129.062,253.333 114.053,253.333 113.075 C 253.333 112.665,251.276 107.110,250.271 104.805 C 244.281 91.071,234.356 78.712,223.869 71.929 L 222.667 71.151 222.665 69.117 C 222.661 62.836,221.359 56.528,218.917 50.959 C 218.054 48.992,217.833 48.862,217.833 50.321 C 217.833 54.552,215.215 61.839,212.937 63.949 C 207.715 68.786,204.421 67.667,202.475 60.397 L 201.766 57.750 201.758 54.083 C 201.750 50.271,201.862 49.123,202.614 45.333 C 203.452 41.111,205.086 35.424,206.603 31.450 C 207.331 29.542,207.329 29.540,205.806 30.305 M135.510 88.271 C 134.560 93.412,136.934 99.914,142.166 106.500 C 143.834 108.600,146.974 111.758,147.960 112.326 C 150.543 113.816,160.715 126.855,163.372 132.083 C 163.976 133.272,164.305 142.822,163.784 144.042 C 162.966 145.956,160.920 142.487,158.661 135.354 C 157.544 131.828,155.194 128.047,150.983 123.001 C 148.356 119.854,146.148 117.567,144.865 116.666 C 140.962 113.925,136.454 107.605,133.644 100.936 L 133.231 99.955 132.368 103.019 C 122.358 138.557,127.953 170.513,148.340 194.250 C 152.813 199.458,162.210 207.753,162.945 207.143 C 164.569 205.795,166.075 195.948,166.605 183.208 C 166.667 181.719,166.769 180.500,166.831 180.500 C 167.188 180.500,168.654 186.335,169.113 189.583 C 170.125 196.758,168.732 209.253,166.180 215.888 L 165.998 216.360 164.041 215.336 C 149.518 207.733,134.894 189.144,128.273 169.871 C 125.001 160.346,122.861 149.864,121.765 138.000 C 119.638 114.954,125.528 92.193,134.917 87.184 C 135.717 86.757,135.772 86.857,135.510 88.271 M210.083 88.921 C 212.940 89.512,216.591 90.985,220.198 93.002 C 222.048 94.036,228.000 97.963,228.000 98.149 C 228.000 98.221,227.119 98.107,226.042 97.896 C 220.744 96.857,214.241 96.028,210.333 95.891 L 207.583 95.795 206.613 96.311 C 203.501 97.968,197.788 102.526,195.750 104.979 C 194.734 106.201,194.737 106.200,194.614 105.160 C 194.369 103.095,195.036 98.971,196.009 96.527 C 198.544 90.162,203.401 87.538,210.083 88.921 M219.452 108.006 C 243.271 113.531,252.928 127.533,245.151 145.266 L 244.455 146.852 242.999 147.584 C 237.116 150.538,234.413 149.063,235.404 143.438 C 235.972 140.217,234.288 136.369,230.045 131.195 C 229.865 130.976,229.676 131.009,228.512 131.465 C 225.974 132.458,222.095 133.333,220.228 133.333 L 219.333 133.333 219.333 132.688 C 219.333 130.762,221.078 128.461,224.247 126.207 L 225.642 125.215 220.918 119.649 C 216.706 114.685,216.081 114.018,215.139 113.476 C 210.201 110.636,210.062 108.759,214.727 107.913 C 216.467 107.597,217.800 107.623,219.452 108.006 M135.151 115.575 C 137.474 116.776,140.606 121.416,146.297 132.083 C 150.621 140.189,156.700 151.522,157.702 153.347 L 158.030 153.943 157.155 155.097 C 153.691 159.664,154.077 164.548,158.154 167.747 C 159.127 168.510,159.109 168.409,158.820 171.489 C 158.344 176.576,156.465 177.092,153.929 172.833 C 153.575 172.237,152.971 171.412,152.588 171.000 C 149.991 168.203,149.503 162.535,151.185 154.717 L 151.514 153.184 148.569 147.467 C 146.949 144.323,144.368 139.313,142.833 136.333 C 137.145 125.292,136.108 123.053,134.840 119.083 C 133.842 115.957,133.931 114.945,135.151 115.575 M259.714 147.622 C 261.574 148.498,263.275 149.788,265.773 152.216 L 268.138 154.516 273.881 165.800 C 277.040 172.006,281.362 180.496,283.484 184.667 C 285.607 188.838,287.643 192.813,288.009 193.500 C 290.274 197.753,289.013 199.119,283.477 198.414 C 279.844 197.951,280.000 198.006,280.000 197.187 C 280.000 192.350,274.367 189.116,264.833 188.479 L 262.083 188.295 260.147 189.060 C 252.126 192.232,252.406 189.576,260.996 180.996 C 265.531 176.467,266.216 175.397,264.147 176.074 C 262.496 176.614,257.829 179.156,254.093 181.551 C 247.395 185.844,240.853 187.431,228.917 187.657 C 223.272 187.763,222.110 187.827,221.333 188.074 C 215.201 190.024,212.483 195.781,212.715 206.333 C 212.917 215.554,215.891 227.228,217.293 224.303 C 217.713 223.427,217.859 222.060,217.675 220.737 C 217.090 216.525,218.421 212.743,220.662 212.251 C 221.493 212.069,227.569 213.676,232.679 215.430 C 243.507 219.147,255.955 225.654,257.981 228.654 C 261.621 234.045,258.195 236.201,249.268 234.137 C 246.506 233.499,245.013 234.609,245.004 237.308 C 244.997 239.276,245.309 239.569,251.250 243.168 C 259.561 248.204,261.173 249.491,266.485 255.333 C 272.456 261.901,273.140 264.456,268.400 262.482 C 266.027 261.494,261.064 258.437,257.795 255.949 C 255.482 254.188,255.370 254.414,257.574 256.393 C 259.146 257.804,262.284 261.195,263.462 262.754 C 267.940 268.683,264.835 270.212,254.974 266.936 C 253.953 266.597,253.417 266.476,253.661 266.640 C 257.501 269.224,259.198 271.568,258.173 272.871 C 257.429 273.816,254.445 274.448,251.839 274.212 C 250.602 274.099,250.562 274.218,251.708 274.592 C 259.875 277.258,267.853 281.389,267.639 282.841 C 267.473 283.962,263.543 284.368,260.250 283.605 C 248.552 280.894,222.139 270.272,193.750 256.861 L 190.583 255.365 189.282 253.724 C 175.169 235.932,173.153 213.658,183.742 192.515 C 185.330 189.345,186.879 186.734,188.024 185.298 C 193.352 178.616,194.181 170.970,190.226 164.994 C 189.445 163.813,188.500 159.564,188.469 157.085 C 188.402 151.900,191.521 151.818,197.667 156.842 C 212.138 168.672,231.746 168.508,248.565 156.416 L 249.880 155.470 253.828 156.235 C 255.999 156.656,257.870 157.000,257.986 157.000 C 258.102 157.000,257.860 156.625,257.448 156.167 C 254.325 152.693,253.541 148.682,255.717 147.317 C 256.539 146.801,258.246 146.932,259.714 147.622 M203.789 184.739 C 202.821 185.084,201.398 185.996,200.359 186.937 L 199.417 187.791 199.425 193.020 C 199.445 205.093,201.988 212.875,206.846 215.732 L 207.383 216.048 207.279 215.232 C 206.159 206.383,206.066 195.184,207.087 192.055 C 208.459 187.852,206.603 183.735,203.789 184.739 M251.892 191.719 C 252.510 192.123,252.488 193.006,251.830 194.257 C 251.553 194.784,251.353 195.242,251.386 195.275 C 251.419 195.308,253.990 194.990,257.098 194.568 L 262.750 193.802 265.805 193.994 C 275.530 194.608,276.179 196.047,267.676 198.148 C 264.612 198.906,265.035 198.233,264.157 203.750 C 263.401 208.500,263.421 208.420,263.161 207.731 C 262.213 205.213,254.535 201.509,241.696 197.378 C 239.412 196.643,238.697 196.350,238.862 196.218 C 239.929 195.363,246.088 192.169,247.250 191.867 C 249.622 191.251,251.106 191.203,251.892 191.719 M236.426 200.976 C 240.179 202.337,246.718 204.712,250.957 206.254 L 258.664 209.057 257.541 211.164 C 253.889 218.013,253.067 219.495,252.917 219.497 C 252.825 219.499,248.662 217.770,243.667 215.657 C 238.671 213.543,232.230 210.824,229.355 209.615 L 224.126 207.417 223.465 206.446 C 220.031 201.403,221.666 198.603,228.093 198.520 L 229.602 198.500 236.426 200.976 M390.083 322.265 C 382.621 325.021,382.950 334.705,390.582 336.923 C 393.799 337.859,397.973 335.801,399.250 332.650 C 400.814 328.793,399.254 324.464,395.673 322.723 C 394.190 322.002,391.412 321.774,390.083 322.265 M393.757 323.425 C 400.076 325.071,400.207 333.626,393.942 335.529 C 390.583 336.549,386.672 334.069,386.182 330.607 C 385.530 326.004,389.437 322.300,393.757 323.425 M389.167 329.417 L 389.167 333.833 390.083 333.833 L 391.000 333.833 391.000 332.000 L 391.000 330.167 391.644 330.167 L 392.289 330.167 393.174 332.000 L 394.060 333.833 395.020 333.833 C 396.313 333.833,396.321 333.767,395.261 331.719 L 394.337 329.935 394.794 329.739 C 396.090 329.181,396.605 327.357,395.803 326.167 C 395.198 325.271,394.244 325.016,391.458 325.007 L 389.167 325.000 389.167 329.417 M393.314 326.518 C 395.091 327.138,394.353 328.662,392.208 328.800 L 391.000 328.877 391.000 327.605 L 391.000 326.333 391.892 326.333 C 392.382 326.333,393.022 326.416,393.314 326.518 " stroke="none" fill="#04049c" fill-rule="evenodd"></path><path id="path2" d="M200.909 33.875 L 200.250 34.583 200.958 33.925 C 201.348 33.562,201.667 33.243,201.667 33.216 C 201.667 33.090,201.522 33.216,200.909 33.875 M153.717 54.624 C 154.616 54.654,156.041 54.654,156.884 54.624 C 157.727 54.594,156.992 54.569,155.250 54.569 C 153.508 54.570,152.818 54.594,153.717 54.624 M149.375 54.786 C 149.627 54.824,150.040 54.824,150.292 54.786 C 150.544 54.748,150.337 54.717,149.833 54.717 C 149.329 54.717,149.123 54.748,149.375 54.786 M160.375 54.786 C 160.627 54.824,161.040 54.824,161.292 54.786 C 161.544 54.748,161.337 54.717,160.833 54.717 C 160.329 54.717,160.123 54.748,160.375 54.786 M147.294 54.951 C 147.501 54.991,147.801 54.990,147.960 54.948 C 148.120 54.906,147.950 54.874,147.583 54.875 C 147.217 54.877,147.086 54.911,147.294 54.951 M162.960 54.951 C 163.168 54.991,163.468 54.990,163.627 54.948 C 163.786 54.906,163.617 54.874,163.250 54.875 C 162.883 54.877,162.753 54.911,162.960 54.951 M164.875 55.115 C 165.035 55.157,165.298 55.157,165.458 55.115 C 165.619 55.073,165.487 55.039,165.167 55.039 C 164.846 55.039,164.715 55.073,164.875 55.115 M157.708 59.957 C 158.510 59.988,159.823 59.988,160.625 59.957 C 161.427 59.927,160.771 59.902,159.167 59.902 C 157.563 59.902,156.906 59.927,157.708 59.957 M153.208 60.119 C 153.460 60.158,153.873 60.158,154.125 60.119 C 154.377 60.081,154.171 60.050,153.667 60.050 C 153.162 60.050,152.956 60.081,153.208 60.119 M150.875 60.282 C 151.035 60.323,151.298 60.323,151.458 60.282 C 151.619 60.240,151.487 60.205,151.167 60.205 C 150.846 60.205,150.715 60.240,150.875 60.282 M173.381 65.417 C 173.382 65.875,173.415 66.043,173.453 65.789 C 173.491 65.536,173.490 65.161,173.451 64.956 C 173.411 64.751,173.380 64.958,173.381 65.417 M222.548 65.583 C 222.549 66.042,222.581 66.209,222.620 65.956 C 222.658 65.703,222.657 65.328,222.617 65.123 C 222.578 64.918,222.546 65.125,222.548 65.583 M108.995 71.792 L 107.917 72.917 109.042 71.838 C 109.660 71.245,110.167 70.739,110.167 70.713 C 110.167 70.590,109.997 70.747,108.995 71.792 M106.667 74.083 C 106.262 74.496,105.968 74.833,106.014 74.833 C 106.060 74.833,106.428 74.496,106.833 74.083 C 107.238 73.671,107.532 73.333,107.486 73.333 C 107.440 73.333,107.072 73.671,106.667 74.083 M111.414 77.375 L 109.750 79.083 111.458 77.420 C 112.398 76.505,113.167 75.736,113.167 75.711 C 113.167 75.591,112.959 75.788,111.414 77.375 M232.417 78.833 C 232.775 79.200,233.105 79.500,233.151 79.500 C 233.197 79.500,232.941 79.200,232.583 78.833 C 232.225 78.467,231.895 78.167,231.849 78.167 C 231.803 78.167,232.059 78.467,232.417 78.833 M234.667 81.083 C 234.978 81.404,235.270 81.667,235.315 81.667 C 235.361 81.667,235.144 81.404,234.833 81.083 C 234.522 80.762,234.230 80.500,234.185 80.500 C 234.139 80.500,234.356 80.762,234.667 81.083 M205.963 88.622 C 206.355 88.657,206.955 88.657,207.296 88.621 C 207.637 88.585,207.317 88.557,206.583 88.557 C 205.850 88.558,205.571 88.587,205.963 88.622 M194.542 104.250 C 194.544 104.617,194.578 104.747,194.618 104.540 C 194.658 104.332,194.656 104.032,194.615 103.873 C 194.573 103.714,194.540 103.883,194.542 104.250 M145.583 110.500 C 146.220 111.142,146.779 111.667,146.824 111.667 C 146.870 111.667,146.387 111.142,145.750 110.500 C 145.113 109.858,144.555 109.333,144.509 109.333 C 144.463 109.333,144.947 109.858,145.583 110.500 M211.667 110.885 C 211.667 110.914,211.910 111.158,212.208 111.427 L 212.750 111.917 212.260 111.375 C 211.804 110.870,211.667 110.757,211.667 110.885 M142.160 114.375 C 142.568 114.810,142.925 115.167,142.951 115.167 C 143.077 115.167,142.944 115.017,142.208 114.326 L 141.417 113.583 142.160 114.375 M147.250 118.833 C 147.608 119.200,147.938 119.500,147.984 119.500 C 148.030 119.500,147.775 119.200,147.417 118.833 C 147.059 118.467,146.728 118.167,146.682 118.167 C 146.637 118.167,146.892 118.467,147.250 118.833 M121.705 120.167 C 121.705 120.487,121.740 120.619,121.782 120.458 C 121.823 120.298,121.823 120.035,121.782 119.875 C 121.740 119.715,121.705 119.846,121.705 120.167 M121.542 122.083 C 121.544 122.450,121.578 122.580,121.618 122.373 C 121.658 122.166,121.656 121.866,121.615 121.706 C 121.573 121.547,121.540 121.717,121.542 122.083 M121.381 124.417 C 121.382 124.875,121.415 125.043,121.453 124.789 C 121.491 124.536,121.490 124.161,121.451 123.956 C 121.411 123.751,121.380 123.958,121.381 124.417 M128.039 124.500 C 128.039 124.821,128.073 124.952,128.115 124.792 C 128.157 124.631,128.157 124.369,128.115 124.208 C 128.073 124.048,128.039 124.179,128.039 124.500 M127.875 126.083 C 127.877 126.450,127.911 126.580,127.951 126.373 C 127.991 126.166,127.990 125.866,127.948 125.706 C 127.906 125.547,127.874 125.717,127.875 126.083 M121.228 128.333 C 121.228 129.296,121.256 129.690,121.290 129.208 C 121.323 128.727,121.323 127.940,121.290 127.458 C 121.256 126.977,121.228 127.371,121.228 128.333 M127.709 128.083 C 127.711 128.450,127.745 128.580,127.785 128.373 C 127.824 128.166,127.823 127.866,127.781 127.706 C 127.739 127.547,127.707 127.717,127.709 128.083 M127.552 130.583 C 127.553 131.133,127.584 131.338,127.621 131.039 C 127.658 130.739,127.657 130.289,127.619 130.039 C 127.581 129.788,127.551 130.033,127.552 130.583 M121.383 132.667 C 121.383 133.171,121.415 133.377,121.453 133.125 C 121.491 132.873,121.491 132.460,121.453 132.208 C 121.415 131.956,121.383 132.162,121.383 132.667 M247.717 133.667 C 247.717 134.171,247.748 134.377,247.786 134.125 C 247.824 133.873,247.824 133.460,247.786 133.208 C 247.748 132.956,247.717 133.162,247.717 133.667 M127.401 136.250 C 127.401 137.717,127.427 138.294,127.457 137.534 C 127.488 136.773,127.488 135.573,127.457 134.867 C 127.426 134.161,127.401 134.783,127.401 136.250 M90.542 134.750 C 90.544 135.117,90.578 135.247,90.618 135.040 C 90.658 134.832,90.656 134.532,90.615 134.373 C 90.573 134.214,90.540 134.383,90.542 134.750 M121.548 135.250 C 121.549 135.708,121.581 135.876,121.620 135.623 C 121.658 135.369,121.657 134.994,121.617 134.789 C 121.578 134.584,121.546 134.792,121.548 135.250 M121.705 137.333 C 121.705 137.654,121.740 137.785,121.782 137.625 C 121.823 137.465,121.823 137.202,121.782 137.042 C 121.740 136.881,121.705 137.012,121.705 137.333 M121.872 139.167 C 121.872 139.487,121.906 139.619,121.948 139.458 C 121.990 139.298,121.990 139.035,121.948 138.875 C 121.906 138.715,121.872 138.846,121.872 139.167 M90.383 139.667 C 90.383 140.171,90.415 140.377,90.453 140.125 C 90.491 139.873,90.491 139.460,90.453 139.208 C 90.415 138.956,90.383 139.162,90.383 139.667 M164.053 140.667 C 164.053 141.262,164.084 141.506,164.121 141.208 C 164.158 140.910,164.158 140.423,164.121 140.125 C 164.084 139.827,164.053 140.071,164.053 140.667 M270.660 141.375 C 271.350 142.111,271.500 142.243,271.500 142.118 C 271.500 142.091,271.144 141.735,270.708 141.326 L 269.917 140.583 270.660 141.375 M127.552 141.750 C 127.553 142.300,127.584 142.505,127.621 142.205 C 127.658 141.906,127.657 141.456,127.619 141.205 C 127.581 140.955,127.551 141.200,127.552 141.750 M90.545 144.167 C 90.545 144.579,90.578 144.748,90.618 144.542 C 90.657 144.335,90.657 143.998,90.618 143.792 C 90.578 143.585,90.545 143.754,90.545 144.167 M127.709 144.250 C 127.711 144.617,127.745 144.747,127.785 144.540 C 127.824 144.332,127.823 144.032,127.781 143.873 C 127.739 143.714,127.707 143.883,127.709 144.250 M274.160 144.875 C 274.850 145.611,275.000 145.743,275.000 145.618 C 275.000 145.591,274.644 145.235,274.208 144.826 L 273.417 144.083 274.160 144.875 M128.039 147.667 C 128.039 147.987,128.073 148.119,128.115 147.958 C 128.157 147.798,128.157 147.535,128.115 147.375 C 128.073 147.215,128.039 147.346,128.039 147.667 M273.750 151.833 C 274.201 152.292,274.608 152.667,274.654 152.667 C 274.700 152.667,274.368 152.292,273.917 151.833 C 273.465 151.375,273.058 151.000,273.013 151.000 C 272.967 151.000,273.299 151.375,273.750 151.833 M150.205 164.000 C 150.205 164.321,150.240 164.452,150.282 164.292 C 150.323 164.131,150.323 163.869,150.282 163.708 C 150.240 163.548,150.205 163.679,150.205 164.000 M218.294 165.618 C 218.501 165.658,218.801 165.656,218.960 165.615 C 219.120 165.573,218.950 165.540,218.583 165.542 C 218.217 165.544,218.086 165.578,218.294 165.618 M224.125 165.618 C 224.331 165.657,224.669 165.657,224.875 165.618 C 225.081 165.578,224.912 165.545,224.500 165.545 C 224.088 165.545,223.919 165.578,224.125 165.618 M158.831 169.299 L 158.912 170.417 158.965 169.434 C 158.994 168.894,158.958 168.391,158.884 168.317 C 158.810 168.243,158.787 168.685,158.831 169.299 M192.725 173.333 C 192.725 174.112,192.754 174.431,192.789 174.042 C 192.824 173.652,192.824 173.015,192.789 172.625 C 192.754 172.235,192.725 172.554,192.725 173.333 M259.747 182.208 L 257.917 184.083 259.792 182.253 C 261.533 180.553,261.742 180.333,261.622 180.333 C 261.598 180.333,260.754 181.177,259.747 182.208 M235.127 187.451 C 235.334 187.491,235.634 187.490,235.794 187.448 C 235.953 187.406,235.783 187.374,235.417 187.375 C 235.050 187.377,234.920 187.411,235.127 187.451 M224.375 187.623 C 224.810 187.657,225.523 187.657,225.958 187.623 C 226.394 187.588,226.037 187.560,225.167 187.560 C 224.296 187.560,223.940 187.588,224.375 187.623 M232.628 187.621 C 232.928 187.658,233.378 187.657,233.628 187.619 C 233.878 187.581,233.633 187.551,233.083 187.552 C 232.533 187.553,232.328 187.584,232.628 187.621 M264.544 188.453 C 264.797 188.491,265.172 188.490,265.377 188.451 C 265.582 188.411,265.375 188.380,264.917 188.381 C 264.458 188.382,264.291 188.415,264.544 188.453 M266.708 188.615 C 266.869 188.657,267.131 188.657,267.292 188.615 C 267.452 188.573,267.321 188.539,267.000 188.539 C 266.679 188.539,266.548 188.573,266.708 188.615 M110.667 192.385 C 110.667 192.414,110.910 192.658,111.208 192.927 L 111.750 193.417 111.260 192.875 C 110.804 192.370,110.667 192.257,110.667 192.385 M169.372 193.500 C 169.372 193.821,169.406 193.952,169.448 193.792 C 169.490 193.631,169.490 193.369,169.448 193.208 C 169.406 193.048,169.372 193.179,169.372 193.500 M263.875 193.948 C 264.035 193.990,264.298 193.990,264.458 193.948 C 264.619 193.906,264.487 193.872,264.167 193.872 C 263.846 193.872,263.715 193.906,263.875 193.948 M206.539 194.667 C 206.539 194.987,206.573 195.119,206.615 194.958 C 206.657 194.798,206.657 194.535,206.615 194.375 C 206.573 194.215,206.539 194.346,206.539 194.667 M113.583 195.500 C 114.128 196.050,114.610 196.500,114.656 196.500 C 114.702 196.500,114.294 196.050,113.750 195.500 C 113.206 194.950,112.723 194.500,112.677 194.500 C 112.631 194.500,113.039 194.950,113.583 195.500 M149.833 196.052 C 149.833 196.081,150.077 196.325,150.375 196.594 L 150.917 197.083 150.427 196.542 C 149.971 196.037,149.833 195.923,149.833 196.052 M206.405 199.833 C 206.405 201.896,206.429 202.740,206.458 201.708 C 206.487 200.677,206.487 198.990,206.458 197.958 C 206.429 196.927,206.405 197.771,206.405 199.833 M169.375 198.417 C 169.377 198.783,169.411 198.914,169.451 198.706 C 169.491 198.499,169.490 198.199,169.448 198.040 C 169.406 197.880,169.374 198.050,169.375 198.417 M227.292 198.623 C 227.773 198.657,228.560 198.657,229.042 198.623 C 229.523 198.589,229.129 198.562,228.167 198.562 C 227.204 198.562,226.810 198.589,227.292 198.623 M154.493 200.708 C 155.184 201.444,155.333 201.577,155.333 201.451 C 155.333 201.425,154.977 201.068,154.542 200.660 L 153.750 199.917 154.493 200.708 M221.717 202.167 C 221.717 202.671,221.748 202.877,221.786 202.625 C 221.824 202.373,221.824 201.960,221.786 201.708 C 221.748 201.456,221.717 201.662,221.717 202.167 M272.708 202.786 C 272.960 202.824,273.373 202.824,273.625 202.786 C 273.877 202.748,273.671 202.717,273.167 202.717 C 272.662 202.717,272.456 202.748,272.708 202.786 M277.377 202.953 C 277.631 202.991,278.006 202.990,278.211 202.951 C 278.416 202.911,278.208 202.880,277.750 202.881 C 277.292 202.882,277.124 202.915,277.377 202.953 M281.875 203.119 C 282.127 203.158,282.540 203.158,282.792 203.119 C 283.044 203.081,282.837 203.050,282.333 203.050 C 281.829 203.050,281.623 203.081,281.875 203.119 M108.372 203.667 C 108.372 203.987,108.406 204.119,108.448 203.958 C 108.490 203.798,108.490 203.535,108.448 203.375 C 108.406 203.215,108.372 203.346,108.372 203.667 M212.565 205.250 C 212.565 206.442,212.592 206.907,212.624 206.285 C 212.656 205.662,212.656 204.687,212.623 204.118 C 212.591 203.549,212.564 204.058,212.565 205.250 M286.542 203.286 C 286.794 203.324,287.206 203.324,287.458 203.286 C 287.710 203.248,287.504 203.217,287.000 203.217 C 286.496 203.217,286.290 203.248,286.542 203.286 M149.667 204.417 C 150.257 205.012,150.778 205.500,150.824 205.500 C 150.870 205.500,150.424 205.012,149.833 204.417 C 149.243 203.821,148.722 203.333,148.676 203.333 C 148.630 203.333,149.076 203.821,149.667 204.417 M291.128 203.454 C 291.428 203.491,291.878 203.490,292.128 203.452 C 292.378 203.414,292.133 203.384,291.583 203.385 C 291.033 203.386,290.828 203.417,291.128 203.454 M123.583 206.000 C 124.680 207.100,125.616 208.000,125.661 208.000 C 125.707 208.000,124.847 207.100,123.750 206.000 C 122.653 204.900,121.718 204.000,121.672 204.000 C 121.626 204.000,122.486 204.900,123.583 206.000 M206.552 205.917 C 206.553 206.467,206.584 206.672,206.621 206.372 C 206.658 206.072,206.657 205.622,206.619 205.372 C 206.581 205.122,206.551 205.367,206.552 205.917 M283.467 207.624 C 284.412 207.654,285.912 207.654,286.801 207.624 C 287.689 207.594,286.917 207.570,285.083 207.570 C 283.250 207.570,282.523 207.595,283.467 207.624 M206.714 208.583 C 206.716 209.042,206.748 209.209,206.786 208.956 C 206.825 208.703,206.824 208.328,206.784 208.123 C 206.744 207.918,206.713 208.125,206.714 208.583 M212.705 209.333 C 212.705 209.654,212.740 209.785,212.782 209.625 C 212.823 209.465,212.823 209.202,212.782 209.042 C 212.740 208.881,212.705 209.012,212.705 209.333 M206.875 210.750 C 206.877 211.117,206.911 211.247,206.951 211.040 C 206.991 210.832,206.990 210.532,206.948 210.373 C 206.906 210.214,206.874 210.383,206.875 210.750 M207.042 212.750 C 207.044 213.117,207.078 213.247,207.118 213.040 C 207.158 212.832,207.156 212.532,207.115 212.373 C 207.073 212.214,207.040 212.383,207.042 212.750 M262.375 216.115 C 262.535 216.157,262.798 216.157,262.958 216.115 C 263.119 216.073,262.987 216.039,262.667 216.039 C 262.346 216.039,262.215 216.073,262.375 216.115 M177.045 217.000 C 177.045 217.412,177.078 217.581,177.118 217.375 C 177.157 217.169,177.157 216.831,177.118 216.625 C 177.078 216.419,177.045 216.588,177.045 217.000 M103.548 217.417 C 103.549 217.875,103.581 218.043,103.620 217.789 C 103.658 217.536,103.657 217.161,103.617 216.956 C 103.578 216.751,103.546 216.958,103.548 217.417 M111.402 220.417 C 111.401 221.975,111.426 222.635,111.457 221.883 C 111.488 221.131,111.488 219.856,111.458 219.050 C 111.427 218.243,111.402 218.858,111.402 220.417 M103.545 219.667 C 103.545 220.079,103.578 220.248,103.618 220.042 C 103.657 219.835,103.657 219.498,103.618 219.292 C 103.578 219.085,103.545 219.254,103.545 219.667 M177.042 222.417 C 177.044 222.783,177.078 222.914,177.118 222.706 C 177.158 222.499,177.156 222.199,177.115 222.040 C 177.073 221.880,177.040 222.050,177.042 222.417 M111.539 224.667 C 111.539 224.987,111.573 225.119,111.615 224.958 C 111.657 224.798,111.657 224.535,111.615 224.375 C 111.573 224.215,111.539 224.346,111.539 224.667 M252.875 234.782 C 253.035 234.823,253.298 234.823,253.458 234.782 C 253.619 234.740,253.487 234.705,253.167 234.705 C 252.846 234.705,252.715 234.740,252.875 234.782 M119.417 236.667 C 119.775 237.033,120.105 237.333,120.151 237.333 C 120.197 237.333,119.941 237.033,119.583 236.667 C 119.225 236.300,118.895 236.000,118.849 236.000 C 118.803 236.000,119.059 236.300,119.417 236.667 M244.883 237.333 C 244.883 237.838,244.915 238.044,244.953 237.792 C 244.991 237.540,244.991 237.127,244.953 236.875 C 244.915 236.623,244.883 236.829,244.883 237.333 M124.326 241.542 C 124.735 241.977,125.091 242.333,125.118 242.333 C 125.243 242.333,125.111 242.184,124.375 241.493 L 123.583 240.750 124.326 241.542 M127.000 244.083 C 127.311 244.404,127.603 244.667,127.649 244.667 C 127.695 244.667,127.478 244.404,127.167 244.083 C 126.856 243.762,126.564 243.500,126.518 243.500 C 126.472 243.500,126.689 243.762,127.000 244.083 M110.055 245.583 C 110.055 246.225,110.086 246.467,110.122 246.121 C 110.158 245.775,110.157 245.250,110.120 244.955 C 110.083 244.659,110.054 244.942,110.055 245.583 M128.333 245.219 C 128.333 245.248,128.577 245.491,128.875 245.760 L 129.417 246.250 128.927 245.708 C 128.471 245.203,128.333 245.090,128.333 245.219 M99.052 246.750 C 99.053 247.300,99.084 247.505,99.121 247.205 C 99.158 246.906,99.157 246.456,99.119 246.205 C 99.081 245.955,99.051 246.200,99.052 246.750 M271.083 251.167 C 271.997 252.083,272.781 252.833,272.827 252.833 C 272.873 252.833,272.163 252.083,271.250 251.167 C 270.337 250.250,269.552 249.500,269.506 249.500 C 269.460 249.500,270.170 250.250,271.083 251.167 M262.750 251.500 C 263.387 252.142,263.945 252.667,263.991 252.667 C 264.037 252.667,263.553 252.142,262.917 251.500 C 262.280 250.858,261.721 250.333,261.676 250.333 C 261.630 250.333,262.113 250.858,262.750 251.500 M273.917 254.000 C 274.461 254.550,274.944 255.000,274.990 255.000 C 275.035 255.000,274.628 254.550,274.083 254.000 C 273.539 253.450,273.056 253.000,273.010 253.000 C 272.965 253.000,273.372 253.450,273.917 254.000 M258.917 257.833 C 259.830 258.750,260.615 259.500,260.660 259.500 C 260.706 259.500,259.997 258.750,259.083 257.833 C 258.170 256.917,257.385 256.167,257.340 256.167 C 257.294 256.167,258.003 256.917,258.917 257.833 M108.497 261.125 L 106.917 262.750 108.542 261.170 C 109.435 260.301,110.167 259.570,110.167 259.545 C 110.167 259.424,109.964 259.616,108.497 261.125 M262.121 268.620 C 262.417 268.657,262.942 268.658,263.288 268.622 C 263.634 268.586,263.392 268.555,262.750 268.555 C 262.108 268.554,261.825 268.583,262.121 268.620 M252.542 274.282 C 252.702 274.323,252.965 274.323,253.125 274.282 C 253.285 274.240,253.154 274.205,252.833 274.205 C 252.512 274.205,252.381 274.240,252.542 274.282 M158.711 277.786 C 158.964 277.825,159.339 277.824,159.544 277.784 C 159.749 277.744,159.542 277.713,159.083 277.714 C 158.625 277.716,158.457 277.748,158.711 277.786 M166.711 277.786 C 166.964 277.825,167.339 277.824,167.544 277.784 C 167.749 277.744,167.542 277.713,167.083 277.714 C 166.625 277.716,166.457 277.748,166.711 277.786 M156.460 277.951 C 156.668 277.991,156.968 277.990,157.127 277.948 C 157.286 277.906,157.117 277.874,156.750 277.875 C 156.383 277.877,156.253 277.911,156.460 277.951 M157.551 282.958 C 158.541 282.987,160.116 282.987,161.051 282.958 C 161.985 282.928,161.175 282.904,159.250 282.904 C 157.325 282.904,156.560 282.928,157.551 282.958 M153.960 283.118 C 154.168 283.158,154.468 283.156,154.627 283.115 C 154.786 283.073,154.617 283.040,154.250 283.042 C 153.883 283.044,153.753 283.078,153.960 283.118 M164.044 283.120 C 164.297 283.158,164.672 283.157,164.877 283.117 C 165.082 283.078,164.875 283.046,164.417 283.048 C 163.958 283.049,163.791 283.081,164.044 283.120 M166.208 283.282 C 166.369 283.323,166.631 283.323,166.792 283.282 C 166.952 283.240,166.821 283.205,166.500 283.205 C 166.179 283.205,166.048 283.240,166.208 283.282 M262.375 283.948 C 262.535 283.990,262.798 283.990,262.958 283.948 C 263.119 283.906,262.987 283.872,262.667 283.872 C 262.346 283.872,262.215 283.906,262.375 283.948 M94.900 292.500 C 94.900 293.829,94.925 294.373,94.957 293.708 C 94.989 293.044,94.989 291.956,94.957 291.292 C 94.925 290.627,94.900 291.171,94.900 292.500 M86.548 294.583 C 86.549 295.042,86.581 295.209,86.620 294.956 C 86.658 294.703,86.657 294.328,86.617 294.123 C 86.578 293.918,86.546 294.125,86.548 294.583 M95.039 296.333 C 95.039 296.654,95.073 296.785,95.115 296.625 C 95.157 296.465,95.157 296.202,95.115 296.042 C 95.073 295.881,95.039 296.012,95.039 296.333 M86.542 300.583 C 86.544 300.950,86.578 301.080,86.618 300.873 C 86.658 300.666,86.656 300.366,86.615 300.206 C 86.573 300.047,86.540 300.217,86.542 300.583 M265.389 305.667 C 265.389 306.354,265.419 306.635,265.455 306.292 C 265.491 305.948,265.491 305.385,265.455 305.042 C 265.419 304.698,265.389 304.979,265.389 305.667 M301.872 305.333 C 301.872 305.654,301.906 305.785,301.948 305.625 C 301.990 305.465,301.990 305.202,301.948 305.042 C 301.906 304.881,301.872 305.012,301.872 305.333 M270.897 308.917 C 270.897 310.017,270.924 310.445,270.957 309.868 C 270.990 309.292,270.989 308.392,270.956 307.868 C 270.923 307.345,270.897 307.817,270.897 308.917 M308.725 311.167 C 308.725 311.946,308.754 312.265,308.789 311.875 C 308.824 311.485,308.824 310.848,308.789 310.458 C 308.754 310.069,308.725 310.387,308.725 311.167 " stroke="none" fill="#5a5ac0" fill-rule="evenodd"></path><path id="path3" d="M222.709 67.917 C 222.711 68.283,222.745 68.414,222.785 68.206 C 222.824 67.999,222.823 67.699,222.781 67.540 C 222.739 67.380,222.707 67.550,222.709 67.917 M222.709 69.417 C 222.711 69.783,222.745 69.914,222.785 69.706 C 222.824 69.499,222.823 69.199,222.781 69.040 C 222.739 68.880,222.707 69.050,222.709 69.417 M135.833 116.219 C 135.833 116.248,136.077 116.491,136.375 116.760 L 136.917 117.250 136.427 116.708 C 135.971 116.203,135.833 116.090,135.833 116.219 M90.379 138.167 C 90.379 138.579,90.411 138.748,90.451 138.542 C 90.491 138.335,90.491 137.998,90.451 137.792 C 90.411 137.585,90.379 137.754,90.379 138.167 M90.372 141.000 C 90.372 141.321,90.406 141.452,90.448 141.292 C 90.490 141.131,90.490 140.869,90.448 140.708 C 90.406 140.548,90.372 140.679,90.372 141.000 M272.417 143.167 C 272.961 143.717,273.444 144.167,273.490 144.167 C 273.535 144.167,273.128 143.717,272.583 143.167 C 272.039 142.617,271.556 142.167,271.510 142.167 C 271.465 142.167,271.872 142.617,272.417 143.167 M150.209 162.917 C 150.211 163.283,150.245 163.414,150.285 163.206 C 150.324 162.999,150.323 162.699,150.281 162.540 C 150.239 162.380,150.207 162.550,150.209 162.917 M107.872 233.167 C 107.872 233.487,107.906 233.619,107.948 233.458 C 107.990 233.298,107.990 233.035,107.948 232.875 C 107.906 232.715,107.872 232.846,107.872 233.167 M270.709 233.917 C 270.711 234.283,270.745 234.414,270.785 234.206 C 270.824 233.999,270.823 233.699,270.781 233.540 C 270.739 233.380,270.707 233.550,270.709 233.917 " stroke="none" fill="#7c7ccc" fill-rule="evenodd"></path><path id="path4" d="M151.461 54.787 C 151.761 54.825,152.211 54.824,152.461 54.786 C 152.712 54.748,152.467 54.717,151.917 54.718 C 151.367 54.719,151.162 54.750,151.461 54.787 M158.128 54.787 C 158.428 54.825,158.878 54.824,159.128 54.786 C 159.378 54.748,159.133 54.717,158.583 54.718 C 158.033 54.719,157.828 54.750,158.128 54.787 M148.542 54.948 C 148.702 54.990,148.965 54.990,149.125 54.948 C 149.285 54.906,149.154 54.872,148.833 54.872 C 148.512 54.872,148.381 54.906,148.542 54.948 M161.542 54.948 C 161.702 54.990,161.965 54.990,162.125 54.948 C 162.285 54.906,162.154 54.872,161.833 54.872 C 161.512 54.872,161.381 54.906,161.542 54.948 M154.960 59.951 C 155.168 59.991,155.468 59.990,155.627 59.948 C 155.786 59.906,155.617 59.874,155.250 59.875 C 154.883 59.877,154.753 59.911,154.960 59.951 M222.712 66.667 C 222.712 67.079,222.745 67.248,222.784 67.042 C 222.824 66.835,222.824 66.498,222.784 66.292 C 222.745 66.085,222.712 66.254,222.712 66.667 M170.667 70.417 C 170.262 70.829,169.968 71.167,170.014 71.167 C 170.060 71.167,170.428 70.829,170.833 70.417 C 171.238 70.004,171.532 69.667,171.486 69.667 C 171.440 69.667,171.072 70.004,170.667 70.417 M222.705 70.500 C 222.705 70.821,222.740 70.952,222.782 70.792 C 222.823 70.631,222.823 70.369,222.782 70.208 C 222.740 70.048,222.705 70.179,222.705 70.500 M110.073 70.875 L 109.583 71.417 110.125 70.927 C 110.423 70.658,110.667 70.414,110.667 70.385 C 110.667 70.257,110.529 70.370,110.073 70.875 M106.158 74.792 L 105.583 75.417 106.208 74.842 C 106.790 74.308,106.910 74.167,106.783 74.167 C 106.755 74.167,106.474 74.448,106.158 74.792 M111.324 77.292 L 110.750 77.917 111.375 77.342 C 111.957 76.808,112.077 76.667,111.949 76.667 C 111.922 76.667,111.640 76.948,111.324 77.292 M178.711 86.286 C 178.964 86.325,179.339 86.324,179.544 86.284 C 179.749 86.244,179.542 86.213,179.083 86.214 C 178.625 86.216,178.457 86.248,178.711 86.286 M207.708 88.782 C 207.869 88.823,208.131 88.823,208.292 88.782 C 208.452 88.740,208.321 88.705,208.000 88.705 C 207.679 88.705,207.548 88.740,207.708 88.782 M131.906 89.542 L 131.417 90.083 131.958 89.594 C 132.463 89.138,132.577 89.000,132.448 89.000 C 132.419 89.000,132.175 89.244,131.906 89.542 M135.221 90.583 C 135.222 91.225,135.252 91.467,135.288 91.121 C 135.324 90.775,135.324 90.250,135.287 89.955 C 135.250 89.659,135.221 89.942,135.221 90.583 M199.073 91.708 L 198.583 92.250 199.125 91.760 C 199.630 91.304,199.743 91.167,199.615 91.167 C 199.586 91.167,199.342 91.410,199.073 91.708 M208.708 95.788 C 209.052 95.824,209.615 95.824,209.958 95.788 C 210.302 95.752,210.021 95.723,209.333 95.723 C 208.646 95.723,208.365 95.752,208.708 95.788 M194.709 102.750 C 194.711 103.117,194.745 103.247,194.785 103.040 C 194.824 102.832,194.823 102.532,194.781 102.373 C 194.739 102.214,194.707 102.383,194.709 102.750 M196.662 103.792 L 195.583 104.917 196.708 103.838 C 197.327 103.245,197.833 102.739,197.833 102.713 C 197.833 102.590,197.664 102.747,196.662 103.792 M194.686 105.458 C 194.665 105.857,194.901 105.961,195.099 105.641 C 195.170 105.527,195.145 105.494,195.038 105.560 C 194.939 105.621,194.824 105.539,194.782 105.377 C 194.724 105.154,194.701 105.173,194.686 105.458 M217.208 107.782 C 217.369 107.823,217.631 107.823,217.792 107.782 C 217.952 107.740,217.821 107.705,217.500 107.705 C 217.179 107.705,217.048 107.740,217.208 107.782 M142.250 114.333 C 142.887 114.975,143.445 115.500,143.491 115.500 C 143.537 115.500,143.053 114.975,142.417 114.333 C 141.780 113.692,141.221 113.167,141.176 113.167 C 141.130 113.167,141.613 113.692,142.250 114.333 M146.493 117.875 C 147.184 118.611,147.333 118.743,147.333 118.618 C 147.333 118.591,146.977 118.235,146.542 117.826 L 145.750 117.083 146.493 117.875 M121.375 126.083 C 121.377 126.450,121.411 126.580,121.451 126.373 C 121.491 126.166,121.490 125.866,121.448 125.706 C 121.406 125.547,121.374 125.717,121.375 126.083 M121.379 130.833 C 121.379 131.246,121.411 131.415,121.451 131.208 C 121.491 131.002,121.491 130.665,121.451 130.458 C 121.411 130.252,121.379 130.421,121.379 130.833 M127.383 132.167 C 127.383 132.671,127.415 132.877,127.453 132.625 C 127.491 132.373,127.491 131.960,127.453 131.708 C 127.415 131.456,127.383 131.662,127.383 132.167 M90.542 133.250 C 90.544 133.617,90.578 133.747,90.618 133.540 C 90.658 133.332,90.656 133.032,90.615 132.873 C 90.573 132.714,90.540 132.883,90.542 133.250 M90.389 136.333 C 90.389 137.021,90.419 137.302,90.455 136.958 C 90.491 136.615,90.491 136.052,90.455 135.708 C 90.419 135.365,90.389 135.646,90.389 136.333 M127.381 140.417 C 127.382 140.875,127.415 141.043,127.453 140.789 C 127.491 140.536,127.490 140.161,127.451 139.956 C 127.411 139.751,127.380 139.958,127.381 140.417 M264.083 142.000 C 265.364 143.283,266.450 144.333,266.496 144.333 C 266.541 144.333,265.531 143.283,264.250 142.000 C 262.969 140.717,261.884 139.667,261.838 139.667 C 261.792 139.667,262.802 140.717,264.083 142.000 M84.205 141.333 C 84.205 141.654,84.240 141.785,84.282 141.625 C 84.323 141.465,84.323 141.202,84.282 141.042 C 84.240 140.881,84.205 141.012,84.205 141.333 M90.389 142.667 C 90.389 143.354,90.419 143.635,90.455 143.292 C 90.491 142.948,90.491 142.385,90.455 142.042 C 90.419 141.698,90.389 141.979,90.389 142.667 M270.667 148.583 C 272.819 150.737,274.618 152.500,274.664 152.500 C 274.710 152.500,272.986 150.737,270.833 148.583 C 268.681 146.429,266.882 144.667,266.836 144.667 C 266.790 144.667,268.514 146.429,270.667 148.583 M235.209 145.417 C 235.211 145.783,235.245 145.914,235.285 145.706 C 235.324 145.499,235.323 145.199,235.281 145.040 C 235.239 144.880,235.207 145.050,235.209 145.417 M90.542 145.750 C 90.544 146.117,90.578 146.247,90.618 146.040 C 90.658 145.832,90.656 145.532,90.615 145.373 C 90.573 145.214,90.540 145.383,90.542 145.750 M274.500 145.385 C 274.500 145.414,274.744 145.658,275.042 145.927 L 275.583 146.417 275.094 145.875 C 274.638 145.370,274.500 145.257,274.500 145.385 M266.083 152.667 C 266.720 153.308,267.279 153.833,267.324 153.833 C 267.370 153.833,266.887 153.308,266.250 152.667 C 265.613 152.025,265.055 151.500,265.009 151.500 C 264.963 151.500,265.447 152.025,266.083 152.667 M190.542 153.282 C 190.702 153.323,190.965 153.323,191.125 153.282 C 191.285 153.240,191.154 153.205,190.833 153.205 C 190.512 153.205,190.381 153.240,190.542 153.282 M188.542 157.417 C 188.544 157.783,188.578 157.914,188.618 157.706 C 188.658 157.499,188.656 157.199,188.615 157.040 C 188.573 156.880,188.540 157.050,188.542 157.417 M219.460 165.785 C 219.668 165.824,219.968 165.823,220.127 165.781 C 220.286 165.739,220.117 165.707,219.750 165.709 C 219.383 165.711,219.253 165.745,219.460 165.785 M223.127 165.785 C 223.334 165.824,223.634 165.823,223.794 165.781 C 223.953 165.739,223.783 165.707,223.417 165.709 C 223.050 165.711,222.920 165.745,223.127 165.785 M157.326 167.208 C 157.735 167.644,158.091 168.000,158.118 168.000 C 158.243 168.000,158.111 167.850,157.375 167.160 L 156.583 166.417 157.326 167.208 M158.714 170.583 C 158.716 171.042,158.748 171.209,158.786 170.956 C 158.825 170.703,158.824 170.328,158.784 170.123 C 158.744 169.918,158.713 170.125,158.714 170.583 M262.495 179.625 L 261.417 180.750 262.542 179.671 C 263.587 178.670,263.743 178.500,263.620 178.500 C 263.595 178.500,263.088 179.006,262.495 179.625 M166.705 181.833 C 166.705 182.154,166.740 182.285,166.782 182.125 C 166.823 181.965,166.823 181.702,166.782 181.542 C 166.740 181.381,166.705 181.512,166.705 181.833 M258.158 183.958 L 257.583 184.583 258.208 184.009 C 258.552 183.693,258.833 183.412,258.833 183.384 C 258.833 183.257,258.692 183.377,258.158 183.958 M204.458 184.451 C 204.665 184.491,205.002 184.491,205.208 184.451 C 205.415 184.411,205.246 184.379,204.833 184.379 C 204.421 184.379,204.252 184.411,204.458 184.451 M228.383 187.624 C 229.097 187.655,230.222 187.655,230.883 187.624 C 231.543 187.592,230.958 187.566,229.583 187.567 C 228.208 187.567,227.668 187.593,228.383 187.624 M262.375 188.288 C 262.719 188.324,263.281 188.324,263.625 188.288 C 263.969 188.252,263.688 188.223,263.000 188.223 C 262.313 188.223,262.031 188.252,262.375 188.288 M207.559 189.750 C 207.559 190.575,207.587 190.934,207.622 190.547 C 207.657 190.160,207.657 189.485,207.623 189.047 C 207.588 188.609,207.560 188.925,207.559 189.750 M250.042 191.448 C 250.202 191.490,250.465 191.490,250.625 191.448 C 250.785 191.406,250.654 191.372,250.333 191.372 C 250.012 191.372,249.881 191.406,250.042 191.448 M277.833 192.583 C 278.144 192.904,278.436 193.167,278.482 193.167 C 278.528 193.167,278.311 192.904,278.000 192.583 C 277.689 192.262,277.397 192.000,277.351 192.000 C 277.305 192.000,277.522 192.262,277.833 192.583 M199.209 193.250 C 199.211 193.617,199.245 193.747,199.285 193.540 C 199.324 193.332,199.323 193.032,199.281 192.873 C 199.239 192.714,199.207 192.883,199.209 193.250 M262.542 193.948 C 262.702 193.990,262.965 193.990,263.125 193.948 C 263.285 193.906,263.154 193.872,262.833 193.872 C 262.512 193.872,262.381 193.906,262.542 193.948 M169.392 195.917 C 169.392 196.742,169.420 197.100,169.455 196.713 C 169.490 196.327,169.490 195.652,169.456 195.213 C 169.422 194.775,169.393 195.092,169.392 195.917 M152.667 199.083 C 153.718 200.137,154.615 201.000,154.661 201.000 C 154.707 201.000,153.885 200.137,152.833 199.083 C 151.782 198.029,150.885 197.167,150.839 197.167 C 150.793 197.167,151.615 198.029,152.667 199.083 M155.500 201.719 C 155.500 201.748,155.744 201.991,156.042 202.260 L 156.583 202.750 156.094 202.208 C 155.638 201.703,155.500 201.590,155.500 201.719 M148.333 202.917 C 148.644 203.237,148.936 203.500,148.982 203.500 C 149.028 203.500,148.811 203.237,148.500 202.917 C 148.189 202.596,147.897 202.333,147.851 202.333 C 147.805 202.333,148.022 202.596,148.333 202.917 M270.605 202.799 C 270.560 202.871,270.781 202.900,271.095 202.864 C 271.409 202.827,271.667 202.768,271.667 202.732 C 271.667 202.606,270.686 202.668,270.605 202.799 M274.463 202.956 C 274.855 202.991,275.455 202.990,275.796 202.954 C 276.137 202.919,275.817 202.890,275.083 202.890 C 274.350 202.891,274.071 202.920,274.463 202.956 M206.548 203.750 C 206.549 204.208,206.581 204.376,206.620 204.123 C 206.658 203.869,206.657 203.494,206.617 203.289 C 206.578 203.084,206.546 203.292,206.548 203.750 M279.129 203.122 C 279.521 203.157,280.121 203.157,280.463 203.121 C 280.804 203.085,280.483 203.057,279.750 203.057 C 279.017 203.058,278.737 203.087,279.129 203.122 M283.708 203.288 C 284.052 203.324,284.615 203.324,284.958 203.288 C 285.302 203.252,285.021 203.223,284.333 203.223 C 283.646 203.223,283.365 203.252,283.708 203.288 M288.375 203.455 C 288.719 203.491,289.281 203.491,289.625 203.455 C 289.969 203.419,289.688 203.389,289.000 203.389 C 288.313 203.389,288.031 203.419,288.375 203.455 M123.333 205.917 C 123.924 206.512,124.445 207.000,124.490 207.000 C 124.536 207.000,124.091 206.512,123.500 205.917 C 122.909 205.321,122.389 204.833,122.343 204.833 C 122.297 204.833,122.743 205.321,123.333 205.917 M151.500 206.083 C 151.811 206.404,152.103 206.667,152.149 206.667 C 152.195 206.667,151.978 206.404,151.667 206.083 C 151.356 205.762,151.064 205.500,151.018 205.500 C 150.972 205.500,151.189 205.762,151.500 206.083 M271.042 206.250 C 271.044 206.617,271.078 206.747,271.118 206.540 C 271.158 206.332,271.156 206.032,271.115 205.873 C 271.073 205.714,271.040 205.883,271.042 206.250 M206.705 207.000 C 206.705 207.321,206.740 207.452,206.782 207.292 C 206.823 207.131,206.823 206.869,206.782 206.708 C 206.740 206.548,206.705 206.679,206.705 207.000 M271.039 207.667 C 271.039 207.987,271.073 208.119,271.115 207.958 C 271.157 207.798,271.157 207.535,271.115 207.375 C 271.073 207.215,271.039 207.346,271.039 207.667 M275.231 207.574 C 275.180 207.706,275.168 207.949,275.204 208.115 C 275.245 208.303,275.302 208.213,275.356 207.875 C 275.446 207.307,275.387 207.165,275.231 207.574 M276.795 207.454 C 277.094 207.491,277.544 207.490,277.795 207.452 C 278.045 207.414,277.800 207.384,277.250 207.385 C 276.700 207.386,276.495 207.417,276.795 207.454 M291.458 207.451 C 291.665 207.491,292.002 207.491,292.208 207.451 C 292.415 207.411,292.246 207.379,291.833 207.379 C 291.421 207.379,291.252 207.411,291.458 207.451 M177.209 215.750 C 177.211 216.117,177.245 216.247,177.285 216.040 C 177.324 215.832,177.323 215.532,177.281 215.373 C 177.239 215.214,177.207 215.383,177.209 215.750 M261.292 216.284 C 261.498 216.324,261.835 216.324,262.042 216.284 C 262.248 216.245,262.079 216.212,261.667 216.212 C 261.254 216.212,261.085 216.245,261.292 216.284 M217.550 218.500 C 217.550 219.004,217.581 219.210,217.619 218.958 C 217.658 218.706,217.658 218.294,217.619 218.042 C 217.581 217.790,217.550 217.996,217.550 218.500 M177.061 219.750 C 177.061 220.667,177.089 221.020,177.123 220.536 C 177.157 220.052,177.156 219.302,177.122 218.869 C 177.088 218.437,177.060 218.833,177.061 219.750 M111.205 220.000 C 111.205 220.321,111.240 220.452,111.282 220.292 C 111.323 220.131,111.323 219.869,111.282 219.708 C 111.240 219.548,111.205 219.679,111.205 220.000 M177.209 223.583 C 177.211 223.950,177.245 224.080,177.285 223.873 C 177.324 223.666,177.323 223.366,177.281 223.206 C 177.239 223.047,177.207 223.217,177.209 223.583 M149.667 226.417 C 149.978 226.737,150.270 227.000,150.315 227.000 C 150.361 227.000,150.144 226.737,149.833 226.417 C 149.522 226.096,149.230 225.833,149.185 225.833 C 149.139 225.833,149.356 226.096,149.667 226.417 M247.542 233.782 C 247.702 233.823,247.965 233.823,248.125 233.782 C 248.285 233.740,248.154 233.705,247.833 233.705 C 247.512 233.705,247.381 233.740,247.542 233.782 M117.500 234.719 C 117.500 234.748,117.744 234.991,118.042 235.260 L 118.583 235.750 118.094 235.208 C 117.638 234.703,117.500 234.590,117.500 234.719 M254.455 234.787 C 254.750 234.824,255.275 234.824,255.621 234.788 C 255.967 234.752,255.725 234.722,255.083 234.721 C 254.442 234.721,254.159 234.750,254.455 234.787 M121.583 239.000 C 122.772 240.192,123.783 241.167,123.829 241.167 C 123.874 241.167,122.939 240.192,121.750 239.000 C 120.561 237.808,119.551 236.833,119.505 236.833 C 119.459 236.833,120.394 237.808,121.583 239.000 M126.167 243.417 C 126.478 243.737,126.770 244.000,126.815 244.000 C 126.861 244.000,126.644 243.737,126.333 243.417 C 126.022 243.096,125.730 242.833,125.685 242.833 C 125.639 242.833,125.856 243.096,126.167 243.417 M109.872 245.500 C 109.872 245.821,109.906 245.952,109.948 245.792 C 109.990 245.631,109.990 245.369,109.948 245.208 C 109.906 245.048,109.872 245.179,109.872 245.500 M268.000 248.052 C 268.000 248.081,268.244 248.325,268.542 248.594 L 269.083 249.083 268.594 248.542 C 268.138 248.037,268.000 247.923,268.000 248.052 M278.583 250.833 C 279.128 251.383,279.610 251.833,279.656 251.833 C 279.702 251.833,279.294 251.383,278.750 250.833 C 278.206 250.283,277.723 249.833,277.677 249.833 C 277.631 249.833,278.039 250.283,278.583 250.833 M261.167 250.052 C 261.167 250.081,261.410 250.325,261.708 250.594 L 262.250 251.083 261.760 250.542 C 261.304 250.037,261.167 249.923,261.167 250.052 M272.417 252.333 C 273.514 253.433,274.449 254.333,274.495 254.333 C 274.541 254.333,273.680 253.433,272.583 252.333 C 271.486 251.233,270.551 250.333,270.505 250.333 C 270.459 250.333,271.320 251.233,272.417 252.333 M264.417 253.333 C 264.961 253.883,265.444 254.333,265.490 254.333 C 265.535 254.333,265.128 253.883,264.583 253.333 C 264.039 252.783,263.556 252.333,263.510 252.333 C 263.465 252.333,263.872 252.783,264.417 253.333 M256.660 255.708 C 257.350 256.444,257.500 256.577,257.500 256.451 C 257.500 256.425,257.144 256.068,256.708 255.660 L 255.917 254.917 256.660 255.708 M260.500 259.583 C 260.811 259.904,261.103 260.167,261.149 260.167 C 261.195 260.167,260.978 259.904,260.667 259.583 C 260.356 259.262,260.064 259.000,260.018 259.000 C 259.972 259.000,260.189 259.262,260.500 259.583 M256.750 269.333 C 257.108 269.700,257.438 270.000,257.484 270.000 C 257.530 270.000,257.275 269.700,256.917 269.333 C 256.559 268.967,256.228 268.667,256.182 268.667 C 256.137 268.667,256.392 268.967,256.750 269.333 M160.625 277.787 C 160.923 277.824,161.410 277.824,161.708 277.787 C 162.006 277.750,161.762 277.720,161.167 277.720 C 160.571 277.720,160.327 277.750,160.625 277.787 M164.628 277.787 C 164.928 277.825,165.378 277.824,165.628 277.786 C 165.878 277.748,165.633 277.717,165.083 277.718 C 164.533 277.719,164.328 277.750,164.628 277.787 M158.542 282.788 C 158.885 282.824,159.448 282.824,159.792 282.788 C 160.135 282.752,159.854 282.723,159.167 282.723 C 158.479 282.723,158.198 282.752,158.542 282.788 M154.708 282.948 C 154.869 282.990,155.131 282.990,155.292 282.948 C 155.452 282.906,155.321 282.872,155.000 282.872 C 154.679 282.872,154.548 282.906,154.708 282.948 M163.208 282.948 C 163.369 282.990,163.631 282.990,163.792 282.948 C 163.952 282.906,163.821 282.872,163.500 282.872 C 163.179 282.872,163.048 282.906,163.208 282.948 M263.788 283.954 C 264.084 283.990,264.609 283.991,264.955 283.955 C 265.300 283.919,265.058 283.889,264.417 283.888 C 263.775 283.887,263.492 283.917,263.788 283.954 M86.562 297.583 C 86.563 298.592,86.590 298.983,86.623 298.452 C 86.657 297.922,86.656 297.097,86.623 296.619 C 86.589 296.141,86.562 296.575,86.562 297.583 M261.127 312.951 C 261.334 312.991,261.634 312.990,261.794 312.948 C 261.953 312.906,261.783 312.874,261.417 312.875 C 261.050 312.877,260.920 312.911,261.127 312.951 M303.960 316.451 C 304.168 316.491,304.468 316.490,304.627 316.448 C 304.786 316.406,304.617 316.374,304.250 316.375 C 303.883 316.377,303.753 316.411,303.960 316.451 " stroke="none" fill="#8484ce" fill-rule="evenodd"></path></g></svg>