<svg id="svg" version="1.1" xmlns="http://www.w3.org/2000/svg" xmlns:xlink="http://www.w3.org/1999/xlink" width="400" height="301.3698630136986" viewBox="0, 0, 400,301.3698630136986"><g id="svgg"><path id="path0" d="M107.762 0.549 C 106.767 0.819,105.885 1.111,105.803 1.198 C 105.660 1.348,102.977 2.364,102.336 2.510 C 102.170 2.548,101.899 2.658,101.733 2.755 C 101.320 2.996,99.675 3.426,99.397 3.365 C 99.273 3.338,99.171 3.439,99.171 3.591 C 99.171 3.742,98.934 3.828,98.644 3.782 C 98.353 3.737,97.743 3.962,97.287 4.282 C 96.831 4.602,96.458 4.766,96.458 4.646 C 96.458 4.526,96.187 4.674,95.855 4.974 C 95.524 5.274,95.252 5.377,95.252 5.204 C 95.252 5.029,94.751 5.144,94.134 5.458 C 93.518 5.772,92.780 6.029,92.494 6.029 C 92.207 6.029,91.887 6.166,91.783 6.335 C 91.679 6.503,91.466 6.563,91.311 6.467 C 91.155 6.370,90.947 6.504,90.847 6.763 C 90.748 7.022,90.494 7.234,90.284 7.234 C 90.074 7.234,89.130 7.576,88.186 7.993 C 87.243 8.410,86.151 8.778,85.759 8.810 C 85.368 8.843,85.104 8.962,85.174 9.075 C 85.300 9.278,83.855 9.790,83.421 9.695 C 83.297 9.668,83.195 9.755,83.195 9.888 C 83.195 10.021,82.517 10.373,81.689 10.671 C 80.860 10.969,80.244 11.313,80.319 11.434 C 80.394 11.556,80.292 11.668,80.092 11.683 C 78.880 11.777,75.580 13.375,75.890 13.718 C 76.012 13.852,75.966 13.880,75.788 13.779 C 75.611 13.678,75.102 13.784,74.658 14.014 C 74.214 14.244,73.851 14.352,73.851 14.253 C 73.851 14.155,73.580 14.319,73.248 14.619 C 72.916 14.920,72.645 15.066,72.645 14.946 C 72.645 14.826,72.431 14.941,72.169 15.204 C 71.907 15.466,71.567 15.603,71.415 15.509 C 71.263 15.415,71.138 15.448,71.138 15.583 C 71.138 15.718,70.697 16.015,70.158 16.242 C 69.619 16.470,68.839 16.872,68.425 17.137 C 67.711 17.593,67.559 17.657,66.975 17.747 C 66.840 17.768,66.433 18.061,66.070 18.399 C 65.708 18.737,65.411 18.915,65.411 18.794 C 65.411 18.673,65.197 18.837,64.936 19.159 C 64.675 19.480,64.566 19.540,64.693 19.292 C 64.893 18.900,64.854 18.896,64.406 19.259 C 64.122 19.490,63.813 19.603,63.720 19.510 C 63.628 19.418,63.292 19.568,62.974 19.844 C 62.656 20.121,62.151 20.559,61.850 20.818 C 61.550 21.077,61.167 21.243,61.000 21.187 C 60.833 21.132,60.376 21.364,59.984 21.704 C 59.592 22.044,58.957 22.401,58.573 22.498 C 58.189 22.594,57.875 22.802,57.875 22.959 C 57.875 23.117,57.768 23.180,57.638 23.100 C 57.416 22.962,55.356 24.567,55.490 24.773 C 55.525 24.825,55.272 25.418,54.929 26.090 C 54.153 27.611,54.193 30.408,55.019 32.404 C 55.156 32.735,55.348 33.075,55.444 33.157 C 55.807 33.469,57.273 35.870,57.100 35.870 C 57.001 35.870,57.338 36.399,57.850 37.044 C 58.361 37.690,58.779 38.436,58.779 38.702 C 58.779 38.968,58.900 39.186,59.048 39.186 C 59.196 39.186,59.403 39.531,59.509 39.952 C 59.634 40.449,59.831 40.640,60.069 40.497 C 60.271 40.376,60.234 40.532,59.985 40.844 C 59.736 41.156,59.696 41.314,59.894 41.195 C 60.205 41.009,60.861 41.725,60.815 42.200 C 60.773 42.635,61.269 43.708,61.512 43.708 C 61.667 43.708,61.794 43.979,61.794 44.310 C 61.794 44.642,61.916 44.913,62.065 44.913 C 62.382 44.913,63.071 46.720,62.757 46.727 C 62.642 46.729,62.688 46.831,62.861 46.953 C 64.357 48.007,63.756 51.413,62.182 50.808 C 61.968 50.727,61.794 50.799,61.794 50.969 C 61.794 51.140,61.657 51.195,61.490 51.091 C 61.323 50.988,61.105 51.116,61.006 51.375 C 60.906 51.634,60.636 51.846,60.405 51.846 C 60.174 51.846,59.985 52.005,59.985 52.198 C 59.985 52.391,59.903 52.467,59.802 52.367 C 59.609 52.174,59.459 52.271,58.057 53.496 C 57.577 53.915,57.102 54.258,57.002 54.258 C 56.902 54.258,56.429 54.594,55.952 55.005 C 55.474 55.416,54.975 55.685,54.842 55.603 C 54.709 55.521,54.422 55.695,54.203 55.991 C 53.984 56.287,53.466 56.754,53.052 57.028 C 52.638 57.303,51.891 57.875,51.394 58.298 C 50.897 58.722,50.326 59.207,50.126 59.376 C 49.926 59.545,49.688 59.683,49.598 59.683 C 49.278 59.683,48.283 60.842,48.455 61.015 C 48.552 61.112,48.431 61.191,48.185 61.191 C 47.940 61.191,47.443 61.467,47.080 61.805 C 46.717 62.143,46.416 62.313,46.410 62.182 C 46.404 62.051,46.205 62.283,45.968 62.698 C 45.731 63.112,45.533 63.336,45.527 63.194 C 45.517 62.954,44.628 63.647,42.297 65.710 C 41.770 66.177,41.420 66.639,41.518 66.738 C 41.617 66.837,41.484 66.918,41.222 66.918 C 40.960 66.918,39.866 67.790,38.789 68.856 C 37.713 69.922,36.744 70.706,36.637 70.598 C 36.529 70.491,36.538 70.670,36.656 70.996 C 36.774 71.323,36.774 71.504,36.656 71.399 C 36.316 71.095,28.937 78.688,28.937 79.341 C 28.937 79.472,28.719 79.578,28.453 79.578 C 28.146 79.578,28.032 79.744,28.142 80.030 C 28.297 80.435,27.999 80.620,27.355 80.518 C 27.231 80.498,27.129 80.634,27.129 80.819 C 27.129 81.005,26.756 81.607,26.300 82.159 C 25.844 82.710,25.132 83.595,24.717 84.125 C 24.303 84.655,23.693 85.396,23.361 85.773 C 23.029 86.150,22.555 86.758,22.306 87.126 C 20.868 89.250,19.455 91.032,19.209 91.032 C 19.053 91.032,19.004 91.236,19.099 91.485 C 19.195 91.733,19.141 91.937,18.981 91.937 C 18.820 91.937,18.689 92.126,18.689 92.357 C 18.689 92.588,18.485 92.855,18.237 92.950 C 17.988 93.045,17.784 93.331,17.784 93.585 C 17.784 93.839,17.641 94.047,17.465 94.047 C 17.290 94.047,17.230 94.182,17.332 94.348 C 17.435 94.514,17.368 94.650,17.184 94.650 C 17.000 94.650,16.658 95.108,16.424 95.668 C 16.190 96.228,15.790 96.767,15.535 96.864 C 15.280 96.962,15.072 97.371,15.072 97.773 C 15.072 98.175,14.870 98.581,14.625 98.675 C 14.379 98.770,14.251 99.038,14.340 99.271 C 14.430 99.505,14.292 99.777,14.034 99.876 C 13.776 99.975,13.564 100.257,13.564 100.503 C 13.564 100.749,13.395 101.058,13.188 101.191 C 12.653 101.533,11.734 103.269,11.965 103.500 C 12.071 103.606,12.008 103.693,11.826 103.693 C 11.643 103.693,11.324 104.160,11.118 104.732 C 10.911 105.303,10.617 105.693,10.463 105.598 C 10.301 105.498,10.274 105.710,10.399 106.104 C 10.560 106.609,10.517 106.722,10.234 106.547 C 9.986 106.394,9.929 106.434,10.070 106.662 C 10.189 106.855,10.011 107.400,9.674 107.873 C 9.337 108.347,9.147 108.821,9.253 108.926 C 9.358 109.032,9.308 109.118,9.141 109.118 C 8.975 109.118,8.659 109.661,8.440 110.324 C 8.221 110.987,7.932 111.530,7.798 111.530 C 7.664 111.530,7.641 111.755,7.747 112.031 C 7.869 112.350,7.821 112.459,7.614 112.332 C 7.411 112.206,7.211 112.585,7.084 113.337 C 6.972 114.001,6.760 114.544,6.614 114.544 C 6.468 114.544,6.427 114.748,6.522 114.996 C 6.618 115.245,6.546 115.448,6.362 115.448 C 6.179 115.448,6.029 115.847,6.029 116.335 C 6.029 116.822,5.889 117.307,5.719 117.413 C 5.549 117.518,5.447 117.831,5.493 118.109 C 5.541 118.397,5.405 118.578,5.177 118.531 C 4.958 118.485,4.854 118.571,4.947 118.722 C 5.040 118.872,4.838 119.791,4.499 120.764 C 4.159 121.736,3.871 122.735,3.859 122.984 C 3.846 123.233,3.735 123.572,3.610 123.738 C 3.486 123.904,3.289 124.616,3.172 125.322 C 3.056 126.027,2.839 126.528,2.690 126.436 C 2.540 126.344,2.497 126.473,2.592 126.722 C 2.688 126.971,2.659 127.349,2.528 127.561 C 2.397 127.774,2.265 128.153,2.235 128.405 C 2.072 129.794,1.425 133.448,1.274 133.836 C 1.177 134.084,1.073 134.627,1.043 135.041 C 1.013 135.456,0.905 136.134,0.804 136.549 C 0.325 138.507,0.241 140.030,0.135 148.606 C 0.035 156.689,0.171 160.060,0.786 164.732 C 1.069 166.889,1.113 167.138,1.286 167.596 C 1.380 167.845,1.541 168.646,1.644 169.376 C 1.747 170.106,1.921 170.850,2.032 171.029 C 2.143 171.209,2.195 171.798,2.149 172.339 C 2.102 172.880,2.202 173.323,2.370 173.323 C 2.538 173.323,2.770 173.968,2.884 174.755 C 2.999 175.543,3.290 176.575,3.531 177.049 C 3.832 177.643,3.853 177.840,3.599 177.683 C 3.351 177.529,3.377 177.742,3.679 178.328 C 4.204 179.345,4.963 181.530,5.601 183.856 C 5.849 184.758,6.181 185.653,6.339 185.843 C 6.497 186.034,6.537 186.279,6.428 186.388 C 6.319 186.497,6.388 186.586,6.581 186.586 C 6.775 186.586,6.933 186.925,6.933 187.340 C 6.933 187.754,7.077 188.093,7.252 188.093 C 7.428 188.093,7.488 188.229,7.385 188.395 C 7.283 188.561,7.321 188.696,7.470 188.696 C 7.712 188.696,8.045 189.564,8.602 191.640 C 8.703 192.015,8.911 192.244,9.065 192.149 C 9.219 192.054,9.344 192.252,9.344 192.588 C 9.344 193.165,9.880 194.281,11.179 196.412 C 11.492 196.925,11.659 197.434,11.551 197.542 C 11.443 197.651,11.501 197.739,11.682 197.739 C 11.862 197.739,12.101 198.155,12.212 198.664 C 12.324 199.172,12.600 199.659,12.825 199.746 C 13.050 199.832,13.383 200.353,13.564 200.904 C 13.746 201.455,14.092 201.982,14.333 202.074 C 14.573 202.166,14.770 202.438,14.770 202.678 C 14.770 202.918,14.940 203.183,15.147 203.267 C 15.439 203.385,15.436 203.424,15.133 203.443 C 14.901 203.457,15.053 203.777,15.510 204.234 C 15.932 204.656,16.277 205.182,16.277 205.403 C 16.277 205.623,16.484 205.976,16.737 206.185 C 16.989 206.395,17.136 206.626,17.063 206.700 C 16.990 206.773,17.195 207.097,17.519 207.421 C 17.843 207.745,18.014 208.162,17.900 208.347 C 17.773 208.552,17.828 208.600,18.039 208.469 C 18.231 208.351,18.387 208.392,18.387 208.561 C 18.387 208.730,18.760 209.230,19.216 209.672 C 19.672 210.114,19.876 210.383,19.668 210.269 C 19.461 210.155,19.292 210.206,19.292 210.382 C 19.292 210.557,19.432 210.701,19.603 210.701 C 19.774 210.701,20.004 210.938,20.114 211.228 C 20.224 211.518,20.627 212.003,21.009 212.305 C 21.391 212.607,21.703 212.991,21.703 213.159 C 21.703 213.498,23.575 215.907,24.654 216.956 C 25.037 217.329,25.214 217.634,25.046 217.634 C 24.878 217.634,25.289 218.176,25.959 218.839 C 26.629 219.503,27.080 220.045,26.961 220.045 C 26.843 220.045,27.104 220.326,27.540 220.670 C 27.977 221.014,28.335 221.511,28.335 221.775 C 28.335 222.039,28.417 222.173,28.519 222.072 C 28.620 221.971,29.332 222.549,30.101 223.357 C 31.828 225.170,32.594 226.074,32.404 226.074 C 32.324 226.074,32.650 226.447,33.128 226.903 C 35.275 228.949,36.124 229.638,36.292 229.470 C 36.392 229.371,36.473 229.447,36.473 229.641 C 36.473 230.263,36.578 230.434,37.336 231.047 C 37.746 231.379,38.617 232.159,39.272 232.781 C 39.927 233.402,40.582 233.911,40.729 233.911 C 40.875 233.911,40.995 234.056,40.995 234.234 C 40.995 234.585,41.737 235.418,42.050 235.418 C 42.399 235.418,43.081 236.246,42.889 236.437 C 42.787 236.540,42.899 236.624,43.138 236.624 C 43.378 236.624,43.806 236.895,44.090 237.227 C 44.374 237.558,44.777 237.833,44.986 237.837 C 45.195 237.841,46.309 238.722,47.462 239.796 C 48.615 240.869,49.802 241.824,50.100 241.919 C 50.397 242.013,50.641 242.204,50.641 242.342 C 50.641 242.480,51.081 242.876,51.620 243.221 C 52.159 243.566,52.464 243.851,52.298 243.853 C 52.133 243.856,52.607 244.157,53.353 244.521 C 54.099 244.885,55.171 245.638,55.734 246.193 C 56.298 246.749,57.206 247.390,57.753 247.619 C 58.299 247.847,58.914 248.302,59.118 248.629 C 59.322 248.956,59.635 249.169,59.813 249.102 C 59.990 249.034,60.526 249.316,61.004 249.728 C 61.481 250.140,62.011 250.391,62.181 250.286 C 62.351 250.181,62.407 250.229,62.305 250.394 C 62.204 250.558,62.603 250.922,63.192 251.203 C 64.012 251.594,64.188 251.805,63.940 252.104 C 63.707 252.384,63.720 252.606,63.986 252.892 C 64.282 253.212,64.271 253.243,63.928 253.047 C 63.610 252.865,63.549 252.931,63.692 253.304 C 63.798 253.580,63.753 253.806,63.593 253.806 C 63.432 253.806,63.301 254.017,63.301 254.276 C 63.301 254.566,63.157 254.663,62.924 254.529 C 62.717 254.409,62.643 254.418,62.760 254.548 C 63.023 254.840,61.594 257.724,61.186 257.724 C 61.023 257.724,60.917 257.826,60.951 257.950 C 61.083 258.434,60.222 260.433,59.953 260.267 C 59.797 260.170,59.691 260.203,59.719 260.339 C 59.811 260.792,59.027 262.547,58.732 262.547 C 58.573 262.547,58.526 262.683,58.628 262.849 C 58.731 263.014,58.655 263.150,58.460 263.150 C 58.254 263.150,58.172 263.402,58.264 263.753 C 58.351 264.085,58.317 264.292,58.189 264.212 C 58.060 264.133,57.700 264.360,57.388 264.716 C 57.075 265.072,57.007 265.254,57.236 265.119 C 57.523 264.950,57.605 265.004,57.500 265.293 C 57.416 265.524,57.195 265.678,57.008 265.637 C 56.822 265.595,56.699 265.663,56.736 265.787 C 56.821 266.073,55.148 268.953,54.724 269.249 C 54.551 269.371,54.537 269.473,54.695 269.475 C 54.852 269.478,54.818 269.643,54.619 269.842 C 54.037 270.424,54.273 275.721,54.865 275.355 C 54.991 275.278,55.155 275.450,55.231 275.738 C 55.306 276.026,55.409 276.398,55.460 276.564 C 55.510 276.729,55.939 277.100,56.412 277.388 C 56.885 277.676,57.272 278.072,57.272 278.267 C 57.272 278.463,57.357 278.538,57.461 278.435 C 57.639 278.256,59.360 278.999,59.683 279.394 C 59.766 279.495,60.377 279.848,61.040 280.178 C 61.703 280.508,62.313 280.855,62.396 280.949 C 62.479 281.043,62.988 281.298,63.527 281.516 C 64.066 281.734,64.506 282.009,64.506 282.128 C 64.506 282.248,65.063 282.529,65.744 282.754 C 66.425 282.978,67.048 283.335,67.130 283.547 C 67.211 283.759,67.730 284.017,68.283 284.121 C 68.835 284.225,69.354 284.482,69.435 284.694 C 69.516 284.905,70.055 285.167,70.633 285.275 C 71.210 285.384,71.763 285.681,71.860 285.935 C 71.958 286.190,72.163 286.321,72.316 286.227 C 72.469 286.132,72.639 286.184,72.695 286.341 C 72.750 286.498,73.185 286.696,73.662 286.781 C 74.138 286.867,74.757 287.144,75.038 287.398 C 75.319 287.652,75.978 287.946,76.503 288.051 C 77.028 288.156,77.393 288.347,77.314 288.475 C 77.235 288.604,77.380 288.789,77.636 288.887 C 77.951 289.008,78.031 288.945,77.884 288.693 C 77.764 288.488,77.926 288.541,78.245 288.811 C 78.903 289.369,80.722 290.333,80.885 290.210 C 80.944 290.165,81.183 290.279,81.416 290.463 C 81.648 290.648,82.212 290.888,82.668 290.997 C 83.124 291.105,83.497 291.323,83.497 291.481 C 83.497 291.638,83.703 291.688,83.956 291.591 C 84.209 291.494,84.955 291.771,85.614 292.207 C 86.273 292.643,86.812 292.927,86.812 292.838 C 86.812 292.748,87.218 292.884,87.713 293.141 C 88.209 293.397,88.684 293.604,88.769 293.601 C 89.417 293.575,89.539 293.630,89.384 293.881 C 89.287 294.038,89.719 294.257,90.346 294.367 C 90.972 294.477,91.756 294.733,92.087 294.936 C 93.049 295.525,95.485 296.274,95.729 296.055 C 95.852 295.945,95.867 296.005,95.763 296.187 C 95.579 296.510,97.352 297.212,98.352 297.212 C 98.609 297.212,98.872 297.369,98.936 297.562 C 99.000 297.755,99.249 297.950,99.489 297.997 C 100.883 298.266,101.386 298.431,101.764 298.744 C 101.996 298.937,102.185 298.983,102.185 298.846 C 102.185 298.710,102.348 298.761,102.547 298.960 C 102.746 299.159,103.289 299.322,103.753 299.322 C 104.217 299.322,104.597 299.480,104.597 299.673 C 104.597 299.867,104.675 299.947,104.770 299.852 C 104.866 299.756,105.374 299.809,105.901 299.970 C 106.427 300.130,107.187 300.328,107.590 300.410 C 107.993 300.492,108.424 300.622,108.549 300.699 C 108.673 300.776,108.861 300.700,108.965 300.531 C 109.070 300.362,109.554 300.294,110.041 300.380 C 110.542 300.468,110.927 300.403,110.927 300.230 C 110.927 300.062,111.125 299.925,111.366 299.925 C 111.608 299.925,112.353 299.404,113.022 298.767 C 113.692 298.131,114.308 297.656,114.392 297.712 C 114.475 297.769,114.479 297.727,114.399 297.619 C 114.181 297.325,115.507 295.103,115.795 295.280 C 115.932 295.365,115.970 295.241,115.880 295.006 C 115.789 294.770,115.936 294.356,116.206 294.086 C 116.476 293.816,116.594 293.595,116.467 293.595 C 116.341 293.595,116.501 293.381,116.823 293.120 C 117.144 292.859,117.204 292.747,116.956 292.870 C 116.620 293.037,116.640 292.940,117.031 292.492 C 117.321 292.161,117.558 291.751,117.558 291.583 C 117.558 291.414,117.822 291.038,118.144 290.746 C 118.466 290.455,118.817 289.822,118.922 289.340 C 119.028 288.858,119.277 288.296,119.475 288.090 C 120.026 287.518,121.414 284.561,121.047 284.740 C 120.869 284.827,120.941 284.718,121.207 284.497 C 121.473 284.277,121.787 283.792,121.906 283.420 C 122.024 283.048,122.232 282.743,122.369 282.743 C 122.606 282.743,123.049 281.517,123.107 280.698 C 123.122 280.486,123.289 280.214,123.477 280.095 C 123.665 279.977,123.871 279.608,123.934 279.277 C 124.091 278.459,127.118 278.576,128.259 279.443 C 128.425 279.569,129.408 279.838,130.445 280.041 C 131.481 280.244,132.329 280.501,132.329 280.612 C 132.329 280.723,132.634 280.828,133.007 280.846 C 134.356 280.909,137.453 281.650,137.453 281.910 C 137.453 282.056,137.589 282.092,137.754 281.989 C 137.920 281.887,138.225 281.911,138.433 282.042 C 138.640 282.174,139.013 282.292,139.261 282.304 C 140.528 282.368,142.879 282.826,142.879 283.008 C 142.879 283.123,143.116 283.224,143.406 283.234 C 144.022 283.253,145.977 283.581,146.983 283.834 C 147.367 283.930,148.153 284.041,148.730 284.079 C 149.307 284.118,149.990 284.324,150.247 284.538 C 150.614 284.842,150.716 284.845,150.716 284.552 C 150.716 284.267,150.840 284.277,151.226 284.590 C 151.666 284.947,151.699 284.942,151.469 284.552 C 151.252 284.183,151.285 284.166,151.647 284.458 C 152.146 284.862,153.087 285.074,155.606 285.350 C 156.555 285.455,157.260 285.655,157.173 285.796 C 157.086 285.937,157.223 285.972,157.479 285.874 C 157.734 285.776,158.356 285.840,158.861 286.016 C 159.532 286.250,159.723 286.245,159.572 286.000 C 159.440 285.787,159.502 285.749,159.743 285.898 C 160.232 286.201,166.384 286.995,168.274 286.999 C 168.564 287.000,168.802 287.116,168.802 287.257 C 168.802 287.397,169.024 287.480,169.296 287.440 C 169.567 287.400,170.415 287.465,171.179 287.585 C 172.715 287.825,179.545 288.295,181.078 288.266 C 181.614 288.256,181.995 288.339,181.927 288.450 C 181.858 288.561,182.616 288.676,183.612 288.706 C 184.607 288.736,185.569 288.852,185.749 288.964 C 185.945 289.085,185.990 289.026,185.861 288.818 C 185.743 288.627,185.782 288.470,185.948 288.470 C 186.114 288.470,186.328 288.597,186.423 288.752 C 186.520 288.908,188.343 289.009,190.511 288.978 C 192.663 288.947,194.424 288.995,194.424 289.084 C 194.423 289.393,205.237 289.379,205.427 289.071 C 205.529 288.906,206.384 288.794,207.328 288.822 L 209.043 288.873 207.234 289.086 C 206.167 289.211,207.156 289.248,209.646 289.176 C 211.967 289.108,215.117 289.064,216.646 289.078 C 218.214 289.092,219.709 288.952,220.074 288.756 C 220.526 288.514,220.659 288.510,220.515 288.743 C 220.375 288.970,220.626 289.028,221.308 288.925 C 221.857 288.842,223.432 288.721,224.809 288.656 C 226.185 288.592,227.395 288.455,227.497 288.354 C 227.598 288.252,228.574 288.168,229.666 288.166 C 232.642 288.162,234.833 287.845,234.613 287.449 C 234.483 287.217,234.540 287.220,234.799 287.458 C 235.221 287.847,237.780 287.677,238.330 287.222 C 238.556 287.036,238.750 287.046,238.876 287.251 C 238.999 287.450,239.262 287.467,239.581 287.298 C 239.861 287.149,240.701 287.066,241.447 287.113 C 242.193 287.160,242.877 287.080,242.968 286.936 C 243.113 286.705,246.752 286.263,248.154 286.306 C 248.444 286.315,248.681 286.201,248.681 286.053 C 248.681 285.904,249.156 285.820,249.736 285.866 C 250.317 285.912,250.791 285.848,250.791 285.724 C 250.791 285.511,252.900 285.182,254.861 285.090 C 255.358 285.066,255.889 284.982,256.041 284.902 C 256.278 284.776,257.076 284.646,258.553 284.491 C 258.760 284.469,258.930 284.361,258.930 284.250 C 258.930 284.140,259.099 284.043,259.307 284.036 C 260.739 283.986,263.577 283.604,263.861 283.423 C 264.050 283.303,264.408 283.200,264.657 283.195 C 264.906 283.190,265.300 283.065,265.533 282.918 C 265.849 282.718,265.891 282.757,265.701 283.073 C 265.486 283.430,265.524 283.433,265.941 283.095 C 266.214 282.874,266.749 282.654,267.130 282.607 C 269.308 282.337,270.873 282.037,271.138 281.839 C 271.592 281.499,275.165 280.937,275.660 281.127 C 275.898 281.218,276.504 281.914,277.006 282.673 C 277.509 283.431,277.920 283.961,277.920 283.850 C 277.920 283.738,278.170 283.885,278.475 284.175 C 278.780 284.465,278.988 284.784,278.937 284.883 C 278.886 284.983,279.378 285.512,280.030 286.059 C 280.682 286.606,281.149 287.162,281.067 287.295 C 280.985 287.427,281.183 287.678,281.508 287.852 C 281.833 288.026,282.189 288.450,282.298 288.794 C 282.407 289.138,282.567 289.349,282.653 289.263 C 282.863 289.054,284.424 290.932,284.318 291.267 C 284.273 291.411,284.340 291.465,284.469 291.385 C 284.597 291.306,285.041 291.651,285.456 292.153 C 285.870 292.654,286.837 293.701,287.603 294.478 C 288.369 295.256,289.091 296.191,289.207 296.556 C 289.323 296.922,289.544 297.143,289.698 297.048 C 289.852 296.953,289.977 297.081,289.977 297.334 C 289.977 297.587,290.280 297.955,290.649 298.153 C 291.408 298.559,292.087 299.183,292.087 299.472 C 292.087 299.764,292.991 300.609,292.996 300.323 C 292.999 300.187,293.101 300.212,293.222 300.378 C 294.178 301.686,300.444 301.581,302.185 300.228 C 302.535 299.957,304.479 299.478,304.845 299.573 C 304.982 299.609,305.008 299.499,304.903 299.329 C 304.798 299.159,304.927 299.020,305.189 299.020 C 305.452 299.020,306.410 298.759,307.317 298.440 C 308.225 298.121,308.970 297.952,308.972 298.064 C 308.975 298.175,309.076 298.123,309.198 297.947 C 309.320 297.770,310.200 297.385,311.153 297.090 C 312.106 296.794,312.886 296.447,312.886 296.317 C 312.886 296.187,313.700 295.901,314.695 295.680 C 315.690 295.459,316.503 295.157,316.503 295.007 C 316.503 294.858,316.737 294.825,317.022 294.935 C 317.307 295.044,317.443 295.037,317.325 294.919 C 317.208 294.801,317.890 294.377,318.842 293.976 C 319.794 293.575,320.952 293.057,321.416 292.824 C 321.879 292.591,322.185 292.521,322.094 292.668 C 322.003 292.815,322.198 292.865,322.528 292.779 C 322.858 292.692,323.054 292.502,322.963 292.355 C 322.872 292.208,323.111 292.085,323.494 292.082 C 324.360 292.076,327.144 290.470,326.832 290.158 C 326.706 290.031,326.975 290.022,327.431 290.136 C 327.961 290.269,328.259 290.224,328.259 290.010 C 328.259 289.826,328.433 289.676,328.644 289.676 C 328.856 289.676,329.806 289.273,330.754 288.781 C 331.703 288.289,332.479 287.966,332.479 288.064 C 332.479 288.162,332.683 288.074,332.931 287.867 C 333.180 287.661,333.387 287.610,333.390 287.755 C 333.394 287.900,333.631 287.723,333.918 287.362 C 334.204 287.002,334.710 286.663,335.041 286.609 C 335.373 286.555,335.907 286.274,336.229 285.983 C 336.550 285.693,337.110 285.456,337.473 285.456 C 337.836 285.456,338.300 285.254,338.505 285.007 C 338.710 284.760,339.007 284.638,339.165 284.736 C 339.323 284.834,339.617 284.689,339.817 284.414 C 340.133 283.982,340.671 283.760,341.615 283.670 C 341.750 283.658,341.779 283.518,341.682 283.360 C 341.584 283.202,342.051 282.925,342.719 282.745 C 343.387 282.566,343.934 282.288,343.934 282.129 C 343.934 281.969,344.205 281.839,344.537 281.839 C 344.868 281.839,345.139 281.706,345.139 281.543 C 345.139 281.380,345.511 281.154,345.965 281.040 C 346.420 280.926,346.972 280.652,347.193 280.431 C 347.413 280.211,347.788 280.030,348.025 280.030 C 348.261 280.030,348.455 279.811,348.455 279.543 C 348.455 279.204,348.639 279.104,349.058 279.213 C 349.390 279.300,349.592 279.258,349.506 279.119 C 349.421 278.981,349.624 278.781,349.958 278.675 C 350.292 278.569,350.565 278.360,350.565 278.211 C 350.565 278.061,350.769 278.017,351.017 278.113 C 351.304 278.222,351.469 278.108,351.469 277.802 C 351.469 277.535,351.571 277.333,351.696 277.353 C 352.301 277.448,352.668 277.281,352.600 276.940 C 352.558 276.733,352.694 276.598,352.901 276.639 C 353.109 276.680,353.278 276.443,353.278 276.112 C 353.278 275.780,353.414 275.509,353.580 275.509 C 353.745 275.509,353.881 275.197,353.881 274.815 C 353.881 274.434,354.039 273.964,354.232 273.771 C 354.741 273.262,354.015 269.437,353.257 268.622 C 352.937 268.279,352.675 267.912,352.675 267.806 C 352.675 267.700,352.395 267.221,352.053 266.740 C 351.711 266.260,351.529 265.709,351.648 265.517 C 351.774 265.312,351.733 265.248,351.548 265.362 C 351.247 265.548,350.717 264.761,350.819 264.280 C 350.845 264.156,350.741 264.054,350.589 264.054 C 350.436 264.054,350.148 263.546,349.949 262.924 C 349.750 262.302,349.331 261.512,349.018 261.168 C 348.705 260.824,348.522 260.471,348.610 260.382 C 348.699 260.294,348.564 260.050,348.312 259.840 C 348.059 259.631,347.852 259.204,347.852 258.893 C 347.852 258.582,347.722 258.327,347.563 258.327 C 347.404 258.327,347.111 257.784,346.912 257.121 C 346.714 256.458,346.459 255.916,346.346 255.916 C 346.081 255.916,345.314 254.343,345.404 253.984 C 345.442 253.833,345.304 253.606,345.099 253.479 C 344.574 253.155,344.525 251.622,345.024 251.156 C 345.253 250.942,345.441 250.856,345.441 250.965 C 345.441 251.073,345.797 250.929,346.232 250.644 C 346.752 250.303,346.938 250.265,346.775 250.534 C 346.639 250.758,346.972 250.501,347.515 249.962 C 348.057 249.424,348.695 248.983,348.930 248.983 C 349.166 248.983,349.359 248.847,349.359 248.681 C 349.359 248.515,349.622 248.380,349.942 248.380 C 350.262 248.380,350.611 248.109,350.716 247.777 C 350.821 247.445,351.085 247.174,351.302 247.174 C 351.519 247.174,351.869 246.967,352.078 246.715 C 352.288 246.462,352.516 246.312,352.586 246.381 C 352.655 246.451,353.019 246.216,353.394 245.861 C 354.538 244.778,355.388 244.154,355.397 244.389 C 355.402 244.512,355.541 244.381,355.705 244.100 C 355.869 243.818,356.679 243.220,357.505 242.771 C 358.330 242.321,359.005 241.772,359.005 241.550 C 359.005 241.327,359.127 241.145,359.275 241.145 C 359.423 241.145,359.864 240.809,360.255 240.397 C 360.645 239.985,361.123 239.646,361.316 239.643 C 361.510 239.641,361.961 239.265,362.318 238.809 C 362.676 238.353,362.865 238.184,362.738 238.433 C 362.612 238.681,363.192 238.220,364.028 237.407 C 364.864 236.595,365.633 235.984,365.737 236.051 C 365.841 236.117,366.142 235.864,366.405 235.489 C 366.668 235.113,367.013 234.885,367.172 234.983 C 367.331 235.081,367.424 235.050,367.380 234.913 C 367.222 234.425,368.294 233.238,368.678 233.476 C 368.945 233.641,368.997 233.557,368.856 233.191 C 368.747 232.907,368.781 232.750,368.931 232.843 C 369.207 233.013,369.466 232.778,372.760 229.352 C 373.777 228.295,375.235 226.846,376.000 226.133 C 376.766 225.419,377.393 224.705,377.393 224.546 C 377.393 224.387,377.809 224.003,378.318 223.693 C 378.828 223.384,379.201 223.077,379.147 223.012 C 378.981 222.809,380.326 221.251,380.667 221.251 C 380.845 221.251,380.925 221.078,380.844 220.867 C 380.763 220.656,381.106 220.242,381.607 219.946 C 382.107 219.650,382.517 219.271,382.517 219.102 C 382.517 218.934,382.687 218.619,382.894 218.403 C 383.101 218.186,383.465 217.728,383.702 217.385 C 383.940 217.042,384.266 216.843,384.427 216.943 C 384.588 217.043,384.638 216.992,384.538 216.830 C 384.438 216.668,384.532 216.198,384.746 215.785 C 385.229 214.853,385.406 210.557,384.949 210.839 C 384.758 210.957,384.706 210.847,384.815 210.562 C 384.914 210.303,384.846 209.910,384.663 209.690 C 384.480 209.469,384.431 209.188,384.554 209.065 C 384.677 208.943,384.585 208.887,384.350 208.942 C 384.115 208.998,383.774 208.772,383.593 208.440 C 383.170 207.665,367.162 191.711,366.808 191.711 C 366.661 191.711,366.541 191.576,366.541 191.412 C 366.541 191.050,360.197 184.778,359.831 184.778 C 359.689 184.778,359.656 184.642,359.759 184.476 C 359.861 184.310,359.802 184.175,359.626 184.175 C 359.450 184.175,359.035 183.904,358.704 183.572 C 358.372 183.240,358.203 182.968,358.327 182.967 C 358.451 182.966,358.179 182.718,357.722 182.417 C 357.265 182.115,356.949 181.810,357.021 181.738 C 357.093 181.666,356.680 181.202,356.103 180.706 C 354.672 179.474,352.490 177.310,351.396 176.036 C 350.897 175.456,350.581 175.185,350.692 175.433 C 350.803 175.682,350.655 175.546,350.361 175.132 C 349.657 174.136,346.994 171.515,346.688 171.515 C 346.555 171.515,346.271 171.186,346.057 170.785 C 345.842 170.384,345.497 170.120,345.291 170.200 C 345.085 170.279,344.835 170.132,344.736 169.874 C 344.620 169.574,344.178 169.405,343.509 169.405 C 342.933 169.405,342.382 169.275,342.284 169.116 C 342.093 168.808,340.318 168.827,340.317 169.138 C 340.317 169.239,339.717 169.552,338.984 169.832 C 338.251 170.112,337.489 170.536,337.292 170.774 C 337.094 171.012,336.812 171.132,336.665 171.041 C 336.518 170.951,336.398 171.088,336.398 171.346 C 336.398 171.605,336.127 172.087,335.795 172.419 C 335.463 172.751,335.271 173.022,335.368 173.022 C 335.465 173.022,335.126 173.550,334.615 174.196 C 334.103 174.841,333.685 175.505,333.685 175.671 C 333.685 175.836,333.462 176.057,333.190 176.162 C 332.917 176.266,332.776 176.433,332.876 176.533 C 332.975 176.633,332.403 177.371,331.604 178.175 C 330.804 178.978,330.205 179.690,330.271 179.756 C 330.489 179.974,326.132 184.175,325.688 184.175 C 325.451 184.175,325.192 183.870,325.114 183.497 C 324.945 182.693,324.255 174.917,324.284 174.146 C 324.296 173.818,324.166 173.689,323.946 173.813 C 323.675 173.965,323.676 173.918,323.950 173.623 C 324.172 173.382,324.214 173.045,324.058 172.750 C 323.750 172.166,323.453 165.593,323.264 155.144 C 323.186 150.865,323.109 147.270,323.093 147.156 C 323.077 147.042,323.090 146.880,323.122 146.797 C 323.345 146.226,323.337 145.617,323.108 145.759 C 322.957 145.852,322.833 145.793,322.833 145.627 C 322.833 145.461,322.984 145.233,323.167 145.120 C 323.400 144.976,323.377 144.835,323.092 144.654 C 322.867 144.512,322.828 144.393,323.006 144.390 C 323.205 144.388,323.339 143.539,323.354 142.200 C 323.405 137.497,323.767 130.416,323.973 130.099 C 324.312 129.578,324.264 128.109,323.908 128.104 C 323.691 128.101,323.694 128.028,323.919 127.878 C 324.101 127.756,324.260 127.182,324.272 126.601 C 324.283 126.021,324.368 124.868,324.460 124.039 C 324.552 123.210,324.718 121.413,324.828 120.045 C 324.939 118.677,325.133 117.558,325.260 117.558 C 325.386 117.558,325.419 117.287,325.332 116.956 C 325.244 116.618,325.323 116.353,325.511 116.353 C 325.696 116.353,325.848 116.454,325.849 116.579 C 325.852 116.942,327.896 119.066,328.244 119.066 C 328.418 119.066,328.561 119.199,328.561 119.362 C 328.561 119.524,329.002 120.126,329.540 120.699 C 331.042 122.297,331.860 123.294,332.222 123.971 C 332.403 124.310,332.894 124.905,333.313 125.293 C 333.732 125.681,333.966 125.998,333.834 125.998 C 333.701 125.998,333.851 126.236,334.166 126.527 C 334.482 126.817,335.011 127.586,335.343 128.235 C 336.627 130.749,338.502 131.868,341.544 131.937 C 343.015 131.970,344.299 131.866,344.398 131.706 C 344.497 131.546,344.725 131.505,344.905 131.617 C 345.101 131.738,345.146 131.678,345.016 131.469 C 344.891 131.266,345.030 131.034,345.346 130.917 C 345.647 130.806,346.167 130.427,346.502 130.074 C 346.838 129.720,347.346 129.342,347.633 129.232 C 347.919 129.122,348.154 128.824,348.154 128.570 C 348.154 128.316,348.263 128.109,348.398 128.109 C 348.532 128.109,348.905 127.895,349.226 127.634 C 349.548 127.373,349.608 127.252,349.359 127.365 C 349.111 127.478,349.434 127.115,350.078 126.558 C 351.277 125.522,351.477 125.324,353.696 122.984 C 354.403 122.238,355.311 121.327,355.713 120.960 C 356.114 120.592,356.740 119.982,357.102 119.603 C 357.464 119.225,358.881 117.830,360.251 116.503 C 361.621 115.177,362.713 113.986,362.679 113.857 C 362.645 113.729,362.856 113.532,363.147 113.421 C 363.439 113.310,363.948 112.877,364.279 112.459 C 364.610 112.041,365.207 111.423,365.605 111.086 C 366.003 110.750,366.654 110.136,367.052 109.721 C 370.058 106.592,373.642 103.090,373.839 103.090 C 373.970 103.090,374.077 102.971,374.077 102.827 C 374.077 102.473,379.204 97.362,379.559 97.362 C 379.713 97.362,379.765 97.242,379.674 97.095 C 379.584 96.948,379.711 96.660,379.958 96.455 C 380.205 96.251,380.407 96.158,380.407 96.249 C 380.407 96.340,381.288 95.509,382.365 94.402 C 384.133 92.583,384.489 92.016,384.354 91.236 C 384.330 91.099,384.434 91.064,384.585 91.157 C 385.250 91.568,385.487 87.174,384.880 85.702 C 384.687 85.235,384.552 84.751,384.578 84.627 C 384.605 84.503,384.433 84.401,384.195 84.401 C 383.958 84.401,383.677 84.130,383.572 83.798 C 383.467 83.466,383.246 83.195,383.082 83.195 C 382.917 83.195,382.854 83.080,382.941 82.939 C 383.028 82.798,382.760 82.502,382.345 82.280 C 381.931 82.058,381.659 81.700,381.742 81.484 C 381.825 81.269,381.777 81.125,381.636 81.164 C 381.494 81.204,380.957 80.709,380.441 80.064 C 379.925 79.420,379.503 79.006,379.503 79.145 C 379.503 79.432,378.762 78.756,378.724 78.433 C 378.668 77.969,377.999 76.564,377.834 76.564 C 377.738 76.564,377.763 76.733,377.890 76.940 C 378.318 77.638,373.845 73.032,373.329 72.243 C 373.047 71.814,372.558 71.381,372.241 71.280 C 371.925 71.180,371.665 70.903,371.665 70.665 C 371.665 70.428,371.520 70.234,371.342 70.234 C 370.896 70.234,370.145 69.443,370.374 69.214 C 370.476 69.112,370.361 69.028,370.117 69.028 C 369.874 69.028,368.902 68.267,367.957 67.338 C 367.012 66.408,366.240 65.717,366.240 65.803 C 366.240 65.889,365.567 65.310,364.744 64.518 C 363.922 63.725,363.176 63.149,363.086 63.239 C 362.997 63.328,362.924 63.243,362.924 63.049 C 362.924 62.856,362.712 62.698,362.454 62.698 C 362.195 62.698,362.068 62.562,362.170 62.396 C 362.273 62.231,362.247 62.092,362.113 62.088 C 361.979 62.085,361.208 61.478,360.401 60.741 C 359.593 60.003,358.678 59.319,358.366 59.220 C 358.055 59.121,357.800 58.905,357.800 58.741 C 357.800 58.577,357.664 58.526,357.498 58.628 C 357.332 58.731,357.197 58.595,357.197 58.327 C 357.197 58.059,357.076 57.914,356.929 58.005 C 356.781 58.096,356.110 57.636,355.437 56.983 C 354.764 56.330,354.297 56.014,354.400 56.282 C 354.524 56.606,354.469 56.695,354.234 56.550 C 354.040 56.430,353.877 56.171,353.871 55.973 C 353.858 55.479,352.437 54.484,352.070 54.712 C 351.905 54.813,351.771 54.685,351.771 54.426 C 351.771 54.168,351.589 53.956,351.366 53.956 C 351.143 53.956,350.566 53.617,350.085 53.203 C 349.603 52.789,349.039 52.450,348.832 52.450 C 348.625 52.449,348.455 52.313,348.455 52.148 C 348.455 51.982,348.321 51.846,348.156 51.846 C 347.992 51.846,347.234 51.371,346.473 50.789 C 345.711 50.208,344.978 49.800,344.844 49.883 C 344.710 49.966,344.530 49.853,344.446 49.633 C 344.284 49.213,345.099 47.248,345.507 47.074 C 345.636 47.018,345.742 46.743,345.742 46.462 C 345.742 46.181,346.043 45.694,346.411 45.379 C 346.840 45.012,346.949 44.763,346.715 44.685 C 346.449 44.596,346.472 44.442,346.800 44.114 C 347.047 43.867,347.249 43.403,347.249 43.083 C 347.249 42.763,347.438 42.502,347.668 42.502 C 347.907 42.502,348.171 42.053,348.283 41.456 C 348.391 40.880,348.723 40.236,349.021 40.024 C 349.319 39.812,349.657 39.260,349.772 38.797 C 349.899 38.281,350.111 38.037,350.319 38.165 C 350.521 38.290,350.575 38.240,350.451 38.040 C 350.218 37.663,351.686 34.665,352.104 34.665 C 352.252 34.665,352.374 34.476,352.374 34.245 C 352.374 34.014,352.591 33.741,352.857 33.639 C 353.123 33.537,353.267 33.261,353.177 33.026 C 353.086 32.791,353.208 32.437,353.447 32.238 C 353.686 32.040,353.881 31.547,353.881 31.143 C 353.881 30.636,353.997 30.479,354.258 30.635 C 354.558 30.816,354.559 30.768,354.260 30.399 C 354.055 30.145,353.987 29.836,354.110 29.713 C 354.413 29.410,354.423 27.430,354.122 27.430 C 353.989 27.430,353.881 27.121,353.881 26.744 C 353.881 26.366,353.682 25.774,353.439 25.427 C 353.197 25.080,353.071 24.723,353.161 24.634 C 353.250 24.544,353.042 24.382,352.698 24.272 C 352.354 24.163,352.072 23.884,352.072 23.652 C 352.072 23.400,351.890 23.299,351.620 23.403 C 351.372 23.498,351.168 23.439,351.168 23.272 C 351.168 23.105,350.795 22.813,350.339 22.624 C 348.807 21.988,347.100 21.032,346.884 20.688 C 346.765 20.500,346.562 20.328,346.431 20.306 C 345.584 20.161,344.870 19.786,345.010 19.559 C 345.101 19.412,344.911 19.292,344.589 19.292 C 343.897 19.292,342.425 18.571,342.125 18.086 C 342.009 17.898,341.724 17.713,341.492 17.674 C 341.116 17.611,338.458 16.347,336.850 15.467 C 334.929 14.414,331.751 12.962,331.372 12.962 C 331.128 12.962,330.740 12.792,330.509 12.585 C 329.493 11.674,329.217 11.502,329.045 11.673 C 328.944 11.774,328.862 11.717,328.862 11.546 C 328.862 11.374,328.508 11.304,328.064 11.389 C 327.513 11.495,327.331 11.435,327.479 11.197 C 327.611 10.982,327.469 10.852,327.104 10.852 C 326.780 10.852,326.434 10.639,326.334 10.380 C 326.235 10.121,325.915 9.940,325.624 9.979 C 325.007 10.061,323.436 9.361,323.436 9.004 C 323.436 8.870,323.233 8.839,322.984 8.934 C 322.735 9.029,322.532 8.957,322.532 8.774 C 322.532 8.590,322.430 8.462,322.306 8.490 C 321.839 8.592,320.434 8.064,320.099 7.660 C 319.907 7.430,319.625 7.319,319.470 7.414 C 319.316 7.510,319.026 7.456,318.826 7.295 C 318.626 7.134,318.022 6.908,317.483 6.793 C 316.944 6.678,316.503 6.470,316.503 6.330 C 316.503 6.191,316.063 5.983,315.524 5.868 C 314.985 5.753,313.997 5.413,313.328 5.112 C 312.659 4.812,311.743 4.473,311.293 4.360 C 310.843 4.247,310.475 4.038,310.475 3.895 C 310.475 3.753,310.249 3.723,309.973 3.829 C 309.601 3.972,309.534 3.911,309.716 3.593 C 309.911 3.252,309.880 3.239,309.565 3.531 C 309.253 3.820,309.100 3.804,308.842 3.457 C 308.663 3.214,308.142 2.986,307.687 2.949 C 307.231 2.913,306.858 2.769,306.858 2.629 C 306.858 2.490,306.722 2.460,306.556 2.562 C 306.390 2.665,306.255 2.599,306.255 2.416 C 306.255 2.233,306.085 2.114,305.878 2.151 C 305.320 2.251,302.939 1.451,302.939 1.164 C 302.939 1.028,302.537 0.963,302.046 1.020 C 301.555 1.077,301.098 0.973,301.031 0.788 C 300.944 0.551,300.710 0.570,300.234 0.851 C 299.739 1.144,299.621 1.152,299.790 0.879 C 299.959 0.605,299.830 0.566,299.294 0.729 C 298.895 0.851,298.226 1.041,297.807 1.153 C 296.620 1.470,294.512 3.093,294.313 3.843 C 294.213 4.216,293.997 4.521,293.831 4.521 C 293.666 4.521,293.620 4.755,293.729 5.040 C 293.838 5.325,293.829 5.460,293.709 5.339 C 293.589 5.219,293.016 5.969,292.436 7.006 C 291.856 8.044,291.235 8.992,291.056 9.114 C 290.877 9.235,290.854 9.337,291.004 9.340 C 291.154 9.342,291.070 9.582,290.818 9.872 C 290.566 10.162,290.274 10.763,290.168 11.207 C 290.063 11.652,289.773 12.218,289.525 12.467 C 289.276 12.715,289.073 12.977,289.073 13.049 C 289.073 13.121,288.545 14.140,287.900 15.314 C 287.255 16.487,286.803 17.524,286.895 17.616 C 286.988 17.709,286.916 17.784,286.736 17.784 C 286.556 17.784,286.318 18.193,286.209 18.691 C 286.099 19.190,285.885 19.521,285.733 19.427 C 285.581 19.333,285.456 19.463,285.456 19.717 C 285.456 19.970,285.194 20.643,284.874 21.213 C 284.555 21.782,284.354 22.310,284.430 22.385 C 284.505 22.460,284.359 22.693,284.107 22.903 C 283.814 23.146,283.647 23.167,283.647 22.959 C 283.647 22.781,283.171 22.545,282.589 22.436 C 282.007 22.327,281.456 22.117,281.365 21.970 C 281.275 21.823,280.767 21.702,280.238 21.701 C 279.709 21.700,278.904 21.505,278.448 21.267 C 277.992 21.029,277.619 20.949,277.619 21.090 C 277.619 21.230,277.349 21.275,277.019 21.188 C 276.690 21.102,276.494 20.911,276.585 20.765 C 276.676 20.618,276.369 20.487,275.903 20.474 C 275.438 20.462,274.785 20.388,274.454 20.311 C 274.122 20.234,273.444 20.111,272.946 20.037 C 271.767 19.861,271.251 19.733,270.625 19.461 C 270.343 19.339,269.970 19.326,269.796 19.433 C 269.622 19.541,269.480 19.500,269.480 19.344 C 269.480 19.072,266.639 18.435,264.883 18.313 C 264.427 18.282,264.054 18.172,264.054 18.070 C 264.054 17.968,263.885 17.874,263.677 17.861 C 263.470 17.848,262.690 17.734,261.944 17.609 C 261.198 17.483,260.360 17.375,260.082 17.367 C 259.804 17.360,259.657 17.224,259.755 17.066 C 259.856 16.903,259.719 16.860,259.441 16.967 C 259.171 17.070,258.874 17.034,258.783 16.886 C 258.691 16.738,258.382 16.624,258.095 16.632 C 256.804 16.668,251.696 15.825,251.696 15.577 C 251.696 15.424,251.466 15.485,251.186 15.713 C 250.783 16.039,250.726 16.042,250.916 15.727 C 251.102 15.418,250.943 15.360,250.220 15.474 C 249.705 15.555,249.284 15.520,249.284 15.395 C 249.284 15.270,248.708 15.160,248.003 15.151 C 247.298 15.141,246.383 15.049,245.968 14.947 C 245.554 14.844,244.641 14.745,243.939 14.727 C 243.238 14.709,242.718 14.607,242.784 14.500 C 242.850 14.394,242.406 14.280,241.798 14.247 C 241.191 14.214,240.151 14.117,239.488 14.030 C 234.040 13.321,227.061 12.725,221.562 12.501 C 219.826 12.430,218.225 12.303,218.004 12.218 C 217.783 12.134,217.685 12.198,217.786 12.361 C 217.906 12.556,217.698 12.555,217.184 12.360 C 216.357 12.045,189.711 12.177,185.230 12.518 C 183.904 12.618,181.916 12.726,180.813 12.756 C 179.709 12.786,178.870 12.913,178.946 13.037 C 179.023 13.161,178.502 13.278,177.787 13.296 C 176.126 13.339,174.602 13.449,171.967 13.718 C 170.806 13.836,169.416 13.942,168.877 13.954 C 168.338 13.965,167.898 14.053,167.898 14.150 C 167.898 14.247,167.256 14.309,166.472 14.287 C 165.688 14.266,164.840 14.361,164.588 14.499 C 164.336 14.636,162.977 14.888,161.567 15.058 C 160.158 15.228,158.734 15.403,158.402 15.446 C 158.071 15.489,157.700 15.659,157.578 15.825 C 157.441 16.012,157.355 15.983,157.352 15.750 C 157.349 15.543,157.204 15.373,157.028 15.373 C 156.853 15.373,156.793 15.509,156.895 15.674 C 157.005 15.852,156.671 15.979,156.084 15.983 C 155.536 15.987,154.544 16.125,153.881 16.291 C 153.218 16.456,152.133 16.650,151.469 16.723 C 149.669 16.919,148.234 17.162,147.554 17.387 C 147.221 17.497,146.500 17.602,145.952 17.620 C 145.404 17.637,144.844 17.833,144.707 18.054 C 144.503 18.384,144.435 18.385,144.327 18.059 C 144.221 17.742,143.988 17.760,143.160 18.149 C 142.591 18.417,141.345 18.731,140.392 18.847 C 139.439 18.964,138.659 19.175,138.659 19.317 C 138.659 19.458,138.453 19.495,138.203 19.399 C 137.952 19.303,137.579 19.357,137.374 19.519 C 137.169 19.681,136.458 19.900,135.795 20.006 C 135.132 20.112,134.182 20.275,133.685 20.370 C 132.807 20.536,131.413 19.103,131.664 18.290 C 131.706 18.153,131.601 18.128,131.430 18.233 C 131.259 18.339,131.039 18.219,130.942 17.966 C 130.845 17.713,130.507 17.424,130.191 17.323 C 129.874 17.223,129.616 16.947,129.616 16.709 C 129.616 16.472,129.480 16.277,129.314 16.277 C 129.148 16.277,129.047 16.108,129.088 15.901 C 129.130 15.693,129.002 15.555,128.805 15.593 C 128.608 15.631,128.361 15.394,128.257 15.065 C 128.153 14.737,127.941 14.469,127.787 14.469 C 127.632 14.469,127.506 14.265,127.506 14.017 C 127.506 13.768,127.305 13.564,127.059 13.564 C 126.814 13.564,126.526 13.217,126.419 12.793 C 126.292 12.288,126.077 12.078,125.795 12.187 C 125.558 12.277,125.435 12.237,125.522 12.097 C 125.608 11.957,125.407 11.586,125.075 11.272 C 124.743 10.958,124.170 10.372,123.803 9.970 C 123.436 9.568,122.457 8.502,121.628 7.600 C 120.799 6.698,120.154 5.840,120.196 5.693 C 120.237 5.546,120.128 5.426,119.952 5.426 C 119.776 5.426,119.730 5.256,119.850 5.049 C 119.969 4.842,119.954 4.774,119.817 4.899 C 119.501 5.185,118.463 4.269,118.463 3.703 C 118.463 3.471,118.337 3.358,118.183 3.453 C 118.029 3.548,117.826 3.387,117.731 3.094 C 117.637 2.802,117.084 2.239,116.504 1.845 C 115.923 1.451,115.448 1.016,115.448 0.880 C 115.448 -0.015,110.607 -0.223,107.762 0.549 M193.218 78.631 C 193.218 78.737,193.815 78.824,194.545 78.824 C 195.276 78.824,195.810 78.723,195.733 78.598 C 195.593 78.372,198.150 78.325,207.978 78.372 C 211.579 78.390,213.310 78.507,213.456 78.742 C 213.615 78.999,213.774 79.000,214.079 78.747 C 214.332 78.537,214.655 78.509,214.921 78.674 C 215.184 78.836,215.504 78.815,215.740 78.620 C 215.952 78.443,216.127 78.421,216.127 78.571 C 216.127 78.949,217.562 79.033,217.788 78.668 C 217.908 78.474,218.178 78.481,218.563 78.687 C 218.889 78.861,219.694 78.950,220.354 78.884 C 221.013 78.818,221.552 78.850,221.552 78.955 C 221.552 79.060,222.129 79.166,222.833 79.190 C 226.185 79.305,230.449 79.638,230.720 79.806 C 230.886 79.909,231.638 80.018,232.391 80.050 C 233.645 80.103,234.964 80.251,237.378 80.612 C 237.875 80.687,239.231 80.836,240.392 80.945 C 241.552 81.054,242.638 81.247,242.803 81.374 C 242.969 81.502,243.444 81.573,243.858 81.534 C 244.273 81.494,244.748 81.565,244.913 81.692 C 245.079 81.819,246.096 82.031,247.174 82.164 C 249.223 82.416,249.537 82.470,249.661 82.590 C 249.747 82.673,251.751 82.920,252.948 82.995 C 253.388 83.022,253.683 83.149,253.604 83.277 C 253.525 83.405,253.843 83.507,254.311 83.504 C 255.712 83.495,257.730 83.846,257.589 84.074 C 257.517 84.191,258.497 84.472,259.767 84.697 C 262.007 85.095,263.594 85.665,263.296 85.963 C 263.150 86.109,263.049 86.651,262.688 89.224 C 262.583 89.970,262.419 90.784,262.324 91.032 C 262.229 91.281,262.180 91.664,262.216 91.884 C 262.253 92.103,262.157 92.442,262.005 92.637 C 261.852 92.832,261.712 93.466,261.693 94.047 C 261.675 94.627,261.513 95.780,261.333 96.609 C 261.152 97.438,261.005 98.353,261.004 98.644 C 261.003 98.934,260.875 99.171,260.720 99.171 C 260.564 99.171,260.437 99.315,260.437 99.490 C 260.437 99.666,260.607 99.708,260.814 99.583 C 261.103 99.409,261.111 99.457,260.848 99.791 C 260.508 100.222,260.283 101.578,259.982 105.023 C 259.896 106.004,259.721 106.953,259.593 107.133 C 259.465 107.313,259.366 108.295,259.371 109.315 C 259.377 110.334,259.269 111.099,259.130 111.014 C 258.991 110.929,258.903 111.315,258.934 111.873 C 258.966 112.430,258.960 112.988,258.923 113.112 C 258.735 113.734,258.701 114.068,258.666 115.617 C 258.641 116.751,258.521 117.226,258.297 117.088 C 258.064 116.944,258.067 117.073,258.308 117.522 C 258.496 117.874,258.530 118.161,258.384 118.161 C 258.238 118.161,258.095 118.873,258.065 119.744 C 258.005 121.523,257.737 126.054,257.570 128.109 C 257.509 128.855,257.422 130.303,257.376 131.326 C 257.330 132.350,257.193 133.126,257.072 133.052 C 256.834 132.905,256.978 133.963,257.257 134.414 C 257.351 134.566,257.288 135.056,257.117 135.505 C 256.908 136.056,256.906 136.440,257.112 136.688 C 257.280 136.891,257.336 137.138,257.236 137.238 C 257.136 137.338,257.041 138.436,257.026 139.677 C 257.011 140.918,256.890 141.867,256.758 141.786 C 256.626 141.704,256.518 141.925,256.518 142.276 C 256.518 142.682,256.645 142.836,256.866 142.699 C 257.107 142.551,257.130 142.615,256.942 142.907 C 256.644 143.370,256.524 149.844,256.816 149.663 C 257.166 149.447,257.111 150.877,256.742 151.594 C 256.443 152.175,256.444 152.347,256.745 152.448 C 256.952 152.518,257.121 152.707,257.121 152.869 C 257.121 153.031,257.009 153.093,256.871 153.008 C 256.575 152.825,256.614 153.926,256.914 154.226 C 257.234 154.547,257.159 154.995,256.820 154.785 C 256.654 154.683,256.518 154.743,256.518 154.918 C 256.518 155.094,256.659 155.237,256.831 155.237 C 257.045 155.237,257.045 155.420,256.830 155.822 C 256.613 156.228,256.614 156.466,256.834 156.602 C 257.036 156.727,257.047 156.925,256.865 157.148 C 256.565 157.515,256.617 158.636,256.976 159.534 C 257.123 159.904,256.904 159.815,256.250 159.241 C 255.734 158.789,255.313 158.308,255.313 158.171 C 255.313 158.035,254.956 157.557,254.521 157.108 C 254.086 156.659,253.840 156.496,253.976 156.745 C 254.188 157.133,254.152 157.139,253.716 156.786 C 253.437 156.560,253.271 156.275,253.346 156.153 C 253.422 156.031,253.183 155.608,252.815 155.213 C 252.448 154.819,252.182 154.391,252.223 154.264 C 252.265 154.136,252.104 154.032,251.867 154.032 C 251.629 154.032,251.353 153.773,251.252 153.457 C 251.152 153.140,250.871 152.806,250.629 152.713 C 250.387 152.620,250.188 152.336,250.188 152.082 C 250.188 151.828,249.962 151.620,249.686 151.620 C 249.410 151.620,249.267 151.537,249.369 151.435 C 249.471 151.332,248.690 150.396,247.632 149.354 C 246.574 148.312,245.790 147.378,245.889 147.279 C 245.988 147.180,245.944 147.096,245.793 147.092 C 245.641 147.088,245.177 146.805,244.763 146.463 C 244.348 146.121,244.213 145.930,244.461 146.040 C 244.710 146.149,244.650 146.026,244.328 145.765 C 244.006 145.504,243.814 145.290,243.900 145.290 C 243.986 145.290,243.367 144.561,242.526 143.671 C 240.406 141.429,239.337 140.148,239.337 139.854 C 239.337 139.716,239.066 139.517,238.734 139.412 C 238.402 139.307,238.131 139.100,238.131 138.951 C 238.131 138.803,237.834 138.406,237.471 138.068 C 237.109 137.729,236.900 137.453,237.008 137.453 C 237.115 137.453,236.700 136.939,236.085 136.311 C 235.469 135.683,234.791 134.903,234.578 134.578 C 234.365 134.252,234.283 134.190,234.396 134.439 C 234.510 134.687,234.311 134.591,233.955 134.225 C 233.599 133.859,233.308 133.439,233.308 133.292 C 233.308 132.989,232.271 131.986,232.078 132.102 C 232.009 132.144,231.983 132.124,232.020 132.059 C 232.105 131.912,230.676 130.186,229.080 128.506 C 228.421 127.813,227.882 127.101,227.882 126.924 C 227.882 126.747,227.742 126.601,227.571 126.601 C 227.400 126.601,226.756 126.098,226.142 125.484 C 225.527 124.869,225.192 124.470,225.398 124.597 C 226.037 124.992,225.809 124.315,225.099 123.709 C 224.433 123.141,224.431 123.141,224.868 123.738 C 225.305 124.335,225.303 124.335,224.637 123.766 C 224.267 123.451,223.964 123.059,223.964 122.897 C 223.964 122.734,223.659 122.288,223.286 121.906 C 221.907 120.492,221.251 119.682,221.251 119.396 C 221.251 119.234,221.094 119.004,220.903 118.886 C 220.667 118.740,220.637 118.807,220.811 119.094 C 221.191 119.723,218.890 117.270,217.973 116.069 C 217.538 115.499,216.910 114.731,216.579 114.362 C 213.522 110.967,212.671 109.934,212.735 109.697 C 212.777 109.544,212.703 109.454,212.572 109.495 C 212.440 109.537,211.740 108.960,211.017 108.214 C 210.293 107.468,209.811 107.048,209.946 107.281 C 210.112 107.568,210.077 107.634,209.838 107.486 C 209.644 107.366,209.548 107.166,209.625 107.042 C 209.701 106.918,209.432 106.459,209.027 106.021 C 208.621 105.584,208.289 105.152,208.289 105.061 C 208.289 104.971,207.747 104.407,207.084 103.807 C 206.420 103.208,205.878 102.538,205.878 102.318 C 205.878 102.098,205.471 101.678,204.974 101.384 C 204.476 101.090,204.069 100.690,204.069 100.495 C 204.069 100.300,203.846 100.054,203.574 99.950 C 203.302 99.845,203.146 99.693,203.228 99.611 C 203.310 99.529,202.922 98.980,202.367 98.391 C 201.811 97.802,201.356 97.179,201.356 97.007 C 201.356 96.836,201.146 96.776,200.889 96.875 C 200.631 96.973,200.494 96.935,200.584 96.790 C 200.674 96.645,200.545 96.359,200.298 96.154 C 200.051 95.949,199.849 95.595,199.849 95.366 C 199.849 95.138,199.646 94.951,199.397 94.951 C 199.148 94.951,198.939 94.849,198.933 94.725 C 198.926 94.601,198.501 94.024,197.989 93.444 C 197.476 92.864,197.164 92.579,197.294 92.812 C 197.453 93.097,197.416 93.164,197.178 93.017 C 196.984 92.897,196.890 92.694,196.970 92.565 C 197.050 92.436,196.718 91.950,196.232 91.485 C 195.747 91.019,195.420 90.524,195.507 90.383 C 195.594 90.243,195.453 90.128,195.195 90.128 C 194.936 90.128,194.725 89.917,194.725 89.658 C 194.725 89.400,194.618 89.254,194.487 89.335 C 194.356 89.416,193.644 88.739,192.905 87.832 C 192.165 86.924,190.850 85.407,189.982 84.462 C 189.114 83.517,188.402 82.573,188.399 82.366 C 188.397 82.159,188.236 82.023,188.043 82.065 C 187.849 82.106,187.544 81.866,187.365 81.532 C 186.820 80.516,185.682 79.543,185.294 79.762 C 185.039 79.906,185.021 79.866,185.236 79.631 C 185.406 79.445,185.813 79.252,186.141 79.201 C 186.469 79.150,186.897 79.008,187.093 78.886 C 187.289 78.764,187.538 78.808,187.647 78.985 C 187.765 79.176,187.987 79.199,188.196 79.041 C 188.388 78.896,189.322 78.794,190.270 78.815 C 191.422 78.840,192.044 78.724,192.143 78.467 C 192.286 78.094,193.218 78.237,193.218 78.631 M83.348 117.935 C 83.475 118.640,83.599 119.691,83.624 120.272 C 83.650 120.853,83.775 121.497,83.903 121.704 C 84.043 121.931,83.979 122.082,83.740 122.084 C 83.447 122.088,83.438 122.148,83.704 122.317 C 83.901 122.442,84.139 123.559,84.232 124.799 C 84.570 129.283,84.772 132.821,84.804 134.815 C 84.822 135.934,84.914 136.850,85.008 136.850 C 85.101 136.850,85.173 138.071,85.166 139.563 C 85.160 141.055,85.246 142.276,85.359 142.276 C 85.471 142.276,85.499 142.717,85.422 143.255 C 85.264 144.357,85.246 146.025,85.371 147.928 C 85.418 148.632,85.354 149.209,85.230 149.209 C 84.944 149.209,84.930 152.049,85.215 152.333 C 85.330 152.449,85.391 153.116,85.348 153.815 C 85.306 154.515,85.241 157.054,85.205 159.457 C 85.169 161.861,85.065 163.964,84.973 164.130 C 84.882 164.295,84.817 165.889,84.830 167.671 C 84.843 169.454,84.783 170.912,84.697 170.912 C 84.612 170.912,84.508 171.624,84.468 172.494 C 84.395 174.047,84.000 178.024,83.681 180.407 C 83.592 181.070,83.439 182.214,83.341 182.948 C 83.088 184.852,82.954 184.928,81.888 183.779 C 81.363 183.214,80.222 181.986,79.352 181.050 C 78.482 180.114,77.769 179.214,77.769 179.049 C 77.769 178.884,77.580 178.749,77.350 178.749 C 76.980 178.749,76.559 178.149,76.592 177.668 C 76.598 177.574,76.289 177.222,75.905 176.885 C 75.521 176.548,75.241 176.151,75.283 176.003 C 75.324 175.856,75.216 175.735,75.042 175.735 C 74.868 175.735,74.464 175.158,74.144 174.454 C 73.824 173.749,73.560 173.300,73.556 173.456 C 73.541 174.099,72.663 172.509,72.650 171.816 C 72.640 171.281,72.561 171.180,72.379 171.468 C 72.190 171.766,72.035 171.626,71.796 170.941 C 71.617 170.428,71.320 170.008,71.136 170.008 C 70.952 170.008,70.879 169.881,70.974 169.727 C 71.070 169.572,70.802 168.936,70.379 168.313 C 69.956 167.690,69.678 167.002,69.762 166.785 C 69.845 166.568,69.782 166.390,69.621 166.390 C 69.461 166.390,69.329 166.197,69.329 165.960 C 69.329 165.723,69.160 165.350,68.953 165.131 C 68.745 164.912,68.541 164.461,68.498 164.130 C 68.456 163.798,68.393 163.289,68.359 162.999 C 68.325 162.709,68.201 162.472,68.084 162.472 C 67.968 162.472,67.724 161.783,67.544 160.941 C 67.363 160.100,67.081 159.158,66.915 158.850 C 66.708 158.463,66.719 158.224,66.949 158.082 C 67.175 157.942,67.183 157.812,66.971 157.682 C 66.586 157.443,66.205 154.684,66.287 152.722 C 66.335 151.590,66.260 151.315,65.955 151.499 C 65.640 151.688,65.635 151.645,65.928 151.283 C 66.130 151.033,66.299 149.956,66.304 148.889 C 66.309 147.821,66.374 146.405,66.447 145.742 C 66.521 145.079,66.589 144.291,66.599 143.991 C 66.608 143.691,66.719 143.509,66.844 143.586 C 66.968 143.664,67.094 143.366,67.122 142.926 C 67.209 141.588,67.854 139.261,68.139 139.261 C 68.286 139.261,68.338 139.083,68.254 138.865 C 68.170 138.647,68.309 138.070,68.563 137.584 C 68.817 137.097,69.025 136.394,69.026 136.021 C 69.027 135.579,69.211 135.341,69.555 135.338 C 70.007 135.334,70.018 135.291,69.631 135.037 C 69.319 134.832,69.282 134.670,69.511 134.514 C 69.694 134.390,70.095 133.745,70.404 133.082 C 70.712 132.419,71.139 131.697,71.353 131.478 C 71.566 131.259,71.741 130.907,71.741 130.696 C 71.741 130.485,72.080 129.918,72.494 129.436 C 72.908 128.955,73.247 128.315,73.248 128.015 C 73.248 127.715,73.384 127.554,73.549 127.656 C 73.715 127.759,73.851 127.631,73.851 127.373 C 73.851 127.114,73.994 126.903,74.170 126.903 C 74.346 126.903,74.417 126.786,74.329 126.643 C 74.240 126.500,74.686 125.822,75.320 125.136 C 75.953 124.450,76.377 123.888,76.261 123.888 C 76.146 123.888,76.776 123.128,77.662 122.199 C 78.548 121.269,79.198 120.388,79.106 120.239 C 79.015 120.091,79.211 119.970,79.542 119.970 C 79.874 119.970,80.242 119.813,80.360 119.622 C 80.500 119.396,80.442 119.356,80.195 119.509 C 79.986 119.638,80.474 119.054,81.279 118.212 C 83.062 116.346,83.063 116.346,83.348 117.935 M152.072 141.673 C 151.970 141.839,152.106 141.974,152.374 141.974 C 152.642 141.974,152.787 142.094,152.697 142.241 C 152.606 142.388,153.342 143.371,154.332 144.426 C 155.323 145.482,156.135 146.425,156.137 146.523 C 156.145 146.855,158.526 149.136,158.691 148.971 C 158.781 148.881,158.855 149.008,158.855 149.255 C 158.855 149.501,159.160 149.978,159.533 150.313 C 159.906 150.649,160.405 151.209,160.643 151.557 C 160.880 151.906,161.189 152.120,161.328 152.034 C 161.468 151.947,161.545 151.998,161.500 152.146 C 161.390 152.501,163.264 154.635,163.686 154.635 C 163.867 154.635,163.935 154.763,163.838 154.921 C 163.740 155.078,163.939 155.356,164.280 155.539 C 164.621 155.721,164.820 155.999,164.723 156.157 C 164.626 156.314,164.712 156.443,164.916 156.443 C 165.119 156.443,165.206 156.522,165.109 156.619 C 164.880 156.848,165.868 157.892,166.164 157.734 C 166.289 157.668,166.390 157.766,166.390 157.952 C 166.390 158.139,167.102 159.011,167.973 159.891 C 168.843 160.771,169.750 161.772,169.987 162.116 C 170.225 162.460,170.520 162.678,170.644 162.602 C 170.767 162.526,170.955 162.736,171.061 163.070 C 171.167 163.404,171.395 163.677,171.567 163.677 C 171.740 163.677,171.800 163.888,171.701 164.145 C 171.597 164.416,171.648 164.535,171.822 164.427 C 171.987 164.325,172.249 164.556,172.402 164.939 C 172.556 165.323,172.691 165.512,172.701 165.360 C 172.722 165.064,174.853 167.290,175.637 168.425 C 175.895 168.798,176.301 169.103,176.541 169.103 C 176.780 169.103,176.904 169.220,176.816 169.363 C 176.728 169.505,177.055 170.014,177.543 170.493 C 178.031 170.972,178.435 171.463,178.439 171.585 C 178.449 171.853,179.753 173.341,181.077 174.595 C 181.612 175.102,181.977 175.633,181.889 175.776 C 181.800 175.919,181.865 176.036,182.033 176.036 C 182.513 176.036,184.678 178.429,184.552 178.818 C 184.510 178.946,184.611 179.050,184.775 179.050 C 185.185 179.050,186.757 180.865,186.654 181.220 C 186.609 181.378,186.676 181.443,186.805 181.365 C 186.933 181.287,187.213 181.413,187.427 181.644 C 187.641 181.876,187.764 182.065,187.701 182.065 C 187.544 182.065,189.326 184.048,191.897 186.734 C 193.077 187.967,193.970 189.049,193.882 189.138 C 193.793 189.227,193.878 189.299,194.072 189.299 C 194.265 189.299,194.424 189.503,194.424 189.751 C 194.424 190.000,194.611 190.203,194.840 190.203 C 195.069 190.203,195.627 190.689,196.079 191.283 C 196.532 191.876,197.290 192.758,197.763 193.242 C 198.236 193.726,198.530 194.122,198.416 194.122 C 198.301 194.122,198.512 194.335,198.883 194.595 C 199.254 194.855,199.486 195.185,199.397 195.328 C 199.309 195.471,199.395 195.686,199.590 195.806 C 199.831 195.955,199.862 195.890,199.687 195.600 C 199.469 195.239,199.507 195.238,199.946 195.594 C 200.229 195.823,200.424 196.227,200.381 196.492 C 200.337 196.756,200.469 196.975,200.674 196.979 C 200.878 196.983,201.605 197.664,202.287 198.493 C 202.970 199.322,203.718 200.108,203.950 200.241 C 204.181 200.374,204.371 200.693,204.371 200.952 C 204.371 201.272,204.536 201.358,204.889 201.222 C 205.174 201.113,205.314 201.116,205.200 201.230 C 205.087 201.344,205.260 201.776,205.586 202.191 C 206.405 203.231,209.468 206.732,210.475 207.777 C 210.931 208.250,211.304 208.713,211.304 208.806 C 211.304 208.898,211.609 209.261,211.982 209.612 C 212.355 209.963,212.904 210.589,213.202 211.003 C 213.499 211.417,213.661 211.586,213.561 211.379 C 213.460 211.172,213.522 211.002,213.697 211.002 C 213.873 211.002,214.017 211.189,214.017 211.417 C 214.017 211.646,214.219 212.000,214.465 212.205 C 214.712 212.410,214.827 212.719,214.720 212.892 C 214.614 213.064,214.668 213.118,214.840 213.011 C 215.013 212.905,215.322 213.019,215.526 213.266 C 215.731 213.513,215.781 213.721,215.636 213.727 C 215.491 213.734,215.746 213.942,216.202 214.189 C 216.658 214.436,217.031 214.758,217.031 214.905 C 217.031 215.051,217.511 215.691,218.098 216.327 C 218.685 216.963,219.499 217.847,219.907 218.293 C 220.314 218.738,220.648 219.231,220.648 219.388 C 220.648 219.546,220.977 219.890,221.379 220.153 C 221.781 220.417,222.195 220.900,222.299 221.228 C 222.422 221.616,222.666 221.767,223.000 221.663 C 223.466 221.518,223.464 221.542,222.983 221.938 C 222.693 222.178,222.116 222.336,221.702 222.291 C 221.286 222.245,220.947 222.365,220.945 222.559 C 220.942 222.794,220.867 222.805,220.719 222.593 C 220.467 222.234,219.141 222.079,219.141 222.409 C 219.141 222.528,217.818 222.615,216.202 222.603 C 214.586 222.590,213.177 222.704,213.073 222.855 C 212.959 223.019,212.669 223.010,212.354 222.834 C 212.056 222.667,211.384 222.638,210.811 222.767 C 210.209 222.903,209.797 222.879,209.797 222.709 C 209.797 222.550,209.656 222.508,209.484 222.615 C 208.856 223.003,203.415 223.093,201.170 222.753 C 199.644 222.521,198.800 222.505,198.677 222.704 C 198.563 222.888,198.003 222.917,197.241 222.777 C 196.554 222.652,195.775 222.671,195.509 222.819 C 195.176 223.006,195.025 222.968,195.022 222.698 C 195.018 222.417,194.935 222.434,194.725 222.758 C 194.547 223.033,194.431 223.069,194.428 222.849 C 194.425 222.591,193.696 222.513,191.861 222.575 C 190.452 222.622,189.299 222.577,189.299 222.474 C 189.299 222.371,188.587 222.278,187.717 222.267 C 184.238 222.221,179.788 221.788,179.464 221.463 C 179.350 221.349,179.087 221.397,178.879 221.570 C 178.628 221.778,178.439 221.782,178.314 221.580 C 178.211 221.414,177.928 221.354,177.684 221.447 C 177.441 221.540,177.005 221.515,176.714 221.390 C 176.424 221.266,175.576 221.121,174.830 221.069 C 174.084 221.017,172.931 220.914,172.268 220.840 C 171.605 220.766,170.181 220.613,169.103 220.500 C 168.026 220.387,166.994 220.170,166.811 220.019 C 166.628 219.867,166.154 219.766,165.756 219.795 C 164.656 219.873,159.759 219.075,159.759 218.818 C 159.759 218.693,159.521 218.630,159.231 218.676 C 158.941 218.723,158.574 218.686,158.415 218.593 C 158.256 218.501,157.832 218.394,157.473 218.355 C 156.151 218.214,153.580 217.733,153.580 217.627 C 153.580 217.598,153.240 217.532,152.826 217.481 C 152.131 217.396,150.134 216.980,148.304 216.539 C 147.890 216.439,147.381 216.351,147.174 216.343 C 146.967 216.334,146.797 216.199,146.797 216.041 C 146.797 215.884,146.445 215.822,146.016 215.904 C 145.187 216.063,145.111 215.323,145.730 213.112 C 145.846 212.698,145.986 212.054,146.041 211.681 C 146.375 209.428,146.580 208.575,146.824 208.423 C 146.986 208.323,146.963 207.996,146.768 207.632 C 146.575 207.272,146.562 207.089,146.736 207.196 C 146.919 207.310,147.012 206.914,146.974 206.178 C 146.941 205.515,147.007 204.974,147.122 204.974 C 147.347 204.974,147.599 203.506,147.872 200.609 C 147.965 199.617,148.135 198.735,148.248 198.649 C 148.362 198.563,148.448 198.222,148.439 197.890 C 148.430 197.558,148.523 196.914,148.644 196.458 C 148.794 195.898,148.750 195.628,148.509 195.625 C 148.258 195.621,148.251 195.555,148.485 195.399 C 148.667 195.277,148.830 194.974,148.847 194.725 C 148.980 192.803,149.289 190.276,149.436 189.902 C 149.534 189.653,149.644 188.975,149.679 188.395 C 149.866 185.339,150.656 178.185,150.840 177.887 C 150.957 177.698,150.901 177.543,150.716 177.543 C 150.531 177.543,150.477 177.384,150.597 177.190 C 150.717 176.996,150.809 176.250,150.801 175.532 C 150.793 174.815,150.906 174.228,151.053 174.228 C 151.393 174.228,151.262 173.543,150.867 173.253 C 150.669 173.107,150.674 173.029,150.881 173.026 C 151.202 173.022,151.231 172.587,151.478 164.130 C 151.551 161.643,151.658 158.427,151.716 156.983 C 151.790 155.152,151.724 154.418,151.495 154.555 C 151.293 154.676,151.301 154.585,151.518 154.316 C 151.765 154.009,151.843 152.041,151.782 147.626 C 151.731 143.900,151.810 141.372,151.978 141.372 C 152.132 141.372,152.175 141.507,152.072 141.673 M378.821 239.809 C 378.755 239.869,375.373 240.190,374.436 240.226 C 374.219 240.234,374.121 240.370,374.218 240.527 C 374.315 240.684,374.122 240.760,373.790 240.696 C 373.457 240.632,373.107 240.707,373.010 240.863 C 372.914 241.018,372.572 241.145,372.250 241.145 C 371.929 241.145,371.665 241.277,371.665 241.437 C 371.665 241.598,371.479 241.658,371.252 241.571 C 371.025 241.484,370.634 241.617,370.384 241.867 C 370.133 242.118,369.866 242.260,369.789 242.183 C 369.713 242.106,369.280 242.386,368.828 242.805 C 368.376 243.224,367.859 243.476,367.679 243.365 C 367.492 243.249,367.438 243.302,367.554 243.489 C 367.665 243.668,367.489 243.899,367.164 244.003 C 366.838 244.106,366.493 244.440,366.396 244.745 C 366.299 245.051,365.939 245.374,365.596 245.463 C 365.254 245.553,365.057 245.761,365.159 245.926 C 365.261 246.091,365.091 246.307,364.783 246.405 C 364.474 246.503,364.064 246.927,363.873 247.348 C 363.654 247.828,363.384 248.032,363.149 247.896 C 362.942 247.778,362.871 247.788,362.990 247.921 C 363.110 248.053,362.940 248.536,362.614 248.995 C 362.287 249.454,362.020 249.978,362.020 250.160 C 362.020 250.341,361.876 250.490,361.700 250.490 C 361.525 250.490,361.465 250.625,361.567 250.791 C 361.670 250.957,361.610 251.093,361.435 251.093 C 361.259 251.093,361.130 251.194,361.148 251.319 C 361.208 251.738,360.745 252.901,360.518 252.901 C 360.307 252.901,360.117 253.890,359.708 257.121 C 359.614 257.867,359.423 258.694,359.285 258.959 C 359.135 259.246,359.169 259.575,359.368 259.775 C 359.614 260.021,359.607 260.226,359.342 260.546 C 359.094 260.844,359.082 261.015,359.304 261.089 C 359.482 261.148,359.638 261.874,359.652 262.701 C 359.666 263.528,359.809 264.369,359.970 264.569 C 360.131 264.769,360.173 265.077,360.064 265.254 C 359.746 265.769,360.217 267.370,360.687 267.370 C 360.923 267.370,361.099 267.472,361.080 267.596 C 360.950 268.416,361.201 269.235,361.734 269.732 C 362.074 270.049,362.374 270.596,362.401 270.949 C 362.428 271.302,362.710 271.673,363.028 271.774 C 363.490 271.920,363.523 272.010,363.190 272.221 C 362.859 272.431,362.882 272.486,363.301 272.490 C 363.591 272.492,363.828 272.711,363.828 272.975 C 363.828 273.239,364.099 273.526,364.431 273.613 C 364.763 273.699,365.034 273.902,365.034 274.062 C 365.034 274.444,367.066 276.413,367.460 276.413 C 367.628 276.413,367.839 276.604,367.929 276.838 C 368.018 277.072,368.455 277.354,368.899 277.465 C 369.343 277.577,369.949 277.928,370.245 278.246 C 370.542 278.564,371.118 278.824,371.526 278.824 C 371.934 278.824,372.268 278.971,372.268 279.151 C 372.268 279.331,372.438 279.417,372.645 279.343 C 372.852 279.269,373.361 279.376,373.775 279.580 C 375.112 280.239,381.613 280.883,381.613 280.356 C 381.613 280.248,381.850 280.143,382.140 280.124 C 382.430 280.104,383.171 280.054,383.786 280.011 C 384.401 279.968,384.846 279.839,384.775 279.724 C 384.704 279.609,385.014 279.503,385.465 279.488 C 386.816 279.445,387.340 279.339,387.340 279.108 C 387.340 278.988,387.686 278.803,388.108 278.697 C 389.139 278.438,393.539 275.545,393.444 275.188 C 393.402 275.033,393.572 274.906,393.821 274.906 C 394.069 274.906,394.273 274.770,394.273 274.604 C 394.273 274.439,394.484 274.303,394.743 274.303 C 395.001 274.303,395.134 274.176,395.038 274.020 C 394.942 273.864,395.043 273.627,395.264 273.493 C 395.484 273.358,395.841 272.812,396.056 272.278 C 396.271 271.745,396.706 271.227,397.022 271.126 C 397.339 271.026,397.520 270.818,397.424 270.664 C 397.329 270.510,397.395 270.384,397.571 270.384 C 397.746 270.384,397.868 270.283,397.841 270.158 C 397.815 270.034,397.950 269.550,398.143 269.084 C 398.335 268.617,398.493 268.040,398.493 267.803 C 398.493 267.565,398.607 267.370,398.747 267.370 C 399.678 267.370,400.356 259.174,399.682 256.066 C 399.466 255.072,399.266 254.122,399.236 253.956 C 399.090 253.139,398.695 252.298,398.458 252.298 C 398.311 252.298,398.217 252.197,398.249 252.072 C 398.393 251.506,397.800 249.899,397.270 249.419 C 396.948 249.128,396.684 248.699,396.684 248.466 C 396.684 248.228,396.535 248.135,396.344 248.253 C 396.142 248.378,396.057 248.303,396.134 248.071 C 396.246 247.735,393.005 244.160,392.588 244.160 C 392.151 244.160,389.487 242.113,389.677 241.923 C 389.801 241.799,389.766 241.732,389.601 241.773 C 389.113 241.893,387.641 241.405,387.641 241.122 C 387.641 240.980,387.438 240.941,387.189 241.036 C 386.940 241.132,386.737 241.064,386.737 240.886 C 386.737 240.707,386.534 240.640,386.285 240.735 C 386.036 240.830,385.833 240.785,385.833 240.635 C 385.833 240.485,385.494 240.334,385.079 240.299 C 383.447 240.164,383.120 240.106,383.118 239.950 C 383.117 239.801,378.983 239.665,378.821 239.809 M383.546 244.019 C 384.030 244.271,384.823 244.521,385.309 244.574 C 385.795 244.627,386.313 244.861,386.460 245.093 C 386.685 245.449,386.730 245.444,386.742 245.064 C 386.753 244.701,386.814 244.713,387.056 245.127 C 387.228 245.423,387.553 245.566,387.818 245.465 C 388.120 245.349,388.336 245.502,388.443 245.908 C 388.532 246.250,388.802 246.605,389.043 246.698 C 389.332 246.809,389.407 246.739,389.263 246.492 C 389.143 246.287,389.339 246.377,389.700 246.693 C 390.060 247.009,390.354 247.450,390.354 247.673 C 390.354 247.896,390.498 248.078,390.673 248.078 C 390.849 248.078,390.909 247.943,390.806 247.777 C 390.704 247.611,390.764 247.476,390.939 247.476 C 391.115 247.476,391.258 247.664,391.258 247.895 C 391.258 248.126,391.462 248.393,391.711 248.489 C 391.959 248.584,392.163 248.870,392.163 249.124 C 392.163 249.378,392.298 249.586,392.464 249.586 C 392.630 249.586,392.766 249.797,392.766 250.055 C 392.766 250.338,392.907 250.438,393.118 250.307 C 393.347 250.166,393.411 250.247,393.299 250.537 C 393.201 250.793,393.373 251.139,393.700 251.343 C 394.015 251.540,394.273 251.854,394.273 252.042 C 394.273 252.229,394.510 252.577,394.800 252.815 C 395.105 253.065,395.137 253.150,394.876 253.016 C 394.478 252.813,394.476 252.851,394.862 253.326 C 395.104 253.623,395.328 254.022,395.361 254.213 C 395.603 255.609,395.769 256.257,395.971 256.584 C 396.487 257.419,396.551 261.971,396.059 262.891 C 395.785 263.403,395.798 263.477,396.127 263.279 C 396.460 263.079,396.459 263.127,396.120 263.544 C 395.892 263.825,395.783 264.054,395.876 264.054 C 395.969 264.054,395.857 264.418,395.627 264.862 C 395.396 265.306,395.277 265.781,395.362 265.919 C 395.447 266.056,395.313 266.247,395.065 266.342 C 394.816 266.438,394.686 266.708,394.776 266.943 C 394.866 267.178,394.767 267.370,394.556 267.370 C 394.345 267.370,394.262 267.459,394.371 267.568 C 394.480 267.677,394.418 267.949,394.233 268.171 C 394.049 268.394,393.997 268.576,394.119 268.576 C 394.240 268.576,394.019 268.843,393.628 269.169 C 393.237 269.495,393.028 269.766,393.165 269.771 C 393.302 269.777,392.863 270.358,392.189 271.063 C 391.515 271.767,390.962 272.445,390.960 272.570 C 390.959 272.694,390.787 272.796,390.580 272.796 C 390.373 272.797,389.729 273.203,389.148 273.700 C 388.568 274.197,387.873 274.603,387.603 274.604 C 387.333 274.604,386.956 274.793,386.765 275.023 C 386.366 275.503,383.969 276.203,382.743 276.197 C 382.287 276.195,381.914 276.310,381.914 276.454 C 381.914 276.597,380.821 276.714,379.485 276.714 C 378.149 276.714,377.125 276.602,377.210 276.465 C 377.295 276.327,376.896 276.230,376.323 276.249 C 375.751 276.268,375.283 276.177,375.283 276.047 C 375.283 275.917,375.022 275.810,374.704 275.810 C 373.783 275.810,373.158 275.475,373.383 275.100 C 373.497 274.910,373.360 274.941,373.080 275.169 C 372.782 275.410,372.570 275.450,372.570 275.264 C 372.570 275.090,372.329 274.870,372.036 274.777 C 371.742 274.684,371.055 274.200,370.510 273.702 C 369.964 273.203,369.327 272.796,369.093 272.796 C 368.859 272.796,368.211 272.118,367.653 271.290 C 367.095 270.462,366.577 269.846,366.502 269.921 C 366.426 269.997,366.031 269.420,365.624 268.639 C 365.216 267.858,364.780 267.143,364.655 267.049 C 364.186 266.701,363.481 263.523,363.355 261.191 C 363.283 259.864,363.216 258.644,363.206 258.478 C 363.166 257.807,363.365 256.820,363.541 256.820 C 363.644 256.820,363.728 256.634,363.728 256.407 C 363.728 255.434,364.528 253.227,364.817 253.405 C 364.997 253.517,365.036 253.449,364.909 253.244 C 364.649 252.824,365.733 250.978,366.922 249.812 C 367.387 249.356,367.683 248.983,367.581 248.983 C 367.478 248.983,367.882 248.508,368.480 247.928 C 369.077 247.347,369.719 246.873,369.905 246.873 C 370.091 246.873,370.631 246.467,371.105 245.971 C 371.579 245.475,371.969 245.238,371.971 245.444 C 371.975 245.736,372.027 245.737,372.210 245.450 C 372.493 245.004,374.855 244.134,375.105 244.384 C 375.203 244.482,375.283 244.395,375.283 244.192 C 375.283 243.989,375.417 243.906,375.582 244.008 C 375.746 244.109,376.119 244.054,376.411 243.884 C 377.268 243.385,382.521 243.484,383.546 244.019 M371.690 259.623 C 371.648 272.570,371.538 271.990,373.997 271.833 C 374.869 271.777,375.448 271.593,375.471 271.364 C 375.492 271.157,375.526 268.817,375.546 266.164 L 375.584 261.341 377.538 261.341 C 379.370 261.341,379.503 261.388,379.680 262.095 C 379.784 262.509,379.969 262.849,380.090 262.849 C 380.316 262.849,380.916 263.992,380.943 264.473 C 380.952 264.620,381.079 264.823,381.226 264.925 C 381.660 265.223,382.794 267.595,382.597 267.792 C 382.498 267.892,382.582 267.973,382.784 267.973 C 382.986 267.973,383.293 268.380,383.466 268.877 C 383.640 269.375,383.919 269.781,384.086 269.781 C 384.253 269.781,384.309 269.992,384.211 270.249 C 384.111 270.510,384.159 270.638,384.320 270.538 C 384.479 270.440,384.691 270.684,384.790 271.081 C 385.034 272.052,389.095 272.339,388.992 271.378 C 388.860 270.138,388.454 269.179,388.061 269.179 C 387.830 269.179,387.641 268.907,387.641 268.576 C 387.641 268.244,387.510 267.973,387.349 267.973 C 387.189 267.973,387.144 267.747,387.250 267.471 C 387.371 267.157,387.323 267.044,387.121 267.168 C 386.856 267.332,386.303 266.560,386.436 266.212 C 386.458 266.156,386.229 265.908,385.928 265.662 C 385.627 265.416,385.584 265.319,385.833 265.446 C 386.206 265.637,386.220 265.597,385.911 265.215 C 385.705 264.960,385.623 264.666,385.728 264.561 C 385.833 264.456,385.696 264.284,385.424 264.180 C 385.151 264.075,384.928 263.801,384.928 263.570 C 384.928 263.339,384.823 263.150,384.693 263.150 C 384.564 263.150,384.304 262.743,384.116 262.246 C 383.800 261.408,383.825 261.341,384.452 261.341 C 384.825 261.341,385.231 261.240,385.355 261.115 C 385.480 260.991,385.672 260.883,385.782 260.876 C 386.566 260.823,388.546 259.437,388.546 258.942 C 388.546 258.623,388.673 258.284,388.830 258.187 C 388.986 258.091,389.189 257.438,389.281 256.738 C 389.667 253.804,389.727 252.579,389.477 252.734 C 389.332 252.824,388.996 252.356,388.731 251.694 C 388.466 251.032,388.044 250.490,387.794 250.490 C 387.544 250.490,387.340 250.288,387.340 250.041 C 387.340 249.751,386.915 249.525,386.140 249.401 C 385.479 249.295,385.002 249.108,385.077 248.985 C 385.153 248.862,384.672 248.793,384.009 248.830 C 383.345 248.867,382.721 248.767,382.622 248.607 C 382.517 248.437,382.334 248.486,382.182 248.724 C 382.040 248.949,381.921 248.998,381.919 248.832 C 381.917 248.637,380.155 248.584,376.940 248.681 C 373.762 248.778,371.923 248.723,371.846 248.531 C 371.781 248.365,371.711 253.357,371.690 259.623 M384.687 253.473 C 385.151 253.993,385.533 254.314,385.536 254.187 C 385.538 254.060,385.650 254.129,385.784 254.340 C 387.110 256.429,385.003 257.504,379.503 257.544 L 375.433 257.573 375.531 254.894 L 375.629 252.215 379.736 252.371 L 383.843 252.528 384.687 253.473 M202.191 288.987 C 201.738 289.056,200.924 289.057,200.382 288.990 C 199.840 288.923,200.211 288.867,201.206 288.865 C 202.200 288.863,202.644 288.918,202.191 288.987 " stroke="none" fill="#7cacd4" fill-rule="evenodd"></path><path id="path1" d="M316.938 6.496 C 317.586 6.980,318.137 7.080,317.882 6.668 C 317.792 6.522,317.411 6.325,317.036 6.231 C 316.377 6.065,316.373 6.074,316.938 6.496 M121.228 7.214 C 121.832 7.975,122.683 8.624,122.683 8.325 C 122.683 8.149,120.872 6.330,120.698 6.330 C 120.604 6.330,120.842 6.728,121.228 7.214 M242.394 14.502 C 242.927 14.839,243.557 14.842,243.557 14.506 C 243.557 14.361,243.203 14.243,242.771 14.243 C 242.217 14.243,242.106 14.319,242.394 14.502 M64.808 18.981 C 64.808 19.141,64.618 19.200,64.386 19.111 C 64.154 19.022,63.875 19.094,63.765 19.272 C 63.640 19.474,63.820 19.556,64.246 19.491 C 64.828 19.402,65.484 18.689,64.984 18.689 C 64.887 18.689,64.808 18.820,64.808 18.981 M351.341 35.615 C 350.759 36.781,350.747 36.937,351.279 36.405 C 351.708 35.976,352.224 34.665,351.964 34.665 C 351.882 34.665,351.602 35.092,351.341 35.615 M368.233 67.653 C 368.408 68.108,369.254 68.551,369.254 68.187 C 369.254 68.066,368.988 67.801,368.662 67.598 C 368.175 67.293,368.099 67.303,368.233 67.653 M192.192 78.293 C 191.829 78.655,192.027 78.937,192.615 78.892 C 192.946 78.867,193.218 78.755,193.218 78.642 C 193.218 78.352,192.409 78.076,192.192 78.293 M378.773 78.333 C 378.681 78.483,378.807 78.773,379.054 78.978 C 379.419 79.281,379.503 79.262,379.503 78.879 C 379.503 78.316,379.011 77.948,378.773 78.333 M381.378 81.381 C 381.583 81.709,381.927 82.046,382.143 82.129 C 382.391 82.224,382.338 82.006,381.999 81.541 C 381.358 80.659,380.844 80.527,381.378 81.381 M209.373 106.437 C 209.689 106.786,209.913 107.125,209.872 107.191 C 209.830 107.256,209.864 107.310,209.947 107.310 C 210.191 107.310,210.126 107.046,209.726 106.404 C 209.519 106.073,209.226 105.803,209.074 105.803 C 208.923 105.803,209.057 106.088,209.373 106.437 M9.990 106.750 C 9.778 107.090,9.670 107.435,9.751 107.516 C 9.832 107.597,10.056 107.368,10.249 107.008 C 10.704 106.157,10.493 105.946,9.990 106.750 M330.052 121.611 C 330.450 122.035,330.821 122.381,330.876 122.381 C 331.148 122.381,330.172 121.165,329.780 121.014 C 329.532 120.919,329.654 121.187,330.052 121.611 M257.423 126.332 C 257.423 127.378,257.666 127.386,257.866 126.347 C 257.933 125.997,257.861 125.631,257.706 125.535 C 257.550 125.439,257.423 125.798,257.423 126.332 M231.047 130.821 C 231.348 131.153,231.645 131.424,231.708 131.424 C 231.771 131.424,231.677 131.153,231.500 130.821 C 231.322 130.490,231.025 130.219,230.839 130.219 C 230.654 130.219,230.747 130.490,231.047 130.821 M256.518 141.052 C 256.518 141.914,256.963 142.040,257.014 141.192 C 257.038 140.793,256.936 140.467,256.788 140.467 C 256.640 140.467,256.518 140.731,256.518 141.052 M151.695 141.748 C 151.764 141.956,152.050 142.145,152.329 142.170 C 152.723 142.204,152.733 142.182,152.376 142.072 C 152.122 141.993,151.992 141.803,152.086 141.650 C 152.181 141.497,152.104 141.372,151.914 141.372 C 151.725 141.372,151.626 141.541,151.695 141.748 M85.004 146.815 C 85.004 147.322,85.121 147.665,85.265 147.576 C 85.508 147.426,85.375 145.893,85.119 145.893 C 85.056 145.893,85.004 146.308,85.004 146.815 M256.782 149.661 C 256.630 150.271,256.713 151.535,256.899 151.421 C 257.025 151.343,257.098 150.881,257.060 150.395 C 256.999 149.590,256.879 149.273,256.782 149.661 M85.074 154.635 C 85.074 155.215,85.136 155.452,85.212 155.162 C 85.287 154.872,85.287 154.397,85.212 154.107 C 85.136 153.817,85.074 154.054,85.074 154.635 M338.339 169.873 C 337.764 170.335,337.764 170.338,338.357 170.065 C 338.689 169.912,339.164 169.712,339.412 169.620 C 339.803 169.475,339.800 169.449,339.394 169.428 C 339.136 169.415,338.661 169.616,338.339 169.873 M323.742 172.042 C 323.756 172.703,324.332 173.141,324.336 172.494 C 324.339 172.121,324.205 171.816,324.039 171.816 C 323.873 171.816,323.740 171.918,323.742 172.042 M351.941 176.675 C 354.007 178.871,355.123 179.955,355.316 179.955 C 355.430 179.955,354.580 179.005,353.429 177.845 C 351.339 175.739,350.264 174.894,351.941 176.675 M358.704 183.572 C 359.035 183.904,359.396 184.175,359.504 184.175 C 359.613 184.175,359.456 183.904,359.156 183.572 C 358.856 183.240,358.496 182.969,358.356 182.969 C 358.216 182.969,358.372 183.240,358.704 183.572 M192.916 188.244 C 193.306 188.659,193.730 188.998,193.859 188.998 C 193.989 188.998,193.756 188.659,193.341 188.244 C 192.927 187.830,192.502 187.491,192.398 187.491 C 192.294 187.491,192.527 187.830,192.916 188.244 M362.924 187.585 C 362.924 187.637,363.365 188.078,363.904 188.565 L 364.883 189.450 363.998 188.470 C 363.173 187.557,362.924 187.352,362.924 187.585 M196.771 192.606 C 197.203 193.098,197.607 193.450,197.670 193.387 C 197.821 193.237,196.487 191.711,196.205 191.711 C 196.084 191.711,196.339 192.114,196.771 192.606 M198.644 194.474 C 198.644 194.752,200.177 196.307,200.315 196.168 C 200.387 196.096,200.040 195.649,199.545 195.174 C 199.049 194.699,198.644 194.384,198.644 194.474 M197.589 222.758 C 198.418 223.115,198.713 223.115,198.493 222.758 C 198.390 222.592,198.009 222.466,197.646 222.478 C 197.009 222.498,197.007 222.508,197.589 222.758 M200.151 222.576 C 200.151 222.641,200.693 222.747,201.356 222.810 C 202.020 222.873,202.562 222.819,202.562 222.691 C 202.562 222.562,202.020 222.457,201.356 222.457 C 200.693 222.457,200.151 222.510,200.151 222.576 M206.481 222.691 C 206.481 222.819,207.023 222.873,207.687 222.810 C 208.350 222.747,208.892 222.641,208.892 222.576 C 208.892 222.510,208.350 222.457,207.687 222.457 C 207.023 222.457,206.481 222.562,206.481 222.691 M373.837 228.198 C 373.604 228.570,373.584 228.787,373.782 228.787 C 373.955 228.787,374.176 228.577,374.274 228.322 C 374.546 227.615,374.253 227.532,373.837 228.198 M35.593 229.304 C 35.580 229.505,35.837 229.813,36.165 229.989 C 36.651 230.249,36.729 230.223,36.586 229.850 C 36.489 229.599,36.300 229.461,36.166 229.544 C 36.032 229.627,35.853 229.524,35.769 229.316 C 35.655 229.033,35.611 229.030,35.593 229.304 M365.076 236.348 C 364.684 236.666,364.481 236.921,364.624 236.916 C 364.992 236.902,366.071 236.053,365.916 235.899 C 365.845 235.829,365.467 236.031,365.076 236.348 M390.957 243.077 C 390.957 243.137,391.296 243.408,391.711 243.680 C 392.125 243.951,392.464 244.057,392.464 243.914 C 392.464 243.771,392.125 243.499,391.711 243.310 C 391.296 243.121,390.957 243.016,390.957 243.077 M390.992 247.806 C 390.973 248.070,391.234 248.537,391.573 248.844 C 392.113 249.332,392.165 249.338,391.993 248.890 C 391.885 248.610,391.686 248.380,391.550 248.380 C 391.414 248.380,391.241 248.142,391.165 247.852 C 391.053 247.424,391.020 247.415,390.992 247.806 M394.569 252.799 C 394.740 252.884,394.812 253.061,394.730 253.194 C 394.648 253.327,394.817 253.621,395.105 253.847 C 395.589 254.226,395.594 254.213,395.177 253.684 C 394.928 253.368,394.769 253.033,394.823 252.938 C 394.877 252.843,394.772 252.739,394.589 252.705 C 394.383 252.668,394.375 252.703,394.569 252.799 M359.062 259.869 C 359.020 260.420,359.113 260.708,359.296 260.594 C 359.463 260.491,359.560 260.146,359.511 259.827 C 359.366 258.873,359.136 258.894,359.062 259.869 M351.887 266.384 C 352.321 267.086,352.675 267.798,352.675 267.967 C 352.675 268.136,352.822 268.274,353.001 268.274 C 353.342 268.274,352.302 266.344,351.539 265.561 C 351.297 265.313,351.453 265.683,351.887 266.384 M396.257 271.784 C 395.970 272.532,396.287 272.634,396.670 271.917 C 396.856 271.571,396.881 271.289,396.727 271.289 C 396.573 271.289,396.362 271.512,396.257 271.784 M200.382 288.990 C 200.924 289.057,201.738 289.056,202.191 288.987 C 202.644 288.918,202.200 288.863,201.206 288.865 C 200.211 288.867,199.840 288.923,200.382 288.990 M205.472 288.998 C 205.395 289.122,205.964 289.183,206.736 289.134 C 208.937 288.992,209.204 288.845,207.328 288.807 C 206.384 288.787,205.549 288.873,205.472 288.998 M305.501 298.934 C 305.170 299.014,304.774 299.197,304.622 299.340 C 304.471 299.484,304.878 299.457,305.527 299.280 C 307.276 298.802,307.255 298.512,305.501 298.934 " stroke="none" fill="#7cb4d4" fill-rule="evenodd"></path><path id="path2" d="M372.252 229.917 L 371.213 231.047 372.344 230.009 C 373.396 229.042,373.613 228.787,373.382 228.787 C 373.332 228.787,372.823 229.295,372.252 229.917 M374.303 248.604 C 375.671 248.660,377.909 248.660,379.277 248.604 C 380.644 248.548,379.525 248.503,376.790 248.503 C 374.054 248.503,372.935 248.548,374.303 248.604 M377.178 252.522 C 378.137 252.582,379.629 252.581,380.493 252.520 C 381.358 252.460,380.573 252.410,378.749 252.411 C 376.925 252.412,376.218 252.462,377.178 252.522 " stroke="none" fill="#80acd4" fill-rule="evenodd"></path><path id="path3" d="M372.252 229.917 L 371.213 231.047 372.344 230.009 C 373.396 229.042,373.613 228.787,373.382 228.787 C 373.332 228.787,372.823 229.295,372.252 229.917 M374.303 248.604 C 375.671 248.660,377.909 248.660,379.277 248.604 C 380.644 248.548,379.525 248.503,376.790 248.503 C 374.054 248.503,372.935 248.548,374.303 248.604 M377.178 252.522 C 378.137 252.582,379.629 252.581,380.493 252.520 C 381.358 252.460,380.573 252.410,378.749 252.411 C 376.925 252.412,376.218 252.462,377.178 252.522 " stroke="none" fill="#80acd4" fill-rule="evenodd"></path><path id="path4" d="M372.252 229.917 L 371.213 231.047 372.344 230.009 C 373.396 229.042,373.613 228.787,373.382 228.787 C 373.332 228.787,372.823 229.295,372.252 229.917 M374.303 248.604 C 375.671 248.660,377.909 248.660,379.277 248.604 C 380.644 248.548,379.525 248.503,376.790 248.503 C 374.054 248.503,372.935 248.548,374.303 248.604 M377.178 252.522 C 378.137 252.582,379.629 252.581,380.493 252.520 C 381.358 252.460,380.573 252.410,378.749 252.411 C 376.925 252.412,376.218 252.462,377.178 252.522 " stroke="none" fill="#80acd4" fill-rule="evenodd"></path></g></svg>